<svg width="136" height="85" viewBox="0 0 136 85" fill="none" xmlns="http://www.w3.org/2000/svg">
<path d="M4.04663 7.42319L3.52449 5.81323C2.85441 3.74205 2.46279 2.41057 2.32355 1.8101L0 1.89713V0.0696079H10.0252V1.44461C8.90261 1.49682 8.10198 1.67957 7.63205 2.01026C7.17082 2.32355 6.94455 2.83699 6.94455 3.55059C6.94455 4.20327 7.07509 5.0039 7.34487 5.94376C7.84091 7.79738 8.50229 9.85987 9.33772 12.1486C9.46826 12.5576 9.63361 13.0537 9.82506 13.6193C10.0165 14.1763 10.2428 14.829 10.4952 15.5774C10.6518 16.1517 10.852 16.7783 11.0956 17.4658C11.348 18.1533 11.5308 18.6493 11.6439 18.9539C12.2008 20.4421 12.6098 21.6256 12.897 22.5045H12.9666C13.5236 20.6335 14.0893 18.8234 14.6723 17.0655C15.6644 13.863 16.7522 10.4951 17.9357 6.94454C19.1715 3.21989 19.9112 0.905055 20.1636 0H21.4864C21.817 1.12262 22.374 2.89792 23.1746 5.3085C23.9753 7.71908 24.5496 9.45957 24.9151 10.53C25.7331 12.897 26.2988 14.5853 26.6034 15.5687C26.8209 16.3084 27.1778 17.4223 27.6738 18.9017C28.2307 20.4943 28.6746 21.8692 28.9966 23.0006H29.1271C29.7885 20.8511 30.3541 19.0758 30.8154 17.666C32.2339 13.6802 33.3739 10.2341 34.2441 7.32745C34.54 6.30926 34.8272 5.45642 35.0796 4.76892C35.593 3.36783 36.0281 2.36706 36.3675 1.75789L33.0519 1.88842V0.0609235H41.4498V1.4359C40.4577 1.54903 39.7006 1.74918 39.1871 2.05377C38.6824 2.35835 38.2299 2.89791 37.8296 3.68983C37.4292 4.48175 36.9245 5.76972 36.324 7.55372L34.218 13.8282C32.0163 20.5291 30.241 25.7157 28.8834 29.4056H27.6477L19.9199 7.30134L12.6534 29.4056H11.4524L4.05534 7.43187L4.04663 7.42319Z" fill="#FF741F"/>
<path d="M42.5731 27.0732L43.0604 26.3683C47.8816 19.7284 52.607 12.7142 57.2367 5.3171C58.2723 3.68103 59.1512 2.4453 59.8648 1.60116L49.3523 1.76651C47.6901 1.81872 46.4718 2.39308 45.6711 3.507C44.8705 4.61221 44.4702 6.30919 44.4702 8.62404H43.0517L43.3041 0.069519H63.7896V1.52284L48.9607 24.0448C47.9425 25.559 47.0113 26.699 46.1498 27.4736L56.1924 27.3082C58.1156 27.2734 59.656 26.6903 60.8308 25.5677C61.9969 24.4451 62.5887 22.7655 62.5887 20.529H63.9811L63.7461 28.9965H42.5557V27.0906L42.5731 27.0732Z" fill="#FF741F"/>
<path d="M68.2459 27.6215C69.2119 27.5954 69.8994 27.3778 70.3171 26.9688C70.7261 26.5511 70.9524 26.055 71.0046 25.4981C71.0655 24.9324 71.0916 23.9491 71.0916 22.5393V4.69925C71.0916 3.54182 71.1351 2.54973 71.2222 1.723L68.2459 1.88835V0.0608521H88.1136L88.3138 7.29259H86.9562C86.9562 5.03865 86.4689 3.49832 85.4855 2.67159C84.5021 1.85356 83.1358 1.46193 81.3866 1.51415L77.836 1.60118C76.8439 1.62728 76.1216 1.81003 75.6778 2.16683C75.2427 2.50623 74.9729 2.98485 74.8598 3.60273C74.7467 4.2206 74.6944 5.19528 74.6944 6.51805V13.1145L82.457 13.1667L82.1698 9.61612H83.9799V18.2838H82.6224C82.6224 17.2656 82.4918 16.4998 82.2395 15.9602C81.9958 15.412 81.6216 15.0552 81.1169 14.8724C80.6121 14.6897 79.8985 14.6026 78.9935 14.6026L77.7055 14.6549L74.6944 14.768V24.2363C74.6944 25.6635 74.6509 26.7426 74.5639 27.4649L82.4483 27.3343C84.3716 27.3082 85.8423 26.8209 86.8518 25.8636C87.8787 24.915 88.3921 23.2703 88.3921 20.9293H89.7845L89.5495 28.9791H68.2285V27.6215H68.2459Z" fill="#FF741F"/>
<path d="M93.918 27.6215C94.8839 27.5954 95.5714 27.3778 95.9892 26.9688C96.3982 26.5511 96.6244 26.055 96.6767 25.4981C96.7376 24.9324 96.7637 23.9491 96.7637 22.5393V4.69925C96.7637 3.54182 96.8072 2.54973 96.8942 1.723L93.918 1.88835V0.0608521H103.221V1.43583C102.255 1.46193 101.559 1.6795 101.15 2.08851C100.741 2.49753 100.506 2.99357 100.445 3.55923C100.393 4.13359 100.375 5.11696 100.375 6.51805V24.0709C100.375 25.5329 100.332 26.6207 100.245 27.3343L103.221 27.169V28.9791H93.918V27.6215Z" fill="#FF741F"/>
<path d="M112.426 5.5521H112.374L112.504 23.2268C112.504 25.0804 112.478 26.4467 112.435 27.3256L115.411 27.1603V28.9704H107.849V27.6128C108.945 27.6128 109.667 27.2995 110.024 26.6729C110.39 26.0377 110.573 25.2544 110.573 24.3494L110.607 1.723L107.849 1.88835V0.0608521H112.766L130.353 23.6097H130.405L130.44 4.69925C130.44 3.54182 130.484 2.54973 130.571 1.723L127.594 1.88835V0.0608521H135.192V1.43583C134.365 1.46193 133.747 1.61859 133.338 1.90577C132.938 2.19295 132.685 2.59324 132.572 3.08058C132.459 3.57662 132.407 4.23802 132.407 5.05605V6.50934L132.337 29.623H130.344L112.435 5.54338L112.426 5.5521Z" fill="#FF741F"/>
<path d="M39.5192 53.781C38.8665 53.781 38.3443 53.5809 37.944 53.1632C37.5437 52.7455 37.3436 52.232 37.3436 51.6229C37.3436 51.0137 37.535 50.5524 37.9266 50.1347C38.3269 49.717 38.8578 49.4995 39.5192 49.4995C40.1806 49.4995 40.7027 49.7083 41.0943 50.1347C41.4946 50.5437 41.6948 51.0398 41.6948 51.6229C41.6948 52.2059 41.5033 52.7455 41.1117 53.1632C40.7201 53.5722 40.1893 53.781 39.5192 53.781ZM51.2675 71.6907H58.4122V75.1369H51.1979C51.0238 76.7207 50.5974 78.0957 49.9099 79.2705C49.2311 80.4367 48.3522 81.42 47.2643 82.212C46.1852 82.9952 44.9669 83.5782 43.6006 83.9698C42.2343 84.3527 40.7897 84.5529 39.2668 84.5529H39.2494C37.5089 84.5355 35.9164 84.2222 34.4804 83.613C33.0358 83.0039 31.7914 82.1684 30.7297 81.0893C29.6767 80.0276 28.8587 78.7832 28.2843 77.3734C27.7012 75.9723 27.4141 74.4668 27.4141 72.8568C27.4141 71.4035 27.6925 69.9502 28.2669 68.4708C28.85 67.0001 29.7202 65.6599 30.895 64.4415L33.3578 66.9044C32.6703 67.6528 32.1221 68.5317 31.7218 69.5325C31.3302 70.542 31.1387 71.6385 31.1387 72.8307C31.1387 74.023 31.3389 75.0759 31.7392 76.0767C32.1395 77.0775 32.6965 77.9565 33.4275 78.7049C34.1498 79.4533 35.0113 80.0363 36.0034 80.4628C36.9955 80.8805 38.0833 81.098 39.2668 81.098C40.3285 81.098 41.3467 80.9501 42.3127 80.6629C43.2786 80.3757 44.1489 79.9319 44.9234 79.3401C45.7066 78.7484 46.3158 77.9825 46.7509 77.0514C47.1947 76.1289 47.421 75.0324 47.421 73.7358V56.9835H51.2675V71.6907Z" fill="#FF741F"/>
<path d="M68.8634 75.1369H57.9854V71.6907H65.0604V53.2328H68.8721V75.1369H68.8634ZM62.5715 83.8915C61.9014 83.8915 61.3793 83.6827 60.9964 83.2562C60.6048 82.8298 60.4133 82.3338 60.4133 81.7507C60.4133 81.1677 60.5961 80.6455 60.979 80.2278C61.3619 79.8188 61.8927 79.6099 62.5715 79.6099C63.2503 79.6099 63.7551 79.8101 64.1467 80.2278C64.547 80.6455 64.7471 81.159 64.7471 81.7507C64.7471 82.3425 64.5557 82.8298 64.1641 83.2562C63.7725 83.674 63.2416 83.8915 62.5715 83.8915ZM67.9758 83.8915C67.3231 83.8915 66.8009 83.6827 66.4006 83.2562C66.009 82.8298 65.8176 82.3338 65.8176 81.7507C65.8176 81.1677 66.009 80.6455 66.4006 80.2278C66.8009 79.8188 67.3231 79.6099 67.9758 79.6099C68.6284 79.6099 69.1854 79.8101 69.5683 80.2278C69.9686 80.6455 70.1688 81.159 70.1688 81.7507C70.1688 82.3425 69.9686 82.8298 69.5683 83.2562C69.1767 83.674 68.6458 83.8915 67.9758 83.8915Z" fill="#FF741F"/>
<path d="M80.0803 49.9695C79.4102 49.9695 78.8794 49.7694 78.4877 49.3517C78.0961 48.934 77.9047 48.4205 77.9047 47.8287C77.9047 47.237 78.0961 46.7496 78.4877 46.3232C78.8707 45.8881 79.4015 45.6705 80.0803 45.6705C80.7591 45.6705 81.2551 45.8881 81.6554 46.3232C82.0558 46.7496 82.2559 47.2457 82.2559 47.8287C82.2559 48.4118 82.0645 48.934 81.6728 49.3517C81.2812 49.7607 80.7504 49.9695 80.0803 49.9695ZM74.7892 82.682H72.4482V79.0531H74.3715C75.1895 79.0531 75.877 78.8617 76.4427 78.4875C76.9996 78.1133 77.4261 77.5998 77.7132 76.9646C78.0004 76.3206 78.1484 75.5896 78.1484 74.7715V53.1808H81.8469V75.05C81.8469 77.4693 81.2551 79.3403 80.089 80.6718C78.9316 82.012 77.165 82.682 74.7979 82.682H74.7892Z" fill="#FF741F"/>
<path d="M107.511 53.2328V75.102C107.511 77.0949 107.093 78.7397 106.258 80.0363C105.422 81.3417 104.23 82.3077 102.69 82.9343C101.149 83.5695 99.2956 83.8915 97.1199 83.8915C96.1018 83.8915 95.1619 83.8045 94.2916 83.6218C93.4214 83.4477 92.5686 83.1953 91.7331 82.8385C90.8977 82.4991 90.0187 82.0988 89.105 81.6376L89.4879 78.322C90.5844 78.9485 91.8114 79.4533 93.1516 79.8449C94.5005 80.2452 95.8233 80.4454 97.1199 80.4454C99.2259 80.4454 100.836 80.0363 101.958 79.2096C103.081 78.3829 103.647 77.0253 103.664 75.1282H98.173C96.6239 75.1282 95.1793 74.841 93.8391 74.2579C92.4989 73.6748 91.3154 72.8742 90.3059 71.8473C89.2964 70.8117 88.5132 69.6021 87.9476 68.2184C87.3732 66.8434 87.0947 65.364 87.0947 63.7802C87.0947 62.3094 87.3732 60.9257 87.9476 59.6465C88.5132 58.3672 89.2964 57.2446 90.3059 56.2961C91.3067 55.3301 92.4728 54.5817 93.8043 54.0508C95.1445 53.5026 96.5891 53.2328 98.1381 53.2328H107.511ZM98.1381 71.6907H103.664V56.4962H98.112C97.1025 56.4962 96.1627 56.6877 95.2837 57.0793C94.4135 57.4535 93.639 57.9843 92.9776 58.6544C92.3249 59.3245 91.8114 60.099 91.4372 60.9954C91.0717 61.883 90.889 62.8403 90.889 63.8759C90.889 64.9985 91.0718 66.0341 91.4547 66.974C91.8289 67.9138 92.3423 68.7493 92.995 69.4542C93.6477 70.1591 94.4135 70.7073 95.3011 71.1076C96.1801 71.4992 97.1199 71.6907 98.1294 71.6907H98.1381Z" fill="#FF741F"/>
</svg>
