<svg width="159" height="155" viewBox="0 0 159 155" fill="none" xmlns="http://www.w3.org/2000/svg">
<path d="M80.9823 56.5888H37.9525C16.6226 69.8333 1.55664 100.585 1.55664 124.967C1.55664 129.304 2.03372 133.528 2.93787 137.592C4.93502 146.567 12.889 152.958 22.0834 152.958H96.8511C106.046 152.958 114 146.567 115.997 137.592C116.901 133.528 117.378 129.304 117.378 124.967C117.378 100.585 102.313 69.8333 80.9823 56.5888ZM83.2424 45.1065C88.9472 37.5847 93.0796 29.7834 94.6519 21.5274C94.9777 19.8172 94.0357 18.1122 92.4172 17.4703C70.0405 8.59519 47.6641 8.59519 25.2874 17.4703C23.6692 18.1122 22.7269 19.8172 23.0526 21.5274C24.6253 29.7837 28.7574 37.5847 34.4622 45.1065H83.2424Z" fill="#EBEBEB"/>
<path d="M33.0866 45.1064H85.8504C89.4741 45.1064 92.4116 48.044 92.4116 51.6676C92.4116 55.2913 89.4741 58.2288 85.8504 58.2288H33.0866C29.4629 58.2288 26.5254 55.2913 26.5254 51.6676C26.5254 48.044 29.4629 45.1064 33.0866 45.1064Z" fill="white"/>
<path d="M70.9893 35.4485C74.5848 28.8825 77.6172 21.4339 79.4127 12.7185C79.6826 11.4071 79.2203 10.0384 78.1812 9.1939C65.6645 -0.98195 52.0445 -0.98195 39.5278 9.1939C38.489 10.0384 38.0264 11.4071 38.2963 12.7185C40.0915 21.4339 43.1242 28.8825 46.7197 35.4485" fill="#EBEBEB"/>
<path d="M156.633 75.1946V142.525C156.633 148.287 151.962 152.958 146.199 152.958H94.375C88.6128 152.958 83.9414 148.287 83.9414 142.525V75.1946C83.9414 69.4324 88.6125 64.761 94.375 64.761H146.199C151.962 64.761 156.633 69.4321 156.633 75.1946Z" fill="#FFB061"/>
<path d="M146.312 84.7289V76.8016C146.312 74.7778 144.672 73.1372 142.648 73.1372H97.9258C95.902 73.1372 94.2617 74.7778 94.2617 76.8016V84.7289C94.2617 86.7527 95.9023 88.393 97.9258 88.393H142.648C144.672 88.3933 146.312 86.7527 146.312 84.7289ZM105.255 98.639V105.594C105.255 106.709 104.351 107.613 103.236 107.613H96.281C95.1659 107.613 94.2617 106.709 94.2617 105.594V98.639C94.2617 97.5239 95.1659 96.6198 96.281 96.6198H103.236C104.351 96.6198 105.255 97.5236 105.255 98.639ZM125.784 98.639V105.594C125.784 106.709 124.88 107.613 123.765 107.613H116.81C115.695 107.613 114.79 106.709 114.79 105.594V98.639C114.79 97.5239 115.695 96.6198 116.81 96.6198H123.765C124.88 96.6198 125.784 97.5236 125.784 98.639ZM146.312 98.639V105.594C146.312 106.709 145.408 107.613 144.293 107.613H137.338C136.223 107.613 135.319 106.709 135.319 105.594V98.639C135.319 97.5239 136.223 96.6198 137.338 96.6198H144.293C145.408 96.6198 146.312 97.5236 146.312 98.639ZM105.255 117.859V124.814C105.255 125.929 104.351 126.833 103.236 126.833H96.281C95.1659 126.833 94.2617 125.929 94.2617 124.814V117.859C94.2617 116.744 95.1659 115.84 96.281 115.84H103.236C104.351 115.84 105.255 116.743 105.255 117.859ZM125.784 117.859V124.814C125.784 125.929 124.88 126.833 123.765 126.833H116.81C115.695 126.833 114.79 125.929 114.79 124.814V117.859C114.79 116.744 115.695 115.84 116.81 115.84H123.765C124.88 115.84 125.784 116.743 125.784 117.859ZM105.255 137.079V144.034C105.255 145.149 104.351 146.053 103.236 146.053H96.281C95.1659 146.053 94.2617 145.149 94.2617 144.034V137.079C94.2617 135.964 95.1659 135.06 96.281 135.06H103.236C104.351 135.06 105.255 135.964 105.255 137.079ZM125.784 137.079V144.034C125.784 145.149 124.88 146.053 123.765 146.053H116.81C115.695 146.053 114.79 145.149 114.79 144.034V137.079C114.79 135.964 115.695 135.06 116.81 135.06H123.765C124.88 135.06 125.784 135.964 125.784 137.079ZM146.312 117.859V144.034C146.312 145.149 145.408 146.053 144.293 146.053H137.338C136.223 146.053 135.319 145.149 135.319 144.034V117.859C135.319 116.744 136.223 115.84 137.338 115.84H144.293C145.408 115.84 146.312 116.743 146.312 117.859Z" fill="white"/>
<path d="M69.9977 95.1691C69.9977 96.0299 70.6944 96.7266 71.5553 96.7266C72.4161 96.7266 73.1129 96.0299 73.1129 95.1691C73.1129 88.1731 67.8178 82.3972 61.0264 81.6209V78.0463C61.0264 77.1855 60.3291 76.4888 59.4689 76.4888C58.6086 76.4888 57.9113 77.1855 57.9113 78.0463V81.6206C51.1193 82.3968 45.8242 88.1731 45.8242 95.1688C45.8242 102.166 51.1193 107.942 57.9113 108.718V129.745C52.8432 128.988 48.9394 124.618 48.9394 119.343C48.9394 118.482 48.242 117.786 47.3818 117.786C46.5216 117.786 45.8242 118.482 45.8242 119.343C45.8242 126.34 51.1193 132.117 57.9113 132.893V136.467C57.9113 137.328 58.6086 138.025 59.4689 138.025C60.3291 138.025 61.0264 137.328 61.0264 136.467V132.893C67.8178 132.116 73.1129 126.34 73.1129 119.343C73.1129 112.347 67.8178 106.571 61.0264 105.795V84.7685C66.0945 85.5254 69.9977 89.8939 69.9977 95.1691ZM48.9394 95.1691C48.9394 89.8936 52.8432 85.5254 57.9113 84.7685V105.571C52.8432 104.814 48.9394 100.445 48.9394 95.1691ZM69.9977 119.344C69.9977 124.619 66.0945 128.989 61.0264 129.745V108.943C66.0945 109.7 69.9977 114.068 69.9977 119.344Z" fill="#20004C"/>
<path d="M146.195 63.21H94.3755C93.5971 63.21 92.8379 63.2904 92.1007 63.4325C90.6775 62.0557 89.2193 60.7556 87.7272 59.5453C91.2979 58.6931 93.9696 55.4958 93.9696 51.6683C93.9696 47.3345 90.5467 43.8131 86.2671 43.5909C91.5595 36.1009 94.8247 28.9514 96.1829 21.8185C96.6468 19.3773 95.3053 16.939 92.9933 16.0217C89.0161 14.4443 85.0282 13.1746 81.0349 12.155C81.0932 10.551 80.4225 9.00751 79.1637 7.98441C66.0657 -2.66147 51.6413 -2.66147 38.5443 7.98441C37.2881 9.0059 36.6168 10.5452 36.6726 12.1473C32.6792 13.1676 28.692 14.4443 24.7147 16.0217C22.4005 16.9403 21.0587 19.3773 21.5242 21.8185C22.8897 28.9879 26.1835 36.1746 31.5243 43.7066C27.7939 44.438 24.968 47.7266 24.968 51.668C24.968 55.5029 27.649 58.7065 31.2297 59.5514C13.3166 74.1361 0 101.347 0 124.967C0 129.34 0.476763 133.702 1.41842 137.93C3.59127 147.695 12.0896 154.515 22.0843 154.515C50.4999 154.515 119.845 154.515 146.195 154.515C152.809 154.515 158.189 149.135 158.189 142.521V131.261C158.189 130.4 157.492 129.703 156.631 129.703C155.77 129.703 155.074 130.4 155.074 131.261V142.521C155.074 147.418 151.092 151.4 146.195 151.4H94.3755C89.4794 151.4 85.4969 147.418 85.4969 142.521V75.1883C85.4969 70.3011 89.479 66.3251 94.3755 66.3251H146.195C151.092 66.3251 155.074 70.3011 155.074 75.1883V100.421C155.074 101.282 155.771 101.979 156.632 101.979C157.493 101.979 158.189 101.282 158.189 100.421V75.1883C158.189 68.5839 152.809 63.21 146.195 63.21ZM25.8628 18.9179C29.6539 17.4145 33.4545 16.1904 37.2606 15.2096C38.964 22.479 41.6143 29.3698 45.353 36.1971C45.7653 36.9515 46.7137 37.2298 47.4672 36.8146C48.2216 36.4023 48.4986 35.4548 48.0847 34.7004C44.1254 27.4691 41.4216 20.1757 39.8207 12.4032C39.6662 11.6533 39.9365 10.8684 40.5091 10.4028C52.5102 0.643807 65.1969 0.646692 77.198 10.4028C77.7716 10.8684 78.0406 11.6533 77.8854 12.4032C76.2852 20.1744 73.5824 27.4679 69.6214 34.7004C69.2078 35.4548 69.4845 36.4026 70.2389 36.8146C70.9802 37.2234 71.9357 36.9605 72.3531 36.1971C76.0906 29.3707 78.7399 22.4851 80.443 15.2214C84.2497 16.2003 88.0513 17.4138 91.8426 18.9179C92.7705 19.2843 93.3076 20.2594 93.1219 21.236C91.7455 28.4717 88.2559 35.7774 82.4655 43.5486H35.241C29.4503 35.7774 25.9625 28.4717 24.5845 21.2344C24.3979 20.2597 24.9356 19.286 25.8628 18.9179ZM28.0828 51.668C28.0828 48.9087 30.3272 46.6637 33.0864 46.6637C57.862 46.6637 76.8719 46.6637 85.8499 46.6637C88.6092 46.6637 90.8542 48.9087 90.8542 51.668C90.8542 54.4272 88.6092 56.6709 85.8499 56.6709H33.0864C30.3272 56.6709 28.0828 54.4272 28.0828 51.668ZM82.3818 75.1883V142.521C82.3818 146.043 83.9159 149.204 86.3402 151.4H22.0843C13.5603 151.4 6.31237 145.583 4.45887 137.254C3.56754 133.246 3.11515 129.113 3.11515 124.967C3.11515 100.967 17.3417 73.1008 35.9848 59.7861H82.9602C84.966 61.2218 86.9137 62.84 88.8051 64.5896C84.991 66.5973 82.3818 70.5919 82.3818 75.1883Z" fill="#20004C"/>
<path d="M147.869 76.8025C147.869 73.923 145.527 71.5806 142.647 71.5806H97.9251C95.0456 71.5806 92.7031 73.923 92.7031 76.8025V84.7289C92.7031 87.6084 95.0456 89.9508 97.9251 89.9508H142.647C145.527 89.9508 147.869 87.6084 147.869 84.7289V76.8025ZM144.754 84.7286C144.754 85.8908 143.81 86.8354 142.647 86.8354H97.9251C96.7628 86.8354 95.8183 85.8908 95.8183 84.7286V76.8025C95.8183 75.6403 96.7628 74.6957 97.9251 74.6957H142.647C143.81 74.6957 144.754 75.6403 144.754 76.8025V84.7286ZM106.813 98.639C106.813 96.6662 105.208 95.0615 103.235 95.0615H96.2809C94.3081 95.0615 92.7034 96.6662 92.7034 98.639V105.593C92.7034 107.566 94.3081 109.171 96.2809 109.171H103.235C105.208 109.171 106.813 107.566 106.813 105.593V98.639ZM103.698 105.593C103.698 105.849 103.491 106.056 103.235 106.056H96.2809C96.0254 106.056 95.8186 105.849 95.8186 105.593V98.639C95.8186 98.3835 96.0254 98.1767 96.2809 98.1767H103.235C103.491 98.1767 103.698 98.3835 103.698 98.639V105.593ZM127.341 98.639C127.341 96.6662 125.736 95.0615 123.764 95.0615H116.809C114.837 95.0615 113.232 96.6662 113.232 98.639V105.593C113.232 107.566 114.837 109.171 116.809 109.171H123.764C125.736 109.171 127.341 107.566 127.341 105.593V98.639ZM124.226 105.593C124.226 105.849 124.019 106.056 123.764 106.056H116.809C116.554 106.056 116.347 105.849 116.347 105.593V98.639C116.347 98.3835 116.554 98.1767 116.809 98.1767H123.764C124.019 98.1767 124.226 98.3835 124.226 98.639V105.593ZM147.869 98.639C147.869 96.6662 146.265 95.0615 144.292 95.0615H137.338C135.366 95.0615 133.761 96.6662 133.761 98.639V105.593C133.761 107.566 135.366 109.171 137.338 109.171H144.292C146.265 109.171 147.869 107.566 147.869 105.593V98.639ZM144.754 105.593C144.754 105.849 144.547 106.056 144.292 106.056H137.338C137.084 106.056 136.877 105.849 136.877 105.593V98.639C136.877 98.3835 137.084 98.1767 137.338 98.1767H144.292C144.547 98.1767 144.754 98.3835 144.754 98.639V105.593ZM106.813 117.859C106.813 115.886 105.208 114.282 103.235 114.282H96.2809C94.3081 114.282 92.7034 115.886 92.7034 117.859V124.813C92.7034 126.786 94.3081 128.391 96.2809 128.391H103.235C105.208 128.391 106.813 126.786 106.813 124.813V117.859ZM103.698 124.813C103.698 125.069 103.491 125.276 103.235 125.276H96.2809C96.0254 125.276 95.8186 125.069 95.8186 124.813V117.859C95.8186 117.604 96.0254 117.397 96.2809 117.397H103.235C103.491 117.397 103.698 117.604 103.698 117.859V124.813ZM127.341 117.859C127.341 115.886 125.736 114.282 123.764 114.282H116.809C114.837 114.282 113.232 115.886 113.232 117.859V124.813C113.232 126.786 114.837 128.391 116.809 128.391H123.764C125.736 128.391 127.341 126.786 127.341 124.813V117.859ZM124.226 124.813C124.226 125.069 124.019 125.276 123.764 125.276H116.809C116.554 125.276 116.347 125.069 116.347 124.813V117.859C116.347 117.604 116.554 117.397 116.809 117.397H123.764C124.019 117.397 124.226 117.604 124.226 117.859V124.813ZM103.235 133.502H96.2809C94.3081 133.502 92.7034 135.107 92.7034 137.079V144.034C92.7034 146.006 94.3081 147.611 96.2809 147.611H103.235C105.208 147.611 106.813 146.006 106.813 144.034V137.079C106.813 135.107 105.208 133.502 103.235 133.502ZM103.698 144.034C103.698 144.289 103.491 144.496 103.235 144.496H96.2809C96.0254 144.496 95.8186 144.289 95.8186 144.034V137.079C95.8186 136.824 96.0254 136.617 96.2809 136.617H103.235C103.491 136.617 103.698 136.824 103.698 137.079V144.034ZM123.764 133.502H116.809C114.837 133.502 113.232 135.107 113.232 137.079V144.034C113.232 146.006 114.837 147.611 116.809 147.611H123.764C125.736 147.611 127.341 146.006 127.341 144.034V137.079C127.341 135.107 125.736 133.502 123.764 133.502ZM124.226 144.034C124.226 144.289 124.019 144.496 123.764 144.496H116.809C116.554 144.496 116.347 144.289 116.347 144.034V137.079C116.347 136.824 116.554 136.617 116.809 136.617H123.764C124.019 136.617 124.226 136.824 124.226 137.079V144.034ZM144.292 114.282H137.338C135.366 114.282 133.761 115.886 133.761 117.859V144.034C133.761 146.006 135.366 147.611 137.338 147.611H144.292C146.265 147.611 147.869 146.006 147.869 144.034V117.859C147.869 115.886 146.265 114.282 144.292 114.282ZM144.754 144.034C144.754 144.289 144.547 144.496 144.292 144.496H137.338C137.084 144.496 136.877 144.289 136.877 144.034V117.859C136.877 117.604 137.084 117.397 137.338 117.397H144.292C144.547 117.397 144.754 117.604 144.754 117.859V144.034Z" fill="#20004C"/>
</svg>
