<svg width="40" height="40" viewBox="0 0 40 40" fill="none" xmlns="http://www.w3.org/2000/svg">
<path d="M0 20C0 8.95431 8.95431 0 20 0C31.0457 0 40 8.95431 40 20C40 31.0457 31.0457 40 20 40C8.95431 40 0 31.0457 0 20Z" fill="#F3F4F6"/>
<path d="M25.9859 23.75H27.5859V25.4167H11.5859V23.75H13.1859V17.9167C13.1859 16.7056 13.4793 15.5833 14.0659 14.55C14.6313 13.55 15.3939 12.7556 16.3539 12.1667C17.3459 11.5556 18.4233 11.25 19.5859 11.25C20.7486 11.25 21.8259 11.5556 22.8179 12.1667C23.7779 12.7556 24.5406 13.55 25.1059 14.55C25.6926 15.5833 25.9859 16.7056 25.9859 17.9167V23.75ZM24.3859 23.75V17.9167C24.3859 17.0167 24.1673 16.1778 23.7299 15.4C23.3033 14.6444 22.7273 14.0444 22.0019 13.6C21.2553 13.1444 20.4499 12.9167 19.5859 12.9167C18.7219 12.9167 17.9166 13.1444 17.1699 13.6C16.4446 14.0444 15.8686 14.6444 15.4419 15.4C15.0046 16.1778 14.7859 17.0167 14.7859 17.9167V23.75H24.3859ZM17.1859 27.0833H21.9859V28.75H17.1859V27.0833Z" fill="#374151"/>
<path d="M28 8C28 5.79086 29.7909 4 32 4C34.2091 4 36 5.79086 36 8C36 10.2091 34.2091 12 32 12C29.7909 12 28 10.2091 28 8Z" fill="#FF741F"/>
</svg>
