<svg width="20" height="20" viewBox="0 0 20 20" fill="none" xmlns="http://www.w3.org/2000/svg">
<path d="M10.6257 3.33333C10.6257 2.98815 10.3458 2.70833 10.0007 2.70833C9.65547 2.70833 9.37565 2.98815 9.37565 3.33333V9.37499H3.33398C2.98881 9.37499 2.70898 9.65482 2.70898 9.99999C2.70898 10.3452 2.98881 10.625 3.33398 10.625H9.37565V16.6667C9.37565 17.0118 9.65547 17.2917 10.0007 17.2917C10.3458 17.2917 10.6257 17.0118 10.6257 16.6667V10.625H16.6673C17.0125 10.625 17.2923 10.3452 17.2923 9.99999C17.2923 9.65482 17.0125 9.37499 16.6673 9.37499H10.6257V3.33333Z" fill="white"/>
</svg>
