<svg width="32" height="32" viewBox="0 0 32 32" fill="none" xmlns="http://www.w3.org/2000/svg">
<path d="M0 16C0 7.16344 7.16344 0 16 0C24.8366 0 32 7.16344 32 16C32 24.8366 24.8366 32 16 32C7.16344 32 0 24.8366 0 16Z" fill="#FEE2E2"/>
<path d="M19.2352 11.5H22.8383V13H21.397V22.75C21.397 22.96 21.3274 23.1375 21.1881 23.2825C21.0487 23.4275 20.8782 23.5 20.6764 23.5H10.5877C10.3859 23.5 10.2153 23.4275 10.076 23.2825C9.93669 23.1375 9.86703 22.96 9.86703 22.75V13H8.42578V11.5H12.0289V9.25C12.0289 9.04 12.0986 8.8625 12.2379 8.7175C12.3772 8.5725 12.5478 8.5 12.7495 8.5H18.5145C18.7163 8.5 18.8869 8.5725 19.0262 8.7175C19.1655 8.8625 19.2352 9.04 19.2352 9.25V11.5ZM19.9558 13H11.3083V22H19.9558V13ZM13.4702 15.25H14.9114V19.75H13.4702V15.25ZM16.3527 15.25H17.7939V19.75H16.3527V15.25ZM13.4702 10V11.5H17.7939V10H13.4702Z" fill="#DC2626"/>
</svg>
