<svg width="20" height="28" viewBox="0 0 20 28" fill="none" xmlns="http://www.w3.org/2000/svg">
<path d="M7.83734 6.5V8H12.1611V6.5H13.6023V8H16.4848C16.6866 8 16.8572 8.0725 16.9965 8.2175C17.1358 8.3625 17.2055 8.54 17.2055 8.75V20.75C17.2055 20.96 17.1358 21.1375 16.9965 21.2825C16.8572 21.4275 16.6866 21.5 16.4848 21.5H3.51359C3.31182 21.5 3.14127 21.4275 3.00195 21.2825C2.86263 21.1375 2.79297 20.96 2.79297 20.75V8.75C2.79297 8.54 2.86263 8.3625 3.00195 8.2175C3.14127 8.0725 3.31182 8 3.51359 8H6.39609V6.5H7.83734ZM15.7642 14H4.23422V20H15.7642V14ZM6.39609 9.5H4.23422V12.5H15.7642V9.5H13.6023V11H12.1611V9.5H7.83734V11H6.39609V9.5Z" fill="#FF741F"/>
</svg>
