<svg width="20" height="20" viewBox="0 0 20 20" fill="none" xmlns="http://www.w3.org/2000/svg">
<path d="M7.50033 11.667H9.17297V13.3337H7.50033V11.667Z" fill="#FF741F"/>
<path d="M10.8277 11.667H12.5003V13.3337H10.8277V11.667Z" fill="#FF741F"/>
<path fill-rule="evenodd" clip-rule="evenodd" d="M10.0003 1.04199C7.58408 1.04199 5.62533 3.00075 5.62533 5.41699V7.74955C4.34443 8.92972 3.54199 10.6213 3.54199 12.5003C3.54199 16.0672 6.43349 18.9587 10.0003 18.9587C13.5672 18.9587 16.4587 16.0672 16.4587 12.5003C16.4587 10.6213 15.6562 8.92972 14.3753 7.74955V5.41699C14.3753 3.00075 12.4166 1.04199 10.0003 1.04199ZM13.1253 6.84703V5.41699C13.1253 3.6911 11.7262 2.29199 10.0003 2.29199C8.27444 2.29199 6.87533 3.6911 6.87533 5.41699V6.84703C7.80135 6.33405 8.86673 6.04199 10.0003 6.04199C11.1339 6.04199 12.1993 6.33405 13.1253 6.84703ZM10.0003 7.29199C7.12384 7.29199 4.79199 9.62384 4.79199 12.5003C4.79199 15.3768 7.12384 17.7087 10.0003 17.7087C12.8768 17.7087 15.2087 15.3768 15.2087 12.5003C15.2087 9.62384 12.8768 7.29199 10.0003 7.29199Z" fill="#FF741F"/>
</svg>
