<svg width="20" height="28" viewBox="0 0 20 28" fill="none" xmlns="http://www.w3.org/2000/svg">
<path d="M9.99922 21.5C9.01917 21.5 8.08236 21.305 7.18878 20.915C6.33364 20.535 5.57218 19.9975 4.9044 19.3025C4.23662 18.6075 3.72017 17.815 3.35506 16.925C2.98033 15.995 2.79297 15.02 2.79297 14C2.79297 12.98 2.98033 12.005 3.35506 11.075C3.72017 10.185 4.23662 9.3925 4.9044 8.6975C5.57218 8.0025 6.33364 7.465 7.18878 7.085C8.08236 6.695 9.01917 6.5 9.99922 6.5C10.9793 6.5 11.9161 6.695 12.8097 7.085C13.6648 7.465 14.4263 8.0025 15.094 8.6975C15.7618 9.3925 16.2783 10.185 16.6434 11.075C17.0181 12.005 17.2055 12.98 17.2055 14C17.2055 15.02 17.0181 15.995 16.6434 16.925C16.2783 17.815 15.7618 18.6075 15.094 19.3025C14.4263 19.9975 13.6648 20.535 12.8097 20.915C11.9161 21.305 10.9793 21.5 9.99922 21.5ZM9.99922 20C11.0465 20 12.017 19.725 12.9105 19.175C13.7753 18.645 14.4623 17.93 14.9715 17.03C15.5 16.1 15.7642 15.09 15.7642 14C15.7642 12.91 15.5 11.9 14.9715 10.97C14.4623 10.07 13.7753 9.355 12.9105 8.825C12.017 8.275 11.0465 8 9.99922 8C8.95191 8 7.98147 8.275 7.08789 8.825C6.22314 9.355 5.53615 10.07 5.02691 10.97C4.49845 11.9 4.23422 12.91 4.23422 14C4.23422 15.09 4.49845 16.1 5.02691 17.03C5.53615 17.93 6.22314 18.645 7.08789 19.175C7.98147 19.725 8.95191 20 9.99922 20ZM7.47703 15.5H11.4405C11.5366 15.5 11.6206 15.4625 11.6927 15.3875C11.7647 15.3125 11.8008 15.225 11.8008 15.125C11.8008 15.025 11.7647 14.9375 11.6927 14.8625C11.6206 14.7875 11.5366 14.75 11.4405 14.75H8.55797C8.23129 14.75 7.93103 14.665 7.65719 14.495C7.38335 14.325 7.16476 14.0975 7.00142 13.8125C6.83808 13.5275 6.75641 13.215 6.75641 12.875C6.75641 12.535 6.83808 12.2225 7.00142 11.9375C7.16476 11.6525 7.38335 11.425 7.65719 11.255C7.93103 11.085 8.23129 11 8.55797 11H9.27859V9.5H10.7198V11H12.5214V12.5H8.55797C8.46189 12.5 8.37781 12.5375 8.30575 12.6125C8.23369 12.6875 8.19766 12.775 8.19766 12.875C8.19766 12.975 8.23369 13.0625 8.30575 13.1375C8.37781 13.2125 8.46189 13.25 8.55797 13.25H11.4405C11.7672 13.25 12.0674 13.335 12.3413 13.505C12.6151 13.675 12.8337 13.9025 12.997 14.1875C13.1604 14.4725 13.242 14.785 13.242 15.125C13.242 15.465 13.1604 15.7775 12.997 16.0625C12.8337 16.3475 12.6151 16.575 12.3413 16.745C12.0674 16.915 11.7672 17 11.4405 17H10.7198V18.5H9.27859V17H7.47703V15.5Z" fill="#FF741F"/>
</svg>
