<svg width="20" height="28" viewBox="0 0 20 28" fill="none" xmlns="http://www.w3.org/2000/svg">
<path d="M10.0008 4.83335L16.5768 6.35002C16.7581 6.39446 16.9074 6.49446 17.0248 6.65002C17.1421 6.80557 17.2008 6.9778 17.2008 7.16669V15.4834C17.2008 16.3278 17.0114 17.1167 16.6328 17.85C16.2541 18.5834 15.7288 19.1834 15.0568 19.65L10.0008 23.1667L4.94478 19.65C4.27278 19.1834 3.74745 18.5834 3.36878 17.85C2.99011 17.1167 2.80078 16.3278 2.80078 15.4834V7.16669C2.80078 6.9778 2.85945 6.80557 2.97678 6.65002C3.09411 6.49446 3.24345 6.39446 3.42478 6.35002L10.0008 4.83335ZM10.0008 6.53335L4.40078 7.83335V15.4834C4.40078 16.05 4.52611 16.5778 4.77678 17.0667C5.02745 17.5556 5.37678 17.9556 5.82478 18.2667L10.0008 21.1667L14.1768 18.2667C14.6248 17.9556 14.9741 17.5556 15.2248 17.0667C15.4754 16.5778 15.6008 16.05 15.6008 15.4834V7.83335L10.0008 6.53335ZM13.5688 10.85L14.6888 12.0334L9.60078 17.3334L6.20878 13.8L7.34478 12.6167L9.60078 14.9834L13.5688 10.85Z" fill="#FF741F"/>
</svg>
