<svg width="21" height="20" viewBox="0 0 21 20" fill="none" xmlns="http://www.w3.org/2000/svg">
<path fill-rule="evenodd" clip-rule="evenodd" d="M10.5595 1.0415H10.5034C10.0613 1.04149 9.68628 1.04148 9.37505 1.06847C9.04479 1.0971 8.73715 1.15912 8.43967 1.30977C8.32226 1.36922 8.21023 1.43784 8.10473 1.51493C7.83741 1.71024 7.65056 1.95111 7.48621 2.22545C7.33134 2.48396 7.1758 2.80896 6.99243 3.19211L6.62578 3.95817H3.93866C3.93831 3.95817 3.93796 3.95817 3.93761 3.95817H2.625C2.26256 3.95817 1.96875 4.23799 1.96875 4.58317C1.96875 4.92835 2.26256 5.20817 2.625 5.20817H3.31969L3.81354 12.9991C3.87954 14.0405 3.93192 14.8668 4.04089 15.5269C4.15264 16.2039 4.33231 16.7677 4.69272 17.2609C5.02242 17.7121 5.4472 18.093 5.93998 18.3792C6.47864 18.6921 7.08038 18.8289 7.79661 18.8944C8.49501 18.9582 9.36423 18.9582 10.4596 18.9582H10.5276C11.6215 18.9582 12.4897 18.9582 13.1873 18.8945C13.9027 18.8292 14.5038 18.6926 15.0421 18.3803C15.5345 18.0946 15.9592 17.7144 16.289 17.2639C16.6495 16.7715 16.8297 16.2085 16.9423 15.5325C17.0521 14.8734 17.1057 14.0482 17.1732 13.0083L17.6795 5.20817H18.375C18.7374 5.20817 19.0312 4.92835 19.0312 4.58317C19.0312 4.23799 18.7374 3.95817 18.375 3.95817H17.0631C17.0623 3.95817 17.0615 3.95817 17.0607 3.95817H14.4615L14.0314 3.11326C13.8433 2.74369 13.6837 2.42999 13.5265 2.18057C13.3596 1.91582 13.172 1.68379 12.9079 1.49618C12.8035 1.42204 12.693 1.35609 12.5774 1.29898C12.2849 1.15446 11.9839 1.09491 11.6609 1.0674C11.3567 1.04148 10.9907 1.04149 10.5595 1.0415ZM16.3645 5.20817H14.0648C14.0554 5.20836 14.0461 5.20836 14.0368 5.20817H7.06191C7.05229 5.20837 7.04265 5.20838 7.033 5.20817H4.63458L5.12161 12.8915C5.19012 13.9724 5.23942 14.7388 5.33746 15.3328C5.43386 15.9167 5.56884 16.2716 5.77002 16.5469C5.99561 16.8556 6.28625 17.1162 6.62341 17.3121C6.92409 17.4867 7.30413 17.5937 7.92195 17.6501C8.55037 17.7075 9.35669 17.7082 10.4937 17.7082C11.6292 17.7082 12.4344 17.7075 13.062 17.6502C13.6791 17.5939 14.0587 17.4871 14.3592 17.3128C14.6962 17.1173 14.9867 16.8572 15.2124 16.5489C15.4136 16.274 15.5489 15.9197 15.646 15.3367C15.7448 14.7436 15.7952 13.9782 15.8653 12.8989L16.3645 5.20817ZM13.0029 3.95817H8.0682L8.17496 3.73512C8.37324 3.32086 8.50445 3.04816 8.62622 2.8449C8.74181 2.65195 8.82474 2.56433 8.90362 2.5067C8.95158 2.47166 9.0025 2.44047 9.05587 2.41344C9.14365 2.36899 9.26176 2.33346 9.49405 2.31332C9.73875 2.2921 10.0537 2.29151 10.5318 2.29151C10.9981 2.29151 11.3052 2.29208 11.544 2.31243C11.7706 2.33173 11.8865 2.3658 11.973 2.40854C12.0255 2.4345 12.0757 2.46447 12.1232 2.49818C12.2013 2.55366 12.284 2.63807 12.4011 2.82387C12.5245 3.01969 12.659 3.28256 12.8624 3.68224L13.0029 3.95817Z" fill="#ED1C24"/>
<g opacity="0.4">
<path d="M7.65625 13.75C7.65625 14.0952 7.95006 14.375 8.3125 14.375C8.67494 14.375 8.96875 14.0952 8.96875 13.75L8.96875 8.75C8.96875 8.40482 8.67494 8.125 8.3125 8.125C7.95006 8.125 7.65625 8.40482 7.65625 8.75V13.75Z" fill="#ED1C24"/>
<path d="M13.3438 8.75C13.3438 8.40482 13.0499 8.125 12.6875 8.125C12.3251 8.125 12.0313 8.40482 12.0313 8.75L12.0313 13.75C12.0313 14.0952 12.3251 14.375 12.6875 14.375C13.0499 14.375 13.3438 14.0952 13.3438 13.75L13.3438 8.75Z" fill="#ED1C24"/>
</g>
</svg>
