<svg width="40" height="40" viewBox="0 0 40 40" fill="none" xmlns="http://www.w3.org/2000/svg">
<path d="M28.1394 28.3599C28.1394 28.6399 28.0466 28.8765 27.861 29.0699C27.6754 29.2632 27.4482 29.3599 27.1794 29.3599H11.8194C11.5506 29.3599 11.3234 29.2632 11.1378 29.0699C10.9522 28.8765 10.8594 28.6399 10.8594 28.3599V17.8599C10.8594 17.5265 10.981 17.2599 11.2242 17.0599L18.9042 10.8399C19.0834 10.7065 19.2818 10.6399 19.4994 10.6399C19.717 10.6399 19.9154 10.7065 20.0946 10.8399L27.7746 17.0599C28.0178 17.2599 28.1394 17.5265 28.1394 17.8599V28.3599ZM18.5394 21.3599V27.3599H20.4594V21.3599H18.5394Z" fill="#FF741F"/>
</svg>
