<svg width="40" height="40" viewBox="0 0 40 40" fill="none" xmlns="http://www.w3.org/2000/svg">
<path d="M0 20C0 8.95431 8.95431 0 20 0C31.0457 0 40 8.95431 40 20C40 31.0457 31.0457 40 20 40C8.95431 40 0 31.0457 0 20Z" fill="#F7F7F8"/>
<path d="M13.8672 27.875C13.8672 26.785 14.1314 25.775 14.6599 24.845C15.1691 23.945 15.8561 23.23 16.7209 22.7C17.6144 22.15 18.5849 21.875 19.6322 21.875C20.6795 21.875 21.6499 22.15 22.5435 22.7C23.4083 23.23 24.0953 23.945 24.6045 24.845C25.133 25.775 25.3972 26.785 25.3972 27.875H23.9559C23.9559 27.065 23.759 26.31 23.365 25.61C22.9807 24.93 22.4618 24.39 21.8085 23.99C21.1359 23.58 20.4105 23.375 19.6322 23.375C18.8539 23.375 18.1285 23.58 17.4559 23.99C16.8025 24.39 16.2837 24.93 15.8993 25.61C15.5054 26.31 15.3084 27.065 15.3084 27.875H13.8672ZM19.6322 21.125C18.8443 21.125 18.1189 20.92 17.4559 20.51C16.8025 20.11 16.2837 19.57 15.8993 18.89C15.5054 18.2 15.3084 17.445 15.3084 16.625C15.3084 15.805 15.5054 15.05 15.8993 14.36C16.2837 13.68 16.8025 13.14 17.4559 12.74C18.1189 12.33 18.8443 12.125 19.6322 12.125C20.4201 12.125 21.1455 12.33 21.8085 12.74C22.4618 13.14 22.9807 13.68 23.365 14.36C23.759 15.05 23.9559 15.805 23.9559 16.625C23.9559 17.445 23.759 18.2 23.365 18.89C22.9807 19.57 22.4618 20.11 21.8085 20.51C21.1455 20.92 20.4201 21.125 19.6322 21.125ZM19.6322 19.625C20.151 19.625 20.6315 19.49 21.0734 19.22C21.5154 18.95 21.8661 18.585 22.1256 18.125C22.385 17.665 22.5147 17.165 22.5147 16.625C22.5147 16.085 22.385 15.585 22.1256 15.125C21.8661 14.665 21.5154 14.3 21.0734 14.03C20.6315 13.76 20.151 13.625 19.6322 13.625C19.1133 13.625 18.6329 13.76 18.1909 14.03C17.749 14.3 17.3983 14.665 17.1388 15.125C16.8794 15.585 16.7497 16.085 16.7497 16.625C16.7497 17.165 16.8794 17.665 17.1388 18.125C17.3983 18.585 17.749 18.95 18.1909 19.22C18.6329 19.49 19.1133 19.625 19.6322 19.625Z" fill="#474747"/>
</svg>
