<svg width="40" height="40" viewBox="0 0 40 40" fill="none" xmlns="http://www.w3.org/2000/svg">
<path d="M17.5405 10.22C18.8461 9.92668 20.1517 9.92001 21.4573 10.2C21.5469 10.8 21.7549 11.35 22.0813 11.85C22.4077 12.35 22.8269 12.7567 23.3389 13.07C23.8509 13.3833 24.3981 13.56 24.9805 13.6C25.5629 13.64 26.1229 13.5533 26.6605 13.34C27.5437 14.3667 28.1965 15.5467 28.6189 16.88C28.1709 17.2533 27.8189 17.71 27.5629 18.25C27.3069 18.79 27.1789 19.3733 27.1789 20C27.1789 20.6267 27.3069 21.21 27.5629 21.75C27.8189 22.29 28.1709 22.7467 28.6189 23.12C28.4141 23.7733 28.1453 24.4 27.8125 25C27.4797 25.6 27.0957 26.1533 26.6605 26.66C26.1229 26.4467 25.5629 26.36 24.9805 26.4C24.3981 26.44 23.8509 26.6167 23.3389 26.93C22.8269 27.2433 22.4077 27.65 22.0813 28.15C21.7549 28.65 21.5469 29.1933 21.4573 29.78C20.1517 30.0733 18.8461 30.08 17.5405 29.8C17.4509 29.2 17.2429 28.65 16.9165 28.15C16.5901 27.65 16.1709 27.2433 15.6589 26.93C15.1469 26.6167 14.5997 26.44 14.0173 26.4C13.4349 26.36 12.8749 26.4467 12.3373 26.66C11.4541 25.6333 10.8013 24.4533 10.3789 23.12C10.8269 22.7467 11.1789 22.29 11.4349 21.75C11.6909 21.21 11.8189 20.6267 11.8189 20C11.8189 19.3733 11.6909 18.79 11.4349 18.25C11.1789 17.71 10.8269 17.2533 10.3789 16.88C10.5837 16.2267 10.8525 15.6 11.1853 15C11.5181 14.4 11.9021 13.8467 12.3373 13.34C12.8749 13.5533 13.4349 13.64 14.0173 13.6C14.5997 13.56 15.1469 13.3833 15.6589 13.07C16.1709 12.7567 16.5901 12.35 16.9165 11.85C17.2429 11.35 17.4509 10.8067 17.5405 10.22ZM19.4989 23C20.0237 23 20.5069 22.8667 20.9485 22.6C21.3901 22.3333 21.7389 21.97 21.9949 21.51C22.2509 21.05 22.3789 20.5467 22.3789 20C22.3789 19.4533 22.2509 18.95 21.9949 18.49C21.7389 18.03 21.3901 17.6667 20.9485 17.4C20.5069 17.1333 20.0237 17 19.4989 17C18.9741 17 18.4909 17.1333 18.0493 17.4C17.6077 17.6667 17.2589 18.03 17.0029 18.49C16.7469 18.95 16.6189 19.4533 16.6189 20C16.6189 20.5467 16.7469 21.05 17.0029 21.51C17.2589 21.97 17.6077 22.3333 18.0493 22.6C18.4909 22.8667 18.9741 23 19.4989 23Z" fill="#FF741F"/>
</svg>
