<svg width="40" height="40" viewBox="0 0 40 40" fill="none" xmlns="http://www.w3.org/2000/svg">
<path d="M28.1394 17V29C28.1394 29.28 28.0466 29.5167 27.861 29.71C27.6754 29.9033 27.4482 30 27.1794 30H11.8194C11.5506 30 11.3234 29.9033 11.1378 29.71C10.9522 29.5167 10.8594 29.28 10.8594 29V11C10.8594 10.72 10.9522 10.4833 11.1378 10.29C11.3234 10.0967 11.5506 10 11.8194 10H21.4194V16C21.4194 16.28 21.5122 16.5167 21.6978 16.71C21.8834 16.9033 22.1106 17 22.3794 17H28.1394ZM28.1394 15H23.3394V10L28.1394 15ZM15.6594 15V17H18.5394V15H15.6594ZM15.6594 19V21H23.3394V19H15.6594ZM15.6594 23V25H23.3394V23H15.6594Z" fill="#FF741F"/>
</svg>
