<svg width="112" height="32" viewBox="0 0 112 32" fill="none" xmlns="http://www.w3.org/2000/svg">
<path d="M0 8C0 3.58172 3.58172 0 8 0H24C28.4183 0 32 3.58172 32 8V24C32 28.4183 28.4183 32 24 32H8C3.58172 32 0 28.4183 0 24V8Z" fill="#FF741F"/>
<path d="M13.4702 8.845V10.435C12.7687 10.735 12.1442 11.1625 11.5965 11.7175C11.0489 12.2725 10.6261 12.91 10.3282 13.63C10.0208 14.39 9.86703 15.18 9.86703 16C9.86703 17.09 10.1313 18.1 10.6597 19.03C11.169 19.93 11.856 20.645 12.7207 21.175C13.6143 21.725 14.5847 22 15.632 22C16.4199 22 17.179 21.84 17.9092 21.52C18.601 21.21 19.2135 20.77 19.7468 20.2C20.2801 19.63 20.6908 18.98 20.9791 18.25H22.5068C22.1993 19.26 21.7093 20.1625 21.0367 20.9575C20.3641 21.7525 19.5666 22.37 18.6442 22.81C17.693 23.27 16.6889 23.5 15.632 23.5C14.652 23.5 13.7152 23.305 12.8216 22.915C11.9665 22.535 11.205 21.9975 10.5372 21.3025C9.86943 20.6075 9.35299 19.815 8.98787 18.925C8.61314 17.995 8.42578 17.02 8.42578 16C8.42578 14.9 8.64677 13.855 9.08876 12.865C9.51152 11.905 10.1048 11.075 10.8687 10.375C11.6326 9.675 12.4997 9.165 13.4702 8.845ZM15.632 8.5C16.6121 8.5 17.5489 8.695 18.4425 9.085C19.2976 9.465 20.0591 10.0025 20.7268 10.6975C21.3946 11.3925 21.9111 12.185 22.2762 13.075C22.6509 14.005 22.8383 14.98 22.8383 16C22.8383 16.25 22.8287 16.5 22.8095 16.75H14.9114V8.53C15.1516 8.51 15.3918 8.5 15.632 8.5ZM16.3527 10.045V15.25H21.3538C21.2481 14.36 20.9647 13.5375 20.5035 12.7825C20.0423 12.0275 19.4489 11.41 18.7235 10.93C17.9981 10.45 17.2078 10.155 16.3527 10.045Z" fill="white"/>
<path d="M40 8C40 3.58172 43.5817 0 48 0H64C68.4183 0 72 3.58172 72 8V24C72 28.4183 68.4183 32 64 32H48C43.5817 32 40 28.4183 40 24V8Z" fill="#F3F4F6"/>
<path d="M50.328 9.25V21.25H61.858V22.75H48.8867V9.25H50.328ZM61.3535 11.725L62.3768 12.775L58.2548 17.065L56.093 14.815L53.0087 18.025L51.9854 16.975L56.093 12.685L58.2548 14.935L61.3535 11.725Z" fill="#6B7280"/>
<path d="M80 8C80 3.58172 83.5817 0 88 0H104C108.418 0 112 3.58172 112 8V24C112 28.4183 108.418 32 104 32H88C83.5817 32 80 28.4183 80 24V8Z" fill="#F3F4F6"/>
<path d="M89.1484 16.375H90.5897V23.125H89.1484V16.375ZM100.678 13.375H102.12V23.125H100.678V13.375ZM94.9134 8.875H96.3547V23.125H94.9134V8.875Z" fill="#6B7280"/>
</svg>
