<svg width="40" height="40" viewBox="0 0 40 40" fill="none" xmlns="http://www.w3.org/2000/svg">
<path d="M0 20C0 8.95431 8.95431 0 20 0C31.0457 0 40 8.95431 40 20C40 31.0457 31.0457 40 20 40C8.95431 40 0 31.0457 0 20Z" fill="#F3F4F6"/>
<path d="M19.632 27.5C18.652 27.5 17.7152 27.305 16.8216 26.915C15.9665 26.535 15.205 25.9975 14.5372 25.3025C13.8694 24.6075 13.353 23.815 12.9879 22.925C12.6131 21.995 12.4258 21.02 12.4258 20C12.4258 18.98 12.6131 18.005 12.9879 17.075C13.353 16.185 13.8694 15.3925 14.5372 14.6975C15.205 14.0025 15.9665 13.465 16.8216 13.085C17.7152 12.695 18.652 12.5 19.632 12.5C20.6121 12.5 21.5489 12.695 22.4425 13.085C23.2976 13.465 24.0591 14.0025 24.7268 14.6975C25.3946 15.3925 25.9111 16.185 26.2762 17.075C26.6509 18.005 26.8383 18.98 26.8383 20C26.8383 21.02 26.6509 21.995 26.2762 22.925C25.9111 23.815 25.3946 24.6075 24.7268 25.3025C24.0591 25.9975 23.2976 26.535 22.4425 26.915C21.5489 27.305 20.6121 27.5 19.632 27.5ZM17.989 25.745C17.2684 24.165 16.86 22.5 16.7639 20.75H13.9103C14.0064 21.53 14.2394 22.26 14.6093 22.94C14.9792 23.62 15.4548 24.2025 16.0361 24.6875C16.6174 25.1725 17.2684 25.525 17.989 25.745ZM18.2196 20.75C18.3253 22.55 18.7961 24.24 19.632 25.82C20.468 24.24 20.9388 22.55 21.0445 20.75H18.2196ZM25.3538 20.75H22.5001C22.404 22.5 22.0005 24.165 21.2895 25.745C22.0005 25.525 22.6466 25.1725 23.228 24.6875C23.8093 24.2025 24.2849 23.62 24.6548 22.94C25.0247 22.26 25.2577 21.53 25.3538 20.75ZM13.9103 19.25H16.7639C16.86 17.5 17.2684 15.835 17.989 14.255C17.2684 14.475 16.6174 14.8275 16.0361 15.3125C15.4548 15.7975 14.9792 16.38 14.6093 17.06C14.2394 17.74 14.0064 18.47 13.9103 19.25ZM18.2196 19.25H21.0445C20.9388 17.45 20.468 15.76 19.632 14.18C18.7961 15.76 18.3253 17.45 18.2196 19.25ZM21.2895 14.255C22.0005 15.835 22.404 17.5 22.5001 19.25H25.3538C25.2577 18.47 25.0247 17.74 24.6548 17.06C24.2849 16.38 23.8093 15.7975 23.228 15.3125C22.6466 14.8275 22.0005 14.475 21.2895 14.255Z" fill="#374151"/>
</svg>
