<svg width="40" height="40" viewBox="0 0 40 40" fill="none" xmlns="http://www.w3.org/2000/svg">
<path d="M16.6184 10.46V12.58C15.684 12.98 14.852 13.55 14.1224 14.29C13.3928 15.03 12.8296 15.88 12.4328 16.84C12.0232 17.8533 11.8184 18.9067 11.8184 20C11.8184 21.4533 12.1704 22.8 12.8744 24.04C13.5528 25.24 14.468 26.1933 15.62 26.9C16.8104 27.6333 18.1032 28 19.4984 28C20.548 28 21.5592 27.7867 22.532 27.36C23.4536 26.9467 24.2696 26.36 24.98 25.6C25.6904 24.84 26.2376 23.9733 26.6216 23H28.6568C28.2472 24.3467 27.5944 25.55 26.6984 26.61C25.8024 27.67 24.74 28.4933 23.5112 29.08C22.244 29.6933 20.9064 30 19.4984 30C18.1928 30 16.9448 29.74 15.7544 29.22C14.6152 28.7133 13.6008 27.9967 12.7112 27.07C11.8216 26.1433 11.1336 25.0867 10.6472 23.9C10.148 22.66 9.89844 21.36 9.89844 20C9.89844 18.5333 10.1928 17.14 10.7816 15.82C11.3448 14.54 12.1352 13.4333 13.1528 12.5C14.1704 11.5667 15.3256 10.8867 16.6184 10.46ZM19.4984 10C20.804 10 22.052 10.26 23.2424 10.78C24.3816 11.2867 25.396 12.0033 26.2856 12.93C27.1752 13.8567 27.8632 14.9133 28.3496 16.1C28.8488 17.34 29.0984 18.64 29.0984 20C29.0984 20.3333 29.0856 20.6667 29.06 21H18.5384V10.04C18.8584 10.0133 19.1784 10 19.4984 10ZM20.4584 12.06V19H27.1208C26.98 17.8133 26.6024 16.7167 25.988 15.71C25.3736 14.7033 24.5832 13.88 23.6168 13.24C22.6504 12.6 21.5976 12.2067 20.4584 12.06Z" fill="#9CA3AF"/>
</svg>
