<svg width="40" height="40" viewBox="0 0 40 40" fill="none" xmlns="http://www.w3.org/2000/svg">
<path d="M28.1394 16V29C28.1394 29.28 28.0466 29.5167 27.861 29.71C27.6754 29.9033 27.4482 30 27.1794 30H11.8194C11.5506 30 11.3234 29.9033 11.1378 29.71C10.9522 29.5167 10.8594 29.28 10.8594 29V11C10.8594 10.72 10.9522 10.4833 11.1378 10.29C11.3234 10.0967 11.5506 10 11.8194 10H22.3794L28.1394 16ZM26.2194 17H21.4194V12H12.7794V28H26.2194V17ZM15.6594 15H18.5394V17H15.6594V15ZM15.6594 19H23.3394V21H15.6594V19ZM15.6594 23H23.3394V25H15.6594V23Z" fill="#9CA3AF"/>
</svg>
