<svg width="20" height="28" viewBox="0 0 20 28" fill="none" xmlns="http://www.w3.org/2000/svg">
<path d="M8.0988 13.01C8.43509 13.63 8.84585 14.1925 9.33107 14.6975C9.81629 15.2025 10.3568 15.63 10.9525 15.98L11.5866 15.05C11.6923 14.89 11.834 14.79 12.0118 14.75C12.1895 14.71 12.3601 14.735 12.5234 14.825C13.5515 15.415 14.6517 15.755 15.8239 15.845C16.0065 15.865 16.1626 15.945 16.2923 16.085C16.422 16.225 16.4869 16.395 16.4869 16.595V19.94C16.4869 20.13 16.4244 20.2975 16.2995 20.4425C16.1746 20.5875 16.0209 20.67 15.8383 20.69C15.454 20.73 15.0696 20.75 14.6853 20.75C13.1672 20.75 11.7163 20.445 10.3327 19.835C8.99718 19.245 7.81535 18.415 6.78726 17.345C5.75917 16.275 4.96168 15.045 4.39479 13.655C3.80868 12.215 3.51562 10.705 3.51562 9.125C3.51562 8.725 3.53484 8.325 3.57327 7.925C3.59249 7.735 3.67176 7.575 3.81108 7.445C3.9504 7.315 4.11134 7.25 4.2939 7.25H7.50789C7.70005 7.25 7.8634 7.3175 7.99791 7.4525C8.13243 7.5875 8.2093 7.75 8.22851 7.94C8.31499 9.16 8.64167 10.305 9.20856 11.375C9.29504 11.545 9.31906 11.7225 9.28062 11.9075C9.24219 12.0925 9.14611 12.24 8.99237 12.35L8.0988 13.01ZM6.28282 12.515L7.65201 11.495C7.26768 10.625 7.00345 9.71 6.85932 8.75H4.95687V9.125C4.95687 10.495 5.2115 11.81 5.72074 13.07C6.21076 14.28 6.90496 15.3525 7.80334 16.2875C8.70172 17.2225 9.73222 17.945 10.8948 18.455C12.1055 18.985 13.369 19.25 14.6853 19.25H15.0456V17.27C14.1232 17.12 13.2441 16.845 12.4081 16.445L11.4281 17.87C11.0341 17.71 10.6498 17.52 10.2751 17.3L10.2319 17.285C9.53044 16.865 8.89149 16.355 8.31499 15.755C7.73849 15.155 7.24846 14.49 6.84491 13.76L6.8305 13.715C6.61912 13.325 6.43656 12.925 6.28282 12.515Z" fill="#FF741F"/>
</svg>
