<svg width="32" height="32" viewBox="0 0 32 32" fill="none" xmlns="http://www.w3.org/2000/svg">
<path d="M0 16C0 7.16344 7.16344 0 16 0C24.8366 0 32 7.16344 32 16C32 24.8366 24.8366 32 16 32C7.16344 32 0 24.8366 0 16Z" fill="#FF741F"/>
<path d="M14.0377 10.1673V11.334H17.4014V10.1673H18.5227V11.334H20.7652C20.9221 11.334 21.0548 11.3904 21.1632 11.5032C21.2716 11.6159 21.3258 11.754 21.3258 11.9173V21.2507C21.3258 21.414 21.2716 21.552 21.1632 21.6648C21.0548 21.7776 20.9221 21.834 20.7652 21.834H10.6739C10.5169 21.834 10.3842 21.7776 10.2759 21.6648C10.1675 21.552 10.1133 21.414 10.1133 21.2507V11.9173C10.1133 11.754 10.1675 11.6159 10.2759 11.5032C10.3842 11.3904 10.5169 11.334 10.6739 11.334H12.9164V10.1673H14.0377ZM20.2045 16.0007H11.2345V20.6673H20.2045V16.0007ZM12.9164 12.5007H11.2345V14.834H20.2045V12.5007H18.5227V13.6673H17.4014V12.5007H14.0377V13.6673H12.9164V12.5007Z" fill="#FF741F"/>
</svg>
