<svg width="40" height="40" viewBox="0 0 40 40" fill="none" xmlns="http://www.w3.org/2000/svg">
<path d="M0 20C0 8.95431 8.95431 0 20 0C31.0457 0 40 8.95431 40 20C40 31.0457 31.0457 40 20 40C8.95431 40 0 31.0457 0 20Z" fill="#F7F7F8"/>
<path d="M19.6321 11.75L25.5556 13.115C25.719 13.155 25.8535 13.245 25.9592 13.385C26.0649 13.525 26.1177 13.68 26.1177 13.85V21.335C26.1177 22.095 25.9472 22.805 25.6061 23.465C25.265 24.125 24.7918 24.665 24.1865 25.085L19.6321 28.25L15.0778 25.085C14.4724 24.665 13.9992 24.125 13.6581 23.465C13.317 22.805 13.1465 22.095 13.1465 21.335V13.85C13.1465 13.68 13.1993 13.525 13.305 13.385C13.4107 13.245 13.5452 13.155 13.7086 13.115L19.6321 11.75ZM19.6321 13.28L14.5877 14.45V21.335C14.5877 21.845 14.7006 22.32 14.9264 22.76C15.1522 23.2 15.4669 23.56 15.8704 23.84L19.6321 26.45L23.3938 23.84C23.7973 23.56 24.112 23.2 24.3378 22.76C24.5636 22.32 24.6765 21.845 24.6765 21.335V14.45L19.6321 13.28ZM22.8461 17.165L23.855 18.23L19.2718 23L16.2163 19.82L17.2396 18.755L19.2718 20.885L22.8461 17.165Z" fill="#474747"/>
</svg>
