<svg width="48" height="48" viewBox="0 0 48 48" fill="none" xmlns="http://www.w3.org/2000/svg">
<path d="M0 24C0 10.7452 10.7452 0 24 0C37.2548 0 48 10.7452 48 24C48 37.2548 37.2548 48 24 48C10.7452 48 0 37.2548 0 24Z" fill="#10B981" fill-opacity="0.082"/>
<path d="M24.7992 28.1167V29.8333H28.7992V31.5H19.1992V29.8333H23.1992V28.1167C22.1539 27.9833 21.2046 27.6056 20.3512 26.9833C19.4979 26.3611 18.8312 25.5778 18.3512 24.6333C17.8499 23.6556 17.5992 22.6111 17.5992 21.5V16.5H30.3992V21.5C30.3992 22.6111 30.1486 23.6556 29.6472 24.6333C29.1672 25.5778 28.5006 26.3611 27.6472 26.9833C26.7939 27.6056 25.8446 27.9833 24.7992 28.1167ZM19.1992 18.1667V21.5C19.1992 22.4 19.4179 23.2389 19.8552 24.0167C20.2819 24.7722 20.8579 25.3722 21.5832 25.8167C22.3299 26.2722 23.1352 26.5 23.9992 26.5C24.8632 26.5 25.6686 26.2722 26.4152 25.8167C27.1406 25.3722 27.7166 24.7722 28.1432 24.0167C28.5806 23.2389 28.7992 22.4 28.7992 21.5V18.1667H19.1992ZM15.1992 18.1667H16.7992V21.5H15.1992V18.1667ZM31.1992 18.1667H32.7992V21.5H31.1992V18.1667Z" fill="#10B981"/>
</svg>
