<svg width="40" height="40" viewBox="0 0 40 40" fill="none" xmlns="http://www.w3.org/2000/svg">
<path d="M20.4594 27.3601H26.2194V18.3401L19.4994 12.9001L12.7794 18.3401V27.3601H18.5394V21.3601H20.4594V27.3601ZM28.1394 28.3601C28.1394 28.6401 28.0466 28.8768 27.861 29.0701C27.6754 29.2634 27.4482 29.3601 27.1794 29.3601H11.8194C11.5506 29.3601 11.3234 29.2634 11.1378 29.0701C10.9522 28.8768 10.8594 28.6401 10.8594 28.3601V17.8601C10.8594 17.5268 10.981 17.2601 11.2242 17.0601L18.9042 10.8401C19.0834 10.7068 19.2818 10.6401 19.4994 10.6401C19.717 10.6401 19.9154 10.7068 20.0946 10.8401L27.7746 17.0601C28.0178 17.2601 28.1394 17.5268 28.1394 17.8601V28.3601Z" fill="#9CA3AF"/>
</svg>
