<svg width="16" height="20" viewBox="0 0 16 20" fill="none" xmlns="http://www.w3.org/2000/svg">
<g clip-path="url(#clip0_12317_5290)">
<path d="M7.99875 3.58317L12.6071 4.64484C12.7342 4.67595 12.8388 4.74595 12.921 4.85484C13.0033 4.96373 13.0444 5.08428 13.0444 5.2165V11.0382C13.0444 11.6293 12.9117 12.1815 12.6463 12.6948C12.381 13.2082 12.0128 13.6282 11.5419 13.9548L7.99875 16.4165L4.4556 13.9548C3.98468 13.6282 3.61653 13.2082 3.35117 12.6948C3.08581 12.1815 2.95312 11.6293 2.95312 11.0382V5.2165C2.95312 5.08428 2.99424 4.96373 3.07646 4.85484C3.15869 4.74595 3.26334 4.67595 3.39041 4.64484L7.99875 3.58317ZM7.99875 4.77317L4.07438 5.68317V11.0382C4.07438 11.4348 4.16221 11.8043 4.33787 12.1465C4.51353 12.4887 4.75834 12.7687 5.07229 12.9865L7.99875 15.0165L10.9252 12.9865C11.2392 12.7687 11.484 12.4887 11.6596 12.1465C11.8353 11.8043 11.9231 11.4348 11.9231 11.0382V5.68317L7.99875 4.77317ZM10.4991 7.79484L11.284 8.62317L7.71844 12.3332L5.34139 9.85984L6.13748 9.0315L7.71844 10.6882L10.4991 7.79484Z" fill="#4B5563"/>
</g>
<defs>
<clipPath id="clip0_12317_5290">
<rect width="14.0156" height="14" fill="white" transform="translate(0.992188 3)"/>
</clipPath>
</defs>
</svg>
