<svg width="20" height="28" viewBox="0 0 20 28" fill="none" xmlns="http://www.w3.org/2000/svg">
<path d="M14.2385 17.3451L17.3228 20.5551L16.2995 21.6201L13.2152 18.4101C12.6483 18.8801 12.0286 19.2401 11.356 19.4901C10.645 19.7501 9.91476 19.8801 9.16531 19.8801C7.9931 19.8801 6.90255 19.5751 5.89368 18.9651C4.91363 18.3651 4.14015 17.5551 3.57326 16.5351C2.97755 15.4851 2.67969 14.3501 2.67969 13.1301C2.67969 11.9101 2.97755 10.7751 3.57326 9.72512C4.14015 8.70512 4.91363 7.90012 5.89368 7.31012C6.90255 6.69012 7.9931 6.38012 9.16531 6.38012C10.3375 6.38012 11.4281 6.69012 12.4369 7.31012C13.417 7.90012 14.1953 8.70512 14.7718 9.72512C15.3579 10.7751 15.6509 11.9101 15.6509 13.1301C15.6509 13.9101 15.526 14.6701 15.2762 15.4101C15.036 16.1101 14.6901 16.7551 14.2385 17.3451ZM12.7829 16.7901C13.2344 16.3101 13.5851 15.7601 13.835 15.1401C14.0848 14.5001 14.2097 13.8301 14.2097 13.1301C14.2097 12.1801 13.9791 11.2951 13.5179 10.4751C13.0759 9.68512 12.4754 9.06012 11.7163 8.60012C10.9284 8.12012 10.0781 7.88012 9.16531 7.88012C8.25252 7.88012 7.40218 8.12012 6.6143 8.60012C5.85524 9.06012 5.25472 9.68512 4.81274 10.4751C4.35154 11.2951 4.12094 12.1801 4.12094 13.1301C4.12094 14.0801 4.35154 14.9651 4.81274 15.7851C5.25472 16.5751 5.85524 17.2001 6.6143 17.6601C7.40218 18.1401 8.25252 18.3801 9.16531 18.3801C9.8379 18.3801 10.4817 18.2501 11.0966 17.9901C11.6923 17.7301 12.2208 17.3651 12.682 16.8951L12.7829 16.7901Z" fill="#9CA3AF"/>
</svg>
