<svg width="16" height="20" viewBox="0 0 16 20" fill="none" xmlns="http://www.w3.org/2000/svg">
<path d="M6.31688 4.16683H12.4838C12.6407 4.16683 12.7734 4.22322 12.8818 4.336C12.9902 4.44877 13.0444 4.58683 13.0444 4.75016V15.2502C13.0444 15.4135 12.9902 15.5516 12.8818 15.6643C12.7734 15.7771 12.6407 15.8335 12.4838 15.8335H3.51375C3.35678 15.8335 3.22409 15.7771 3.11571 15.6643C3.00732 15.5516 2.95312 15.4135 2.95312 15.2502V7.66683L6.31688 4.16683ZM4.53409 7.66683H6.31688V5.8235L4.53409 7.66683ZM7.43813 5.3335V8.25016C7.43813 8.4135 7.38393 8.55155 7.27554 8.66433C7.16716 8.77711 7.03448 8.8335 6.8775 8.8335H4.07438V14.6668H11.9231V5.3335H7.43813Z" fill="#4B5563"/>
</svg>
