<svg width="48" height="48" viewBox="0 0 48 48" fill="none" xmlns="http://www.w3.org/2000/svg">
<path d="M0 24C0 10.7452 10.7452 0 24 0C37.2548 0 48 10.7452 48 24C48 37.2548 37.2548 48 24 48C10.7452 48 0 37.2548 0 24Z" fill="#3B82F6" fill-opacity="0.082"/>
<path d="M20.0008 21.0833V19.4167C20.0008 18.6611 20.1794 17.9639 20.5368 17.325C20.8941 16.6861 21.3794 16.1806 21.9928 15.8083C22.6061 15.4361 23.2754 15.25 24.0008 15.25C24.7261 15.25 25.3954 15.4361 26.0088 15.8083C26.6221 16.1806 27.1074 16.6861 27.4648 17.325C27.8221 17.9639 28.0008 18.6611 28.0008 19.4167V21.0833H30.4008C30.6248 21.0833 30.8141 21.1639 30.9688 21.325C31.1234 21.4861 31.2008 21.6833 31.2008 21.9167V31.9167C31.2008 32.15 31.1234 32.3472 30.9688 32.5083C30.8141 32.6694 30.6248 32.75 30.4008 32.75H17.6008C17.3768 32.75 17.1874 32.6694 17.0328 32.5083C16.8781 32.3472 16.8008 32.15 16.8008 31.9167V21.9167C16.8008 21.6833 16.8781 21.4861 17.0328 21.325C17.1874 21.1639 17.3768 21.0833 17.6008 21.0833H20.0008ZM20.0008 22.75H18.4008V31.0833H29.6008V22.75H28.0008V24.4167H26.4008V22.75H21.6008V24.4167H20.0008V22.75ZM21.6008 21.0833H26.4008V19.4167C26.4008 18.9611 26.2941 18.5417 26.0808 18.1583C25.8674 17.775 25.5768 17.4722 25.2088 17.25C24.8408 17.0278 24.4381 16.9167 24.0008 16.9167C23.5634 16.9167 23.1608 17.0278 22.7928 17.25C22.4248 17.4722 22.1341 17.775 21.9208 18.1583C21.7074 18.5417 21.6008 18.9611 21.6008 19.4167V21.0833Z" fill="#3B82F6"/>
</svg>
