<svg width="32" height="32" viewBox="0 0 32 32" fill="none" xmlns="http://www.w3.org/2000/svg">
<path d="M0 16C0 7.16344 7.16344 0 16 0C24.8366 0 32 7.16344 32 16C32 24.8366 24.8366 32 16 32C7.16344 32 0 24.8366 0 16Z" fill="#F3E8FF"/>
<path d="M14.0377 10.1666V11.3333H17.4014V10.1666H18.5227V11.3333H20.7652C20.9221 11.3333 21.0548 11.3896 21.1632 11.5024C21.2716 11.6152 21.3258 11.7533 21.3258 11.9166V21.2499C21.3258 21.4133 21.2716 21.5513 21.1632 21.6641C21.0548 21.7769 20.9221 21.8333 20.7652 21.8333H10.6739C10.5169 21.8333 10.3842 21.7769 10.2759 21.6641C10.1675 21.5513 10.1133 21.4133 10.1133 21.2499V11.9166C10.1133 11.7533 10.1675 11.6152 10.2759 11.5024C10.3842 11.3896 10.5169 11.3333 10.6739 11.3333H12.9164V10.1666H14.0377ZM20.2045 15.9999H11.2345V20.6666H20.2045V15.9999ZM12.9164 12.4999H11.2345V14.8333H20.2045V12.4999H18.5227V13.6666H17.4014V12.4999H14.0377V13.6666H12.9164V12.4999Z" fill="#9333EA"/>
</svg>
