<svg width="40" height="40" viewBox="0 0 40 40" fill="none" xmlns="http://www.w3.org/2000/svg">
<path d="M0 20C0 8.95431 8.95431 0 20 0C31.0457 0 40 8.95431 40 20C40 31.0457 31.0457 40 20 40C8.95431 40 0 31.0457 0 20Z" fill="#F3F4F6"/>
<path d="M19.632 27.5C18.652 27.5 17.7152 27.305 16.8216 26.915C15.9665 26.535 15.205 25.9975 14.5372 25.3025C13.8694 24.6075 13.353 23.815 12.9879 22.925C12.6131 21.995 12.4258 21.02 12.4258 20C12.4258 18.98 12.6131 18.005 12.9879 17.075C13.353 16.185 13.8694 15.3925 14.5372 14.6975C15.205 14.0025 15.9665 13.465 16.8216 13.085C17.7152 12.695 18.652 12.5 19.632 12.5C20.6121 12.5 21.5489 12.695 22.4425 13.085C23.2976 13.465 24.0591 14.0025 24.7268 14.6975C25.3946 15.3925 25.9111 16.185 26.2762 17.075C26.6509 18.005 26.8383 18.98 26.8383 20C26.8383 21.02 26.6509 21.995 26.2762 22.925C25.9111 23.815 25.3946 24.6075 24.7268 25.3025C24.0591 25.9975 23.2976 26.535 22.4425 26.915C21.5489 27.305 20.6121 27.5 19.632 27.5ZM19.632 26C20.6793 26 21.6498 25.725 22.5434 25.175C23.4081 24.645 24.0951 23.93 24.6043 23.03C25.1328 22.1 25.397 21.09 25.397 20C25.397 18.91 25.1328 17.9 24.6043 16.97C24.0951 16.07 23.4081 15.355 22.5434 14.825C21.6498 14.275 20.6793 14 19.632 14C18.5847 14 17.6143 14.275 16.7207 14.825C15.856 15.355 15.169 16.07 14.6597 16.97C14.1313 17.9 13.867 18.91 13.867 20C13.867 21.09 14.1313 22.1 14.6597 23.03C15.169 23.93 15.856 24.645 16.7207 25.175C17.6143 25.725 18.5847 26 19.632 26ZM17.1098 21.5H21.0733C21.1694 21.5 21.2534 21.4625 21.3255 21.3875C21.3976 21.3125 21.4336 21.225 21.4336 21.125C21.4336 21.025 21.3976 20.9375 21.3255 20.8625C21.2534 20.7875 21.1694 20.75 21.0733 20.75H18.1908C17.8641 20.75 17.5638 20.665 17.29 20.495C17.0162 20.325 16.7976 20.0975 16.6342 19.8125C16.4709 19.5275 16.3892 19.215 16.3892 18.875C16.3892 18.535 16.4709 18.2225 16.6342 17.9375C16.7976 17.6525 17.0162 17.425 17.29 17.255C17.5638 17.085 17.8641 17 18.1908 17H18.9114V15.5H20.3527V17H22.1542V18.5H18.1908C18.0947 18.5 18.0106 18.5375 17.9386 18.6125C17.8665 18.6875 17.8305 18.775 17.8305 18.875C17.8305 18.975 17.8665 19.0625 17.9386 19.1375C18.0106 19.2125 18.0947 19.25 18.1908 19.25H21.0733C21.4 19.25 21.7002 19.335 21.9741 19.505C22.2479 19.675 22.4665 19.9025 22.6298 20.1875C22.7932 20.4725 22.8748 20.785 22.8748 21.125C22.8748 21.465 22.7932 21.7775 22.6298 22.0625C22.4665 22.3475 22.2479 22.575 21.9741 22.745C21.7002 22.915 21.4 23 21.0733 23H20.3527V24.5H18.9114V23H17.1098V21.5Z" fill="#374151"/>
</svg>
