<svg width="16" height="20" viewBox="0 0 16 20" fill="none" xmlns="http://www.w3.org/2000/svg">
<path d="M6.31891 4.16634V5.33301H9.68266V4.16634H10.8039V5.33301H13.0464C13.2034 5.33301 13.3361 5.3894 13.4444 5.50217C13.5528 5.61495 13.607 5.75301 13.607 5.91634V15.2497C13.607 15.413 13.5528 15.5511 13.4444 15.6638C13.3361 15.7766 13.2034 15.833 13.0464 15.833H2.95516C2.79818 15.833 2.6655 15.7766 2.55711 15.6638C2.44872 15.5511 2.39453 15.413 2.39453 15.2497V5.91634C2.39453 5.75301 2.44872 5.61495 2.55711 5.50217C2.6655 5.3894 2.79818 5.33301 2.95516 5.33301H5.19766V4.16634H6.31891ZM12.4858 9.99967H3.51578V14.6663H12.4858V9.99967ZM5.19766 6.49967H3.51578V8.83301H12.4858V6.49967H10.8039V7.66634H9.68266V6.49967H6.31891V7.66634H5.19766V6.49967Z" fill="#4B5563"/>
</svg>
