<svg width="16" height="16" viewBox="0 0 16 16" fill="none" xmlns="http://www.w3.org/2000/svg">
<path d="M7.99922 13C7.34642 13 6.72242 12.87 6.12722 12.61C5.55762 12.3567 5.05042 11.9983 4.60562 11.535C4.16082 11.0717 3.81682 10.5433 3.57362 9.95C3.32402 9.33 3.19922 8.68 3.19922 8C3.19922 7.32 3.32402 6.67 3.57362 6.05C3.81682 5.45667 4.16082 4.92833 4.60562 4.465C5.05042 4.00167 5.55762 3.64333 6.12722 3.39C6.72242 3.13 7.34642 3 7.99922 3C8.65202 3 9.27602 3.13 9.87122 3.39C10.4408 3.64333 10.948 4.00167 11.3928 4.465C11.8376 4.92833 12.1816 5.45667 12.4248 6.05C12.6744 6.67 12.7992 7.32 12.7992 8C12.7992 8.68 12.6744 9.33 12.4248 9.95C12.1816 10.5433 11.8376 11.0717 11.3928 11.535C10.948 11.9983 10.4408 12.3567 9.87122 12.61C9.27602 12.87 8.65202 13 7.99922 13ZM7.99922 12C8.69682 12 9.34322 11.8167 9.93842 11.45C10.5144 11.0967 10.972 10.62 11.3112 10.02C11.6632 9.4 11.8392 8.72667 11.8392 8C11.8392 7.27333 11.6632 6.6 11.3112 5.98C10.972 5.38 10.5144 4.90333 9.93842 4.55C9.34322 4.18333 8.69682 4 7.99922 4C7.30162 4 6.65522 4.18333 6.06002 4.55C5.48402 4.90333 5.02642 5.38 4.68722 5.98C4.33522 6.6 4.15922 7.27333 4.15922 8C4.15922 8.72667 4.33522 9.4 4.68722 10.02C5.02642 10.62 5.48402 11.0967 6.06002 11.45C6.65522 11.8167 7.30162 12 7.99922 12ZM8.47922 8H10.3992V9H7.51922V5.5H8.47922V8Z" fill="#9CA3AF"/>
</svg>
