<svg width="20" height="28" viewBox="0 0 20 28" fill="none" xmlns="http://www.w3.org/2000/svg">
<path d="M9.00523 15.4846V16.9846C8.22696 16.9846 7.50153 17.1896 6.82895 17.5996C6.17558 17.9996 5.65673 18.5346 5.2724 19.2046C4.87846 19.9046 4.68148 20.6646 4.68148 21.4846H3.24023C3.24023 20.3946 3.50446 19.3846 4.03292 18.4546C4.54216 17.5446 5.22916 16.8246 6.09391 16.2946C6.98748 15.7546 7.95793 15.4846 9.00523 15.4846ZM9.00523 14.7346C8.22696 14.7346 7.50153 14.5296 6.82895 14.1196C6.17558 13.7196 5.65673 13.1796 5.2724 12.4996C4.87846 11.7996 4.68148 11.0421 4.68148 10.2271C4.68148 9.41215 4.87846 8.65465 5.2724 7.95465C5.65673 7.28465 6.17558 6.74965 6.82895 6.34965C7.50153 5.93965 8.22936 5.73465 9.01244 5.73465C9.79552 5.73465 10.5234 5.93965 11.1959 6.34965C11.8397 6.74965 12.3537 7.28465 12.7381 7.95465C13.132 8.65465 13.329 9.41215 13.329 10.2271C13.329 11.0421 13.132 11.7996 12.7381 12.4996C12.3537 13.1796 11.8397 13.7196 11.1959 14.1196C10.5234 14.5296 9.79312 14.7346 9.00523 14.7346ZM9.00523 13.2346C9.52408 13.2346 10.0045 13.0996 10.4465 12.8296C10.8885 12.5596 11.2392 12.1946 11.4986 11.7346C11.758 11.2746 11.8877 10.7746 11.8877 10.2346C11.8877 9.69465 11.758 9.19465 11.4986 8.73465C11.2392 8.27465 10.8885 7.90965 10.4465 7.63965C10.0045 7.36965 9.52408 7.23465 9.00523 7.23465C8.48638 7.23465 8.00597 7.36965 7.56398 7.63965C7.122 7.90965 6.7713 8.27465 6.51187 8.73465C6.25245 9.19465 6.12273 9.69465 6.12273 10.2346C6.12273 10.7746 6.25245 11.2746 6.51187 11.7346C6.7713 12.1946 7.122 12.5596 7.56398 12.8296C8.00597 13.0996 8.48638 13.2346 9.00523 13.2346ZM13.329 21.1096L11.2103 22.2646L11.6139 19.8046L9.89881 18.0796L12.2769 17.7196L13.329 15.4846L14.3955 17.7196L16.7592 18.0796L15.0441 19.8046L15.4476 22.2646L13.329 21.1096Z" fill="#FF741F"/>
</svg>
