<svg width="40" height="40" viewBox="0 0 40 40" fill="none" xmlns="http://www.w3.org/2000/svg">
<path d="M16.6204 10.46V12.58C15.686 12.98 14.854 13.55 14.1244 14.29C13.3948 15.03 12.8316 15.88 12.4348 16.84C12.0252 17.8533 11.8204 18.9067 11.8204 20C11.8204 21.4533 12.1724 22.8 12.8764 24.04C13.5548 25.24 14.47 26.1933 15.622 26.9C16.8124 27.6333 18.1052 28 19.5004 28C20.55 28 21.5612 27.7867 22.534 27.36C23.4556 26.9467 24.2716 26.36 24.982 25.6C25.6924 24.84 26.2396 23.9733 26.6236 23H28.6588C28.2492 24.3467 27.5964 25.55 26.7004 26.61C25.8044 27.67 24.742 28.4933 23.5132 29.08C22.246 29.6933 20.9084 30 19.5004 30C18.1948 30 16.9468 29.74 15.7564 29.22C14.6172 28.7133 13.6028 27.9967 12.7132 27.07C11.8236 26.1433 11.1356 25.0867 10.6492 23.9C10.15 22.66 9.90039 21.36 9.90039 20C9.90039 18.5333 10.1948 17.14 10.7836 15.82C11.3468 14.54 12.1372 13.4333 13.1548 12.5C14.1724 11.5667 15.3276 10.8867 16.6204 10.46ZM19.5004 10C20.806 10 22.054 10.26 23.2444 10.78C24.3836 11.2867 25.398 12.0033 26.2876 12.93C27.1772 13.8567 27.8652 14.9133 28.3516 16.1C28.8508 17.34 29.1004 18.64 29.1004 20C29.1004 20.3333 29.0876 20.6667 29.062 21H18.5404V10.04C18.8604 10.0133 19.1804 10 19.5004 10ZM20.4604 12.06V19H27.1228C26.982 17.8133 26.6044 16.7167 25.99 15.71C25.3756 14.7033 24.5852 13.88 23.6188 13.24C22.6524 12.6 21.5996 12.2067 20.4604 12.06Z" fill="#9CA3AF"/>
</svg>
