<svg width="40" height="40" viewBox="0 0 40 40" fill="none" xmlns="http://www.w3.org/2000/svg">
<path d="M11.1869 24.9998C10.7773 24.2664 10.4637 23.4931 10.2461 22.6798C10.7197 22.4264 11.1005 22.0598 11.3885 21.5798C11.6765 21.0998 11.8205 20.5731 11.8205 19.9998C11.8205 19.4264 11.6765 18.8998 11.3885 18.4198C11.1005 17.9398 10.7197 17.5731 10.2461 17.3198C10.6941 15.6531 11.4941 14.2064 12.6461 12.9798C13.0941 13.2864 13.5901 13.4498 14.1341 13.4698C14.6781 13.4898 15.1869 13.3564 15.6605 13.0698C16.1341 12.7831 16.4989 12.3898 16.7549 11.8898C17.0109 11.3898 17.1261 10.8664 17.1005 10.3198C18.7005 9.87977 20.3005 9.87977 21.9005 10.3198C21.8749 10.8664 21.9901 11.3898 22.2461 11.8898C22.5021 12.3898 22.8669 12.7831 23.3405 13.0698C23.8141 13.3564 24.3229 13.4898 24.8669 13.4698C25.4109 13.4498 25.9069 13.2864 26.3549 12.9798C26.9181 13.5931 27.4045 14.2664 27.8141 14.9998C28.2237 15.7331 28.5373 16.5064 28.7549 17.3198C28.2813 17.5731 27.9005 17.9398 27.6125 18.4198C27.3245 18.8998 27.1805 19.4264 27.1805 19.9998C27.1805 20.5731 27.3245 21.0998 27.6125 21.5798C27.9005 22.0598 28.2813 22.4264 28.7549 22.6798C28.3069 24.3464 27.5069 25.7931 26.3549 27.0198C25.9069 26.7131 25.4109 26.5498 24.8669 26.5298C24.3229 26.5098 23.8141 26.6431 23.3405 26.9298C22.8669 27.2164 22.5021 27.6098 22.2461 28.1098C21.9901 28.6098 21.8749 29.1331 21.9005 29.6798C20.3005 30.1198 18.7005 30.1198 17.1005 29.6798C17.1261 29.1331 17.0109 28.6098 16.7549 28.1098C16.4989 27.6098 16.1341 27.2164 15.6605 26.9298C15.1869 26.6431 14.6781 26.5098 14.1341 26.5298C13.5901 26.5498 13.0941 26.7131 12.6461 27.0198C12.0829 26.4064 11.5965 25.7331 11.1869 24.9998ZM16.6205 25.1998C17.1325 25.5064 17.5741 25.8998 17.9453 26.3798C18.3165 26.8598 18.5981 27.3864 18.7901 27.9598C19.2637 28.0131 19.7373 28.0131 20.2109 27.9598C20.4029 27.3864 20.6813 26.8598 21.0461 26.3798C21.4109 25.8998 21.8525 25.5031 22.3709 25.1898C22.8893 24.8764 23.4429 24.6731 24.0317 24.5798C24.6205 24.4864 25.1965 24.5064 25.7597 24.6398C26.0413 24.2264 26.2845 23.7931 26.4893 23.3398C26.0925 22.8864 25.7885 22.3731 25.5773 21.7998C25.3661 21.2264 25.2605 20.6264 25.2605 19.9998C25.2605 19.3731 25.3661 18.7731 25.5773 18.1998C25.7885 17.6264 26.0925 17.1131 26.4893 16.6598C26.3869 16.4331 26.2749 16.2131 26.1533 15.9998C26.0317 15.7864 25.9005 15.5731 25.7597 15.3598C25.1965 15.4931 24.6205 15.5131 24.0317 15.4198C23.4429 15.3264 22.8925 15.1231 22.3805 14.8098C21.8685 14.4964 21.4269 14.0998 21.0557 13.6198C20.6845 13.1398 20.4029 12.6131 20.2109 12.0398C19.7373 11.9864 19.2637 11.9864 18.7901 12.0398C18.5981 12.6131 18.3197 13.1398 17.9549 13.6198C17.5901 14.0998 17.1453 14.4964 16.6205 14.8098C16.0957 15.1231 15.5421 15.3264 14.9597 15.4198C14.3773 15.5131 13.8045 15.4931 13.2413 15.3598C12.9597 15.7731 12.7165 16.2064 12.5117 16.6598C12.9085 17.1131 13.2125 17.6264 13.4237 18.1998C13.6349 18.7731 13.7405 19.3731 13.7405 19.9998C13.7405 20.6264 13.6349 21.2264 13.4237 21.7998C13.2125 22.3731 12.9085 22.8864 12.5117 23.3398C12.6141 23.5664 12.7261 23.7864 12.8477 23.9998C12.9693 24.2131 13.1005 24.4264 13.2413 24.6398C13.8045 24.5064 14.3805 24.4864 14.9693 24.5798C15.5581 24.6731 16.1085 24.8798 16.6205 25.1998ZM19.5005 22.9998C18.9757 22.9998 18.4925 22.8664 18.0509 22.5998C17.6093 22.3331 17.2605 21.9698 17.0045 21.5098C16.7485 21.0498 16.6205 20.5464 16.6205 19.9998C16.6205 19.4531 16.7485 18.9498 17.0045 18.4898C17.2605 18.0298 17.6093 17.6664 18.0509 17.3998C18.4925 17.1331 18.9757 16.9998 19.5005 16.9998C20.0253 16.9998 20.5085 17.1331 20.9501 17.3998C21.3917 17.6664 21.7405 18.0298 21.9965 18.4898C22.2525 18.9498 22.3805 19.4531 22.3805 19.9998C22.3805 20.5464 22.2525 21.0498 21.9965 21.5098C21.7405 21.9698 21.3917 22.3331 20.9501 22.5998C20.5085 22.8664 20.0253 22.9998 19.5005 22.9998ZM19.5005 20.9998C19.7693 20.9998 19.9965 20.9031 20.1821 20.7098C20.3677 20.5164 20.4605 20.2798 20.4605 19.9998C20.4605 19.7198 20.3677 19.4831 20.1821 19.2898C19.9965 19.0964 19.7693 18.9998 19.5005 18.9998C19.2317 18.9998 19.0045 19.0964 18.8189 19.2898C18.6333 19.4831 18.5405 19.7198 18.5405 19.9998C18.5405 20.2798 18.6333 20.5164 18.8189 20.7098C19.0045 20.9031 19.2317 20.9998 19.5005 20.9998Z" fill="#9CA3AF"/>
</svg>
