<svg width="48" height="48" viewBox="0 0 48 48" fill="none" xmlns="http://www.w3.org/2000/svg">
<path d="M0 24C0 10.7452 10.7452 0 24 0C37.2548 0 48 10.7452 48 24C48 37.2548 37.2548 48 24 48C10.7452 48 0 37.2548 0 24Z" fill="#8B5CF6" fill-opacity="0.082"/>
<path d="M24.0008 14.8334L30.5768 16.3501C30.7581 16.3945 30.9074 16.4945 31.0248 16.6501C31.1421 16.8056 31.2008 16.9779 31.2008 17.1667V25.4834C31.2008 26.3279 31.0114 27.1167 30.6328 27.8501C30.2541 28.5834 29.7288 29.1834 29.0568 29.6501L24.0008 33.1667L18.9448 29.6501C18.2728 29.1834 17.7474 28.5834 17.3688 27.8501C16.9901 27.1167 16.8008 26.3279 16.8008 25.4834V17.1667C16.8008 16.9779 16.8594 16.8056 16.9768 16.6501C17.0941 16.4945 17.2434 16.3945 17.4248 16.3501L24.0008 14.8334ZM24.0008 16.5334L18.4008 17.8334V25.4834C18.4008 26.0501 18.5261 26.5779 18.7768 27.0667C19.0274 27.5556 19.3768 27.9556 19.8248 28.2667L24.0008 31.1667L28.1768 28.2667C28.6248 27.9556 28.9741 27.5556 29.2248 27.0667C29.4754 26.5779 29.6008 26.0501 29.6008 25.4834V17.8334L24.0008 16.5334ZM27.5688 20.8501L28.6888 22.0334L23.6008 27.3334L20.2088 23.8001L21.3448 22.6167L23.6008 24.9834L27.5688 20.8501Z" fill="#8B5CF6"/>
</svg>
