<svg width="20" height="28" viewBox="0 0 20 28" fill="none" xmlns="http://www.w3.org/2000/svg">
<path d="M4.23438 21.875C4.23438 20.785 4.4986 19.775 5.02706 18.845C5.5363 17.945 6.2233 17.23 7.08805 16.7C7.98163 16.15 8.95207 15.875 9.99937 15.875C11.0467 15.875 12.0171 16.15 12.9107 16.7C13.7754 17.23 14.4624 17.945 14.9717 18.845C15.5001 19.775 15.7644 20.785 15.7644 21.875H14.3231C14.3231 21.065 14.1262 20.31 13.7322 19.61C13.3479 18.93 12.829 18.39 12.1757 17.99C11.5031 17.58 10.7776 17.375 9.99937 17.375C9.2211 17.375 8.49567 17.58 7.82309 17.99C7.16972 18.39 6.65087 18.93 6.26654 19.61C5.8726 20.31 5.67562 21.065 5.67562 21.875H4.23438ZM9.99937 15.125C9.21149 15.125 8.48606 14.92 7.82309 14.51C7.16972 14.11 6.65087 13.57 6.26654 12.89C5.8726 12.2 5.67562 11.445 5.67562 10.625C5.67562 9.805 5.8726 9.05 6.26654 8.36C6.65087 7.68 7.16972 7.14 7.82309 6.74C8.48606 6.33 9.21149 6.125 9.99937 6.125C10.7873 6.125 11.5127 6.33 12.1757 6.74C12.829 7.14 13.3479 7.68 13.7322 8.36C14.1262 9.05 14.3231 9.805 14.3231 10.625C14.3231 11.445 14.1262 12.2 13.7322 12.89C13.3479 13.57 12.829 14.11 12.1757 14.51C11.5127 14.92 10.7873 15.125 9.99937 15.125ZM9.99937 13.625C10.5182 13.625 10.9986 13.49 11.4406 13.22C11.8826 12.95 12.2333 12.585 12.4927 12.125C12.7522 11.665 12.8819 11.165 12.8819 10.625C12.8819 10.085 12.7522 9.585 12.4927 9.125C12.2333 8.665 11.8826 8.3 11.4406 8.03C10.9986 7.76 10.5182 7.625 9.99937 7.625C9.48053 7.625 9.00011 7.76 8.55813 8.03C8.11614 8.3 7.76544 8.665 7.50601 9.125C7.24659 9.585 7.11687 10.085 7.11687 10.625C7.11687 11.165 7.24659 11.665 7.50601 12.125C7.76544 12.585 8.11614 12.95 8.55813 13.22C9.00011 13.49 9.48053 13.625 9.99937 13.625Z" fill="#FF741F"/>
</svg>
