<svg width="16" height="20" viewBox="0 0 16 20" fill="none" xmlns="http://www.w3.org/2000/svg">
<path d="M6.31891 4.16683V5.3335H9.68266V4.16683H10.8039V5.3335H13.0464C13.2034 5.3335 13.3361 5.38988 13.4444 5.50266C13.5528 5.61544 13.607 5.7535 13.607 5.91683V15.2502C13.607 15.4135 13.5528 15.5516 13.4444 15.6643C13.3361 15.7771 13.2034 15.8335 13.0464 15.8335H2.95516C2.79818 15.8335 2.6655 15.7771 2.55711 15.6643C2.44872 15.5516 2.39453 15.4135 2.39453 15.2502V5.91683C2.39453 5.7535 2.44872 5.61544 2.55711 5.50266C2.6655 5.38988 2.79818 5.3335 2.95516 5.3335H5.19766V4.16683H6.31891ZM12.4858 10.0002H3.51578V14.6668H12.4858V10.0002ZM5.19766 6.50016H3.51578V8.8335H12.4858V6.50016H10.8039V7.66683H9.68266V6.50016H6.31891V7.66683H5.19766V6.50016Z" fill="#4B5563"/>
</svg>
