<svg width="40" height="40" viewBox="0 0 40 40" fill="none" xmlns="http://www.w3.org/2000/svg">
<path d="M18.558 10.02V20.98H29.0796C28.9132 22.6466 28.382 24.1733 27.486 25.56C26.6156 26.92 25.4892 27.9866 24.1068 28.76C22.686 29.5733 21.1564 29.98 19.518 29.98C18.2252 29.98 16.9836 29.7133 15.7932 29.18C14.6412 28.6866 13.6204 27.9766 12.7308 27.05C11.8412 26.1233 11.1596 25.06 10.686 23.86C10.174 22.62 9.91797 21.3266 9.91797 19.98C9.91797 18.2733 10.3084 16.68 11.0892 15.2C11.8316 13.76 12.8556 12.5866 14.1612 11.68C15.4924 10.7466 16.958 10.1933 18.558 10.02ZM20.478 10.02C21.9756 10.18 23.358 10.6733 24.6252 11.5C25.8668 12.3133 26.878 13.3666 27.6588 14.66C28.4524 15.98 28.926 17.42 29.0796 18.98H20.478V10.02Z" fill="#FF741F"/>
</svg>
