<svg width="40" height="40" viewBox="0 0 40 40" fill="none" xmlns="http://www.w3.org/2000/svg">
<path d="M0 20C0 8.95431 8.95431 0 20 0C31.0457 0 40 8.95431 40 20C40 31.0457 31.0457 40 20 40C8.95431 40 0 31.0457 0 20Z" fill="#F7F7F8"/>
<path d="M17.0044 20.2104H23.0121V21.3979H17.0044V20.2104Z" fill="#474747"/>
<path d="M17.0044 23.3818H20.0083V24.5693H17.0044V23.3818Z" fill="#474747"/>
<path fill-rule="evenodd" clip-rule="evenodd" d="M15.9756 11.499C15.3961 11.499 14.6523 11.7127 14.0588 12.2187C13.4443 12.7425 13.0114 13.5659 13.0836 14.695V25.1668C13.0368 25.6859 13.1117 26.4561 13.51 27.1398C13.9373 27.8733 14.7018 28.4438 15.9027 28.5226L15.9201 28.5237H26.926V16.2608H24.6978V14.4645C24.6978 14.1331 24.4434 13.8629 24.1279 13.8629H15.8813V15.0504H23.5728V16.2608H15.9756C15.6786 16.2608 15.2444 16.1942 14.8881 15.962C14.5633 15.7503 14.2591 15.3761 14.2071 14.6306C14.156 13.897 14.42 13.4372 14.7657 13.1425C15.1365 12.8263 15.6228 12.6865 15.9756 12.6865H26.3837V11.499H15.9756ZM14.2086 25.2288V16.9122C14.2378 16.933 14.2674 16.9531 14.2972 16.9725C14.8948 17.3619 15.5601 17.4483 15.9756 17.4483H25.801V27.3362H15.9557C15.1136 27.2764 14.6932 26.9039 14.4683 26.5177C14.2215 26.0941 14.1722 25.5841 14.2054 25.2607L14.2086 25.2288Z" fill="#474747"/>
</svg>
