<svg width="40" height="40" viewBox="0 0 40 40" fill="none" xmlns="http://www.w3.org/2000/svg">
<path d="M20.4594 27.36H26.2194V18.34L19.4994 12.9L12.7794 18.34V27.36H18.5394V21.36H20.4594V27.36ZM28.1394 28.36C28.1394 28.64 28.0466 28.8767 27.861 29.07C27.6754 29.2633 27.4482 29.36 27.1794 29.36H11.8194C11.5506 29.36 11.3234 29.2633 11.1378 29.07C10.9522 28.8767 10.8594 28.64 10.8594 28.36V17.86C10.8594 17.5267 10.981 17.26 11.2242 17.06L18.9042 10.84C19.0834 10.7067 19.2818 10.64 19.4994 10.64C19.717 10.64 19.9154 10.7067 20.0946 10.84L27.7746 17.06C28.0178 17.26 28.1394 17.5267 28.1394 17.86V28.36Z" fill="#9CA3AF"/>
</svg>
