<svg width="64" height="64" viewBox="0 0 64 64" fill="none" xmlns="http://www.w3.org/2000/svg">
<path d="M0 32C0 14.3269 14.3269 0 32 0C49.6731 0 64 14.3269 64 32C64 49.6731 49.6731 64 32 64C14.3269 64 0 49.6731 0 32Z" fill="white"/>
<path d="M43.5027 21.75H44.7034V34.25H43.5027V38C43.5027 38.35 43.3867 38.6458 43.1546 38.8875C42.9224 39.1292 42.6383 39.25 42.3021 39.25H20.6909C20.3547 39.25 20.0705 39.1292 19.8384 38.8875C19.6063 38.6458 19.4902 38.35 19.4902 38V18C19.4902 17.65 19.6063 17.3542 19.8384 17.1125C20.0705 16.8708 20.3547 16.75 20.6909 16.75H42.3021C42.6383 16.75 42.9224 16.8708 43.1546 17.1125C43.3867 17.3542 43.5027 17.65 43.5027 18V21.75ZM41.1015 34.25H33.8977C32.8092 34.25 31.8046 33.9708 30.8842 33.4125C29.9637 32.8542 29.2353 32.0958 28.699 31.1375C28.1627 30.1792 27.8946 29.1333 27.8946 28C27.8946 26.8667 28.1627 25.8208 28.699 24.8625C29.2353 23.9042 29.9637 23.1458 30.8842 22.5875C31.8046 22.0292 32.8092 21.75 33.8977 21.75H41.1015V19.25H21.8915V36.75H41.1015V34.25ZM42.3021 31.75V24.25H33.8977C33.2414 24.25 32.6371 24.4167 32.0848 24.75C31.5325 25.0833 31.0963 25.5375 30.7761 26.1125C30.4559 26.6875 30.2959 27.3167 30.2959 28C30.2959 28.6833 30.4559 29.3125 30.7761 29.8875C31.0963 30.4625 31.5325 30.9167 32.0848 31.25C32.6371 31.5833 33.2414 31.75 33.8977 31.75H42.3021ZM33.8977 26.75H37.4996V29.25H33.8977V26.75Z" fill="white"/>
</svg>
