<svg width="40" height="40" viewBox="0 0 40 40" fill="none" xmlns="http://www.w3.org/2000/svg">
<path d="M11.1869 25C10.7773 24.2667 10.4637 23.4933 10.2461 22.68C10.7197 22.4267 11.1005 22.06 11.3885 21.58C11.6765 21.1 11.8205 20.5733 11.8205 20C11.8205 19.4267 11.6765 18.9 11.3885 18.42C11.1005 17.94 10.7197 17.5733 10.2461 17.32C10.6941 15.6533 11.4941 14.2067 12.6461 12.98C13.0941 13.2867 13.5901 13.45 14.1341 13.47C14.6781 13.49 15.1869 13.3567 15.6605 13.07C16.1341 12.7833 16.4989 12.39 16.7549 11.89C17.0109 11.39 17.1261 10.8667 17.1005 10.32C18.7005 9.88001 20.3005 9.88001 21.9005 10.32C21.8749 10.8667 21.9901 11.39 22.2461 11.89C22.5021 12.39 22.8669 12.7833 23.3405 13.07C23.8141 13.3567 24.3229 13.49 24.8669 13.47C25.4109 13.45 25.9069 13.2867 26.3549 12.98C26.9181 13.5933 27.4045 14.2667 27.8141 15C28.2237 15.7333 28.5373 16.5067 28.7549 17.32C28.2813 17.5733 27.9005 17.94 27.6125 18.42C27.3245 18.9 27.1805 19.4267 27.1805 20C27.1805 20.5733 27.3245 21.1 27.6125 21.58C27.9005 22.06 28.2813 22.4267 28.7549 22.68C28.3069 24.3467 27.5069 25.7933 26.3549 27.02C25.9069 26.7133 25.4109 26.55 24.8669 26.53C24.3229 26.51 23.8141 26.6433 23.3405 26.93C22.8669 27.2167 22.5021 27.61 22.2461 28.11C21.9901 28.61 21.8749 29.1333 21.9005 29.68C20.3005 30.12 18.7005 30.12 17.1005 29.68C17.1261 29.1333 17.0109 28.61 16.7549 28.11C16.4989 27.61 16.1341 27.2167 15.6605 26.93C15.1869 26.6433 14.6781 26.51 14.1341 26.53C13.5901 26.55 13.0941 26.7133 12.6461 27.02C12.0829 26.4067 11.5965 25.7333 11.1869 25ZM16.6205 25.2C17.1325 25.5067 17.5741 25.9 17.9453 26.38C18.3165 26.86 18.5981 27.3867 18.7901 27.96C19.2637 28.0133 19.7373 28.0133 20.2109 27.96C20.4029 27.3867 20.6813 26.86 21.0461 26.38C21.4109 25.9 21.8525 25.5033 22.3709 25.19C22.8893 24.8767 23.4429 24.6733 24.0317 24.58C24.6205 24.4867 25.1965 24.5067 25.7597 24.64C26.0413 24.2267 26.2845 23.7933 26.4893 23.34C26.0925 22.8867 25.7885 22.3733 25.5773 21.8C25.3661 21.2267 25.2605 20.6267 25.2605 20C25.2605 19.3733 25.3661 18.7733 25.5773 18.2C25.7885 17.6267 26.0925 17.1133 26.4893 16.66C26.3869 16.4333 26.2749 16.2133 26.1533 16C26.0317 15.7867 25.9005 15.5733 25.7597 15.36C25.1965 15.4933 24.6205 15.5133 24.0317 15.42C23.4429 15.3267 22.8925 15.1233 22.3805 14.81C21.8685 14.4967 21.4269 14.1 21.0557 13.62C20.6845 13.14 20.4029 12.6133 20.2109 12.04C19.7373 11.9867 19.2637 11.9867 18.7901 12.04C18.5981 12.6133 18.3197 13.14 17.9549 13.62C17.5901 14.1 17.1453 14.4967 16.6205 14.81C16.0957 15.1233 15.5421 15.3267 14.9597 15.42C14.3773 15.5133 13.8045 15.4933 13.2413 15.36C12.9597 15.7733 12.7165 16.2067 12.5117 16.66C12.9085 17.1133 13.2125 17.6267 13.4237 18.2C13.6349 18.7733 13.7405 19.3733 13.7405 20C13.7405 20.6267 13.6349 21.2267 13.4237 21.8C13.2125 22.3733 12.9085 22.8867 12.5117 23.34C12.6141 23.5667 12.7261 23.7867 12.8477 24C12.9693 24.2133 13.1005 24.4267 13.2413 24.64C13.8045 24.5067 14.3805 24.4867 14.9693 24.58C15.5581 24.6733 16.1085 24.88 16.6205 25.2ZM19.5005 23C18.9757 23 18.4925 22.8667 18.0509 22.6C17.6093 22.3333 17.2605 21.97 17.0045 21.51C16.7485 21.05 16.6205 20.5467 16.6205 20C16.6205 19.4533 16.7485 18.95 17.0045 18.49C17.2605 18.03 17.6093 17.6667 18.0509 17.4C18.4925 17.1333 18.9757 17 19.5005 17C20.0253 17 20.5085 17.1333 20.9501 17.4C21.3917 17.6667 21.7405 18.03 21.9965 18.49C22.2525 18.95 22.3805 19.4533 22.3805 20C22.3805 20.5467 22.2525 21.05 21.9965 21.51C21.7405 21.97 21.3917 22.3333 20.9501 22.6C20.5085 22.8667 20.0253 23 19.5005 23ZM19.5005 21C19.7693 21 19.9965 20.9033 20.1821 20.71C20.3677 20.5167 20.4605 20.28 20.4605 20C20.4605 19.72 20.3677 19.4833 20.1821 19.29C19.9965 19.0967 19.7693 19 19.5005 19C19.2317 19 19.0045 19.0967 18.8189 19.29C18.6333 19.4833 18.5405 19.72 18.5405 20C18.5405 20.28 18.6333 20.5167 18.8189 20.71C19.0045 20.9033 19.2317 21 19.5005 21Z" fill="#9CA3AF"/>
</svg>
