<svg width="40" height="40" viewBox="0 0 40 40" fill="none" xmlns="http://www.w3.org/2000/svg">
<path d="M0 20C0 8.95431 8.95431 0 20 0C31.0457 0 40 8.95431 40 20C40 31.0457 31.0457 40 20 40C8.95431 40 0 31.0457 0 20Z" fill="#F7F7F8"/>
<path d="M26.1177 17V26.75C26.1177 26.96 26.0481 27.1375 25.9088 27.2825C25.7694 27.4275 25.5989 27.5 25.3971 27.5H13.8671C13.6653 27.5 13.4948 27.4275 13.3555 27.2825C13.2161 27.1375 13.1465 26.96 13.1465 26.75V13.25C13.1465 13.04 13.2161 12.8625 13.3555 12.7175C13.4948 12.5725 13.6653 12.5 13.8671 12.5H21.794L26.1177 17ZM24.6765 17.75H21.0734V14H14.5877V26H24.6765V17.75ZM16.7496 16.25H18.9115V17.75H16.7496V16.25ZM16.7496 19.25H22.5146V20.75H16.7496V19.25ZM16.7496 22.25H22.5146V23.75H16.7496V22.25Z" fill="#474747"/>
</svg>
