<svg width="40" height="40" viewBox="0 0 40 40" fill="none" xmlns="http://www.w3.org/2000/svg">
<path d="M0 20C0 8.95431 8.95431 0 20 0C31.0457 0 40 8.95431 40 20C40 31.0457 31.0457 40 20 40C8.95431 40 0 31.0457 0 20Z" fill="#F3F4F6"/>
<path d="M19.632 27.5C18.652 27.5 17.7152 27.305 16.8216 26.915C15.9665 26.535 15.205 25.9975 14.5372 25.3025C13.8694 24.6075 13.353 23.815 12.9879 22.925C12.6131 21.995 12.4258 21.02 12.4258 20C12.4258 18.98 12.6131 18.005 12.9879 17.075C13.353 16.185 13.8694 15.3925 14.5372 14.6975C15.205 14.0025 15.9665 13.465 16.8216 13.085C17.7152 12.695 18.652 12.5 19.632 12.5C20.6121 12.5 21.5489 12.695 22.4425 13.085C23.2976 13.465 24.0591 14.0025 24.7268 14.6975C25.3946 15.3925 25.9111 16.185 26.2762 17.075C26.6509 18.005 26.8383 18.98 26.8383 20C26.8383 21.02 26.6509 21.995 26.2762 22.925C25.9111 23.815 25.3946 24.6075 24.7268 25.3025C24.0591 25.9975 23.2976 26.535 22.4425 26.915C21.5489 27.305 20.6121 27.5 19.632 27.5ZM19.632 26C20.6793 26 21.6498 25.725 22.5434 25.175C23.4081 24.645 24.0951 23.93 24.6043 23.03C25.1328 22.1 25.397 21.09 25.397 20C25.397 18.91 25.1328 17.9 24.6043 16.97C24.0951 16.07 23.4081 15.355 22.5434 14.825C21.6498 14.275 20.6793 14 19.632 14C18.5847 14 17.6143 14.275 16.7207 14.825C15.856 15.355 15.169 16.07 14.6597 16.97C14.1313 17.9 13.867 18.91 13.867 20C13.867 21.09 14.1313 22.1 14.6597 23.03C15.169 23.93 15.856 24.645 16.7207 25.175C17.6143 25.725 18.5847 26 19.632 26ZM18.9114 22.25H20.3527V23.75H18.9114V22.25ZM20.3527 21.02V21.5H18.9114V20.375C18.9114 20.165 18.9811 19.9875 19.1204 19.8425C19.2597 19.6975 19.4303 19.625 19.632 19.625C19.9299 19.625 20.1845 19.515 20.3959 19.295C20.6073 19.075 20.713 18.81 20.713 18.5C20.713 18.19 20.6073 17.925 20.3959 17.705C20.1845 17.485 19.9299 17.375 19.632 17.375C19.3726 17.375 19.1444 17.46 18.9474 17.63C18.7505 17.8 18.6232 18.015 18.5655 18.275L17.1531 17.99C17.2299 17.59 17.3885 17.23 17.6287 16.91C17.8689 16.59 18.162 16.3375 18.5079 16.1525C18.8538 15.9675 19.2285 15.875 19.632 15.875C20.0932 15.875 20.516 15.9925 20.9003 16.2275C21.2847 16.4625 21.5897 16.78 21.8155 17.18C22.0413 17.58 22.1542 18.02 22.1542 18.5C22.1542 19.09 21.9861 19.615 21.6498 20.075C21.3135 20.535 20.8811 20.85 20.3527 21.02Z" fill="#374151"/>
</svg>
