<svg width="40" height="40" viewBox="0 0 40 40" fill="none" xmlns="http://www.w3.org/2000/svg">
<path d="M0 20C0 8.95431 8.95431 0 20 0C31.0457 0 40 8.95431 40 20C40 31.0457 31.0457 40 20 40C8.95431 40 0 31.0457 0 20Z" fill="#F7F7F8"/>
<path d="M26.8383 23.4351C26.8383 24.1351 26.6894 24.8001 26.3915 25.4301C26.1032 26.0301 25.6997 26.5426 25.1808 26.9676C24.662 27.3926 24.0807 27.6801 23.4369 27.8301L22.9757 26.3901C23.4081 26.3201 23.802 26.1551 24.1576 25.8951C24.5131 25.6351 24.7965 25.3101 25.0079 24.9201H23.2352C22.9757 24.9201 22.7355 24.8551 22.5145 24.7251C22.2935 24.5951 22.1182 24.4151 21.9885 24.1851C21.8588 23.9551 21.7939 23.7001 21.7939 23.4201V20.4201C21.7939 20.1501 21.8588 19.9001 21.9885 19.6701C22.1182 19.4401 22.2935 19.2576 22.5145 19.1226C22.7355 18.9876 22.9757 18.9201 23.2352 18.9201H25.3538C25.2385 17.9501 24.9118 17.0651 24.3737 16.2651C23.8357 15.4651 23.1583 14.8351 22.3416 14.3751C21.496 13.9051 20.5929 13.6701 19.632 13.6701C18.6712 13.6701 17.768 13.9051 16.9225 14.3751C16.1058 14.8351 15.4284 15.4651 14.8903 16.2651C14.3523 17.0651 14.0256 17.9501 13.9103 18.9201H16.0289C16.2883 18.9201 16.5285 18.9876 16.7495 19.1226C16.9705 19.2576 17.1459 19.4401 17.2756 19.6701C17.4053 19.9001 17.4702 20.1501 17.4702 20.4201V23.4201C17.4702 23.7001 17.4053 23.9551 17.2756 24.1851C17.1459 24.4151 16.9705 24.5951 16.7495 24.7251C16.5285 24.8551 16.2883 24.9201 16.0289 24.9201H13.867C13.6076 24.9201 13.3674 24.8551 13.1464 24.7251C12.9254 24.5951 12.7501 24.4151 12.6204 24.1851C12.4906 23.9551 12.4258 23.7001 12.4258 23.4201V19.6701C12.4258 18.6601 12.6131 17.6901 12.9879 16.7601C13.353 15.8601 13.8694 15.0651 14.5372 14.3751C15.205 13.6851 15.9665 13.1501 16.8216 12.7701C17.7152 12.3701 18.652 12.1701 19.632 12.1701C20.6121 12.1701 21.5489 12.3701 22.4425 12.7701C23.2976 13.1501 24.0591 13.6851 24.7268 14.3751C25.3946 15.0651 25.9111 15.8601 26.2762 16.7601C26.6509 17.6901 26.8383 18.6601 26.8383 19.6701V23.4351ZM25.397 23.4201V20.4201H23.2352V23.4201H25.397ZM13.867 20.4201V23.4201H16.0289V20.4201H13.867Z" fill="#474747"/>
</svg>
