<svg width="20" height="20" viewBox="0 0 20 20" fill="none" xmlns="http://www.w3.org/2000/svg">
<path d="M17.8678 7.08382C17.8678 7.08382 17.8676 7.08359 18.3332 6.66667C18.7988 6.24974 18.7985 6.24941 18.7985 6.24941L18.7971 6.24786L18.7941 6.24447L18.7839 6.23324C18.7752 6.22382 18.763 6.21055 18.7473 6.19369C18.7159 6.15997 18.6704 6.11188 18.6115 6.05147C18.4939 5.93069 18.3225 5.7604 18.103 5.55712C17.6648 5.15112 17.0313 4.61044 16.2476 4.06909C14.6921 2.99461 12.4829 1.875 9.99986 1.875C7.51678 1.875 5.30763 2.99461 3.75209 4.06909C2.96837 4.61044 2.33495 5.15112 1.89667 5.55712C1.67722 5.7604 1.50585 5.93069 1.38817 6.05147C1.32931 6.11188 1.28382 6.15997 1.25239 6.19369C1.23667 6.21055 1.22447 6.22382 1.21586 6.23324L1.20565 6.24447L1.20259 6.24786L1.20158 6.24899C1.20158 6.24899 1.20091 6.24974 1.66652 6.66667C2.13214 7.08359 2.13193 7.08382 2.13193 7.08382L2.13283 7.08282L2.13887 7.07618C2.14466 7.06984 2.15397 7.05972 2.1667 7.04606C2.19217 7.01874 2.23133 6.97731 2.28348 6.92379C2.38781 6.8167 2.54389 6.66147 2.74613 6.47413C3.15122 6.09888 3.73819 5.5979 4.46251 5.09758C5.92305 4.08872 7.88056 3.125 9.99986 3.125C12.1191 3.125 14.0767 4.08872 15.5372 5.09758C16.2615 5.5979 16.8485 6.09888 17.2536 6.47413C17.4558 6.66147 17.6119 6.8167 17.7162 6.92379C17.7684 6.97731 17.8075 7.01874 17.833 7.04606C17.8409 7.05448 17.8474 7.06156 17.8526 7.06724C17.8559 7.07077 17.8586 7.07375 17.8608 7.07618L17.8669 7.08282L17.8678 7.08382Z" fill="#666666"/>
<path fill-rule="evenodd" clip-rule="evenodd" d="M10 14.7917C8.27411 14.7917 6.875 13.3926 6.875 11.6667C6.875 9.94078 8.27411 8.54167 10 8.54167C11.7259 8.54167 13.125 9.94078 13.125 11.6667C13.125 13.3926 11.7259 14.7917 10 14.7917ZM8.125 11.6667C8.125 12.7022 8.96447 13.5417 10 13.5417C11.0355 13.5417 11.875 12.7022 11.875 11.6667C11.875 10.6311 11.0355 9.79167 10 9.79167C8.96447 9.79167 8.125 10.6311 8.125 11.6667Z" fill="#666666"/>
<path fill-rule="evenodd" clip-rule="evenodd" d="M4.33694 7.58361C5.81894 6.30495 7.74443 5.20833 10 5.20833C12.2556 5.20833 14.1811 6.30495 15.6631 7.58361C17.1484 8.86517 18.2456 10.3779 18.8585 11.3278L19.0772 11.6667L18.8585 12.0055C18.2456 12.9554 17.1484 14.4682 15.6631 15.7497C14.1811 17.0284 12.2556 18.125 10 18.125C7.74443 18.125 5.81894 17.0284 4.33694 15.7497C2.85159 14.4682 1.75444 12.9554 1.14152 12.0055L0.922852 11.6667L1.14152 11.3278C1.75444 10.3779 2.85159 8.86518 4.33694 7.58361ZM2.416 11.6667C3.01826 12.5553 3.95481 13.7691 5.15351 14.8033C6.51639 15.9792 8.16118 16.875 10 16.875C11.8388 16.875 13.4836 15.9792 14.8465 14.8033C16.0452 13.7691 16.9818 12.5553 17.584 11.6667C16.9818 10.778 16.0452 9.56427 14.8465 8.53003C13.4836 7.35415 11.8388 6.45833 10 6.45833C8.16118 6.45833 6.51639 7.35415 5.15351 8.53003C3.95481 9.56427 3.01826 10.778 2.416 11.6667Z" fill="#666666"/>
</svg>
