<svg width="63" height="63" viewBox="0 0 63 63" fill="none" xmlns="http://www.w3.org/2000/svg">
<g clip-path="url(#clip0_12356_2599)">
<path d="M60.3061 25.2441C58.9985 23.9784 57.6884 22.7032 56.3759 21.4186C56.339 19.6393 56.2927 17.8609 56.2369 16.0833C56.1631 13.7023 55.1295 11.4309 53.3687 9.66639C51.6079 7.90189 49.3241 6.87938 46.9407 6.80432C45.159 6.74936 43.3773 6.70342 41.5955 6.6665C40.3109 5.35893 39.0374 4.05299 37.7749 2.74869C36.0658 0.998966 33.8534 0.0207433 31.4996 0.0219738C29.1457 0.0232043 26.9321 1.00635 25.234 2.74869C23.965 4.05545 22.6873 5.36426 21.4011 6.67512C19.6194 6.71121 17.8381 6.75715 16.0572 6.81293C11.1501 6.98027 6.92709 11.1971 6.75975 16.0907C6.70478 17.8699 6.65844 19.6484 6.6207 21.426C5.3082 22.7098 3.99816 23.9845 2.69059 25.2503C0.944551 26.9471 -0.0361328 29.1619 -0.0361328 31.4998C-0.0361328 33.8377 0.938399 36.0526 2.69059 37.7555C3.99816 39.0204 5.31066 40.294 6.62809 41.5761C6.66336 43.3554 6.7093 45.1351 6.7659 46.9151C6.84096 49.2998 7.87332 51.5651 9.63289 53.332C11.3925 55.099 13.675 56.119 16.0621 56.1929C17.8438 56.2495 19.6255 56.2958 21.4072 56.3319C22.6919 57.6387 23.9678 58.9438 25.2352 60.2473C26.937 61.997 29.1518 62.9752 31.5106 62.974C33.8694 62.9728 36.0781 61.997 37.786 60.2485C39.0534 58.9426 40.3298 57.635 41.6152 56.3258C43.397 56.2888 45.1783 56.2425 46.9592 56.1867C51.865 56.0206 56.088 51.8038 56.2554 46.909C56.3111 45.1314 56.3571 43.3537 56.3932 41.5761C57.7057 40.2915 59.0161 39.0163 60.3245 37.7506C62.0705 36.055 63.0512 33.8426 63.0512 31.4961C63.0512 29.1496 62.0546 26.9471 60.3061 25.2441Z" fill="#FF741F"/>
<path d="M41.5955 6.66651C40.3109 5.35893 39.0374 4.05299 37.7749 2.74869C36.0658 0.998966 33.8534 0.0207433 31.4995 0.0219738C29.1457 0.0232043 26.932 1.00635 25.234 2.74869C23.965 4.05545 22.6873 5.36426 21.4011 6.67512C19.6194 6.71121 17.8381 6.75715 16.0572 6.81293C11.1501 6.98028 6.92709 11.1971 6.75975 16.0907C6.70478 17.8699 6.65844 19.6484 6.6207 21.426C5.3082 22.7098 3.99816 23.9845 2.69059 25.2503C0.944551 26.9471 -0.0361328 29.1619 -0.0361328 31.4998C-0.0361328 33.8377 0.938399 36.0526 2.69059 37.7555C3.99816 39.0205 5.31066 40.294 6.62809 41.5761C6.65926 43.1134 6.70027 44.6507 6.75113 46.1879C8.91579 46.6074 11.1157 46.8184 13.3206 46.8179C32.2575 46.8179 47.6088 31.4666 47.6088 12.5297C47.607 10.6144 47.4456 8.70265 47.1265 6.81416L46.9469 6.80432C45.161 6.74936 43.3773 6.70342 41.5955 6.66651Z" fill="#FF741F"/>
<path d="M47.1807 27.5092C41.8675 33.0304 36.4695 38.6745 31.1612 44.2731C30.7302 44.7299 30.2105 45.094 29.634 45.3432C29.0575 45.5924 28.4363 45.7215 27.8082 45.7226H27.7873C27.1595 45.7185 26.5389 45.5887 25.962 45.3411C25.3851 45.0934 24.8635 44.7328 24.4281 44.2805C21.5898 41.3496 18.7425 38.4292 15.8862 35.5196C15.4543 35.0853 15.1135 34.569 14.8839 34.0011C14.6544 33.4332 14.5406 32.8252 14.5493 32.2127C14.558 31.6002 14.689 30.9957 14.9347 30.4346C15.1803 29.8734 15.5356 29.3671 15.9797 28.9452C16.8746 28.0805 18.0747 27.6041 19.3189 27.6196C20.5632 27.635 21.7511 28.141 22.6242 29.0276C24.3215 30.7675 26.0207 32.5123 27.7221 34.2621C31.9364 29.8459 36.1717 25.4027 40.3405 21.0296C42.1099 19.1679 45.0618 19.1371 46.9592 20.9336C48.8566 22.7301 48.9637 25.6574 47.1807 27.5092Z" fill="white"/>
</g>
<defs>
<clipPath id="clip0_12356_2599">
<rect width="63" height="63" fill="white"/>
</clipPath>
</defs>
</svg>
