<svg width="31" height="36" viewBox="0 0 31 36" fill="none" xmlns="http://www.w3.org/2000/svg">
<path d="M25.8134 13V29.25C25.8134 29.6 25.6973 29.8958 25.4652 30.1375C25.2331 30.3792 24.9489 30.5 24.6128 30.5H5.40277C5.0666 30.5 4.78245 30.3792 4.55033 30.1375C4.31821 29.8958 4.20215 29.6 4.20215 29.25V6.75C4.20215 6.4 4.31821 6.10417 4.55033 5.8625C4.78245 5.62083 5.0666 5.5 5.40277 5.5H18.6096L25.8134 13ZM23.4121 14.25H17.409V8H6.6034V28H23.4121V14.25ZM10.2053 11.75H13.8071V14.25H10.2053V11.75ZM10.2053 16.75H19.8103V19.25H10.2053V16.75ZM10.2053 21.75H19.8103V24.25H10.2053V21.75Z" fill="#A3A3A3"/>
</svg>
