<svg width="382" height="48" viewBox="0 0 382 48" fill="none" xmlns="http://www.w3.org/2000/svg">
<path fill-rule="evenodd" clip-rule="evenodd" d="M185.5 18C185.5 14.9624 187.962 12.5 191 12.5C194.038 12.5 196.5 14.9624 196.5 18C196.5 21.0375 194.038 23.5 191 23.5C187.962 23.5 185.5 21.0375 185.5 18ZM191 15.5C189.619 15.5 188.5 16.6193 188.5 18C188.5 19.3807 189.619 20.5 191 20.5C192.381 20.5 193.5 19.3807 193.5 18C193.5 16.6193 192.381 15.5 191 15.5Z" fill="#FF741F"/>
<path fill-rule="evenodd" clip-rule="evenodd" d="M178.896 4.5H203.104C204.901 4.49995 206.399 4.4999 207.589 4.65983C208.845 4.82864 209.978 5.19998 210.889 6.11092C211.8 7.02186 212.171 8.15546 212.34 9.41105C212.5 10.6006 212.5 12.0991 212.5 13.896V24.0505C212.5 24.9394 212.5 25.6815 212.458 26.2907C212.415 26.9249 212.322 27.524 212.081 28.1048C211.523 29.4524 210.452 30.5231 209.105 31.0813C208.524 31.3219 207.925 31.4152 207.291 31.4585C207.046 31.4751 206.781 31.4851 206.493 31.4911C206.482 32.6798 206.453 33.7071 206.377 34.601C206.25 36.0861 205.987 37.3403 205.378 38.4783C204.493 40.1353 203.135 41.4925 201.478 42.3783C200.34 42.9865 199.086 43.2502 197.601 43.3765C196.149 43.5 194.345 43.5 192.069 43.5H190.945C189.128 43.5 187.687 43.5 186.521 43.4204C185.329 43.3391 184.313 43.1697 183.365 42.7769C181.037 41.8127 179.187 39.9633 178.223 37.6355C177.83 36.6872 177.661 35.6714 177.58 34.4794C177.522 33.6397 177.506 32.6584 177.502 31.4969C176.31 31.4884 175.278 31.4568 174.411 31.3402C173.155 31.1714 172.022 30.8 171.111 29.8891C170.2 28.9782 169.829 27.8446 169.66 26.589C169.5 25.3994 169.5 23.901 169.5 22.1041V13.896C169.5 12.0991 169.5 10.6006 169.66 9.41105C169.829 8.15546 170.2 7.02186 171.111 6.11092C172.022 5.19998 173.155 4.82864 174.411 4.65983C175.601 4.4999 177.099 4.49995 178.896 4.5ZM180.502 31.5C180.506 32.6322 180.522 33.5259 180.573 34.2751C180.644 35.3144 180.779 35.9656 180.995 36.4874C181.654 38.0801 182.92 39.3455 184.513 40.0052C185.034 40.2214 185.686 40.3565 186.725 40.4274C187.778 40.4992 189.116 40.5 191 40.5H192C194.36 40.5 196.037 40.4987 197.347 40.3873C198.638 40.2775 199.435 40.0689 200.064 39.7325C201.198 39.1265 202.126 38.1979 202.732 37.0641C203.069 36.4348 203.277 35.638 203.387 34.3467C203.499 33.0368 203.5 31.3605 203.5 29V19.7561C201.752 20.3738 200.5 22.0407 200.5 24V28C200.5 28.8284 199.828 29.5 199 29.5C196.515 29.5 194.5 31.5147 194.5 34C194.5 34.8284 193.828 35.5 193 35.5C192.172 35.5 191.5 34.8284 191.5 34C191.5 33.1234 191.65 32.282 191.927 31.5L180.502 31.5ZM193.901 28.5C194.89 27.5826 196.127 26.9288 197.5 26.65V24C197.5 19.8579 200.858 16.5 205 16.5C205.828 16.5 206.5 17.1716 206.5 18V28.4903C206.719 28.4852 206.912 28.4774 207.087 28.4654C207.568 28.4326 207.802 28.3736 207.957 28.3097C208.569 28.056 209.056 27.5693 209.31 26.9567C209.374 26.8024 209.433 26.568 209.465 26.0865C209.499 25.5916 209.5 24.9524 209.5 24V14C209.5 12.072 209.497 10.7769 209.367 9.81079C209.243 8.88787 209.028 8.49287 208.768 8.23224C208.507 7.97161 208.112 7.75716 207.189 7.63308C206.223 7.50319 204.928 7.50001 203 7.50001H179C177.072 7.50001 175.777 7.50319 174.811 7.63308C173.888 7.75716 173.493 7.97161 173.232 8.23224C172.972 8.49287 172.757 8.88787 172.633 9.81079C172.503 10.7769 172.5 12.072 172.5 14V22C172.5 23.928 172.503 25.2231 172.633 26.1892C172.757 27.1121 172.972 27.5071 173.232 27.7678C173.493 28.0284 173.888 28.2429 174.811 28.3669C175.777 28.4968 177.072 28.5 179 28.5" fill="#FF741F"/>
</svg>
