<svg width="36" height="22" viewBox="0 0 36 22" fill="none" xmlns="http://www.w3.org/2000/svg">
<g clip-path="url(#clip0_12392_508)">
<path d="M10.7143 0C4.79695 0 0 4.73545 0 10.5769V10.5928C0 16.4343 4.79695 21.1538 10.7143 21.1538H25.2857C31.2031 21.1538 36 16.4343 36 10.5928V10.5769C36 4.73545 31.2031 0 25.2857 0H10.7143Z" fill="#0C9D61"/>
<g filter="url(#filter0_f_12392_508)">
<path d="M25.2852 1.69238C20.3146 1.69238 16.2852 5.67016 16.2852 10.577V10.5903C16.2852 15.4971 20.3011 19.4616 25.2717 19.4616H25.2852C30.2557 19.4616 34.2852 15.4971 34.2852 10.5903V10.577C34.2852 5.67016 30.2692 1.69238 25.2986 1.69238H25.2852Z" fill="white"/>
</g>
</g>
<defs>
<filter id="filter0_f_12392_508" x="14.2852" y="-0.307617" width="22" height="21.7695" filterUnits="userSpaceOnUse" color-interpolation-filters="sRGB">
<feFlood flood-opacity="0" result="BackgroundImageFix"/>
<feBlend mode="normal" in="SourceGraphic" in2="BackgroundImageFix" result="shape"/>
<feGaussianBlur stdDeviation="1" result="effect1_foregroundBlur_12392_508"/>
</filter>
<clipPath id="clip0_12392_508">
<rect width="36" height="22" fill="white"/>
</clipPath>
</defs>
</svg>
