<svg width="430" height="173" viewBox="0 0 430 173" fill="none" xmlns="http://www.w3.org/2000/svg">
<path d="M-0.474609 0H429.525V172.47H-0.474609V0Z" fill="#FBFBFB"/>
<path d="M151.449 78.2086L150.927 76.5986C150.257 74.5274 149.865 73.196 149.726 72.5955L147.402 72.6825V70.855H157.428V72.23C156.305 72.2822 155.504 72.465 155.034 72.7957C154.573 73.109 154.347 73.6224 154.347 74.336C154.347 74.9887 154.477 75.7893 154.747 76.7292C155.243 78.5828 155.905 80.6453 156.74 82.934C156.871 83.343 157.036 83.8391 157.227 84.4047C157.419 84.9617 157.645 85.6144 157.897 86.3628C158.054 86.9371 158.254 87.5637 158.498 88.2512C158.75 88.9387 158.933 89.4347 159.046 89.7393C159.603 91.2275 160.012 92.411 160.299 93.2899H160.369C160.926 91.4189 161.492 89.6088 162.075 87.8509C163.067 84.6484 164.155 81.2805 165.338 77.7299C166.574 74.0053 167.314 71.6905 167.566 70.7854H168.889C169.219 71.908 169.776 73.6833 170.577 76.0939C171.378 78.5045 171.952 80.245 172.317 81.3154C173.135 83.6824 173.701 85.3707 174.006 86.3541C174.223 87.0938 174.58 88.2077 175.076 89.6871C175.633 91.2797 176.077 92.6546 176.399 93.786H176.529C177.191 91.6365 177.756 89.8612 178.218 88.4514C179.636 84.4656 180.776 81.0195 181.646 78.1128C181.942 77.0947 182.23 76.2418 182.482 75.5543C182.995 74.1532 183.43 73.1525 183.77 72.5433L180.454 72.6738V70.8463H188.852V72.2213C187.86 72.3344 187.103 72.5346 186.589 72.8392C186.085 73.1438 185.632 73.6833 185.232 74.4752C184.832 75.2672 184.327 76.5551 183.726 78.3391L181.62 84.6136C179.419 91.3145 177.643 96.5011 176.286 100.191H175.05L167.322 78.0867L160.056 100.191H158.855L151.458 78.2173L151.449 78.2086Z" fill="#FF741F"/>
<path d="M189.974 97.8586L190.462 97.1537C195.283 90.5138 200.008 83.4996 204.638 76.1025C205.674 74.4664 206.553 73.2307 207.266 72.3866L196.754 72.5519C195.091 72.6041 193.873 73.1785 193.073 74.2924C192.272 75.3976 191.872 77.0946 191.872 79.4094H190.453L190.705 70.8549H211.191V72.3082L196.362 94.8302C195.344 96.3444 194.413 97.4844 193.551 98.259L203.594 98.0936C205.517 98.0588 207.057 97.4757 208.232 96.3531C209.398 95.2305 209.99 93.5509 209.99 91.3144H211.382L211.148 99.7819H189.957V97.876L189.974 97.8586Z" fill="#FF741F"/>
<path d="M215.648 98.4069C216.614 98.3808 217.302 98.1632 217.719 97.7542C218.128 97.3365 218.355 96.8405 218.407 96.2835C218.468 95.7178 218.494 94.7345 218.494 93.3247V75.4846C218.494 74.3272 218.537 73.3351 218.625 72.5084L215.648 72.6737V70.8463H235.516L235.716 78.078H234.359C234.359 75.8241 233.871 74.2837 232.888 73.457C231.904 72.639 230.538 72.2473 228.789 72.2995L225.238 72.3866C224.246 72.4127 223.524 72.5954 223.08 72.9522C222.645 73.2916 222.375 73.7703 222.262 74.3881C222.149 75.006 222.097 75.9807 222.097 77.3035V83.8999L229.859 83.9521L229.572 80.4015H231.382V89.0692H230.025C230.025 88.051 229.894 87.2852 229.642 86.7456C229.398 86.1974 229.024 85.8406 228.519 85.6578C228.014 85.4751 227.301 85.388 226.396 85.388L225.108 85.4403L222.097 85.5534V95.0217C222.097 96.4489 222.053 97.528 221.966 98.2503L229.851 98.1197C231.774 98.0936 233.245 97.6063 234.254 96.649C235.281 95.7004 235.794 94.0557 235.794 91.7147H237.187L236.952 99.7645H215.631V98.4069H215.648Z" fill="#FF741F"/>
<path d="M241.32 98.4069C242.286 98.3808 242.974 98.1632 243.391 97.7542C243.801 97.3365 244.027 96.8405 244.079 96.2835C244.14 95.7178 244.166 94.7345 244.166 93.3247V75.4846C244.166 74.3272 244.21 73.3351 244.297 72.5084L241.32 72.6737V70.8463H250.623V72.2212C249.657 72.2473 248.961 72.4649 248.552 72.8739C248.143 73.2829 247.908 73.779 247.847 74.3446C247.795 74.919 247.778 75.9024 247.778 77.3035V94.8563C247.778 96.3183 247.734 97.4061 247.647 98.1197L250.623 97.9544V99.7645H241.32V98.4069Z" fill="#FF741F"/>
<path d="M259.829 76.3375H259.777L259.908 94.0122C259.908 95.8658 259.882 97.2321 259.838 98.111L262.814 97.9457V99.7558H255.252V98.3982C256.348 98.3982 257.071 98.0849 257.428 97.4583C257.793 96.8231 257.976 96.0398 257.976 95.1348L258.011 72.5084L255.252 72.6737V70.8463H260.169L277.756 94.3951H277.809L277.844 75.4846C277.844 74.3272 277.887 73.3351 277.974 72.5084L274.998 72.6737V70.8463H282.595V72.2212C281.768 72.2473 281.15 72.404 280.741 72.6912C280.341 72.9783 280.089 73.3786 279.976 73.866C279.862 74.362 279.81 75.0234 279.81 75.8414V77.2947L279.741 100.408H277.748L259.838 76.3288L259.829 76.3375Z" fill="#FF741F"/>
<path d="M186.922 124.566C186.269 124.566 185.747 124.366 185.346 123.949C184.946 123.531 184.746 123.017 184.746 122.408C184.746 121.799 184.937 121.338 185.329 120.92C185.729 120.502 186.26 120.285 186.922 120.285C187.583 120.285 188.105 120.494 188.497 120.92C188.897 121.329 189.097 121.825 189.097 122.408C189.097 122.991 188.906 123.531 188.514 123.949C188.122 124.358 187.592 124.566 186.922 124.566ZM198.67 142.476H205.815V145.922H198.6C198.426 147.506 198 148.881 197.312 150.056C196.633 151.222 195.754 152.205 194.667 152.997C193.588 153.781 192.369 154.364 191.003 154.755C189.637 155.138 188.192 155.338 186.669 155.338H186.652C184.911 155.321 183.319 155.008 181.883 154.398C180.438 153.789 179.194 152.954 178.132 151.875C177.079 150.813 176.261 149.569 175.687 148.159C175.104 146.758 174.816 145.252 174.816 143.642C174.816 142.189 175.095 140.736 175.669 139.256C176.252 137.785 177.123 136.445 178.297 135.227L180.76 137.69C180.073 138.438 179.524 139.317 179.124 140.318C178.733 141.327 178.541 142.424 178.541 143.616C178.541 144.808 178.741 145.861 179.142 146.862C179.542 147.863 180.099 148.742 180.83 149.49C181.552 150.239 182.414 150.822 183.406 151.248C184.398 151.666 185.486 151.883 186.669 151.883C187.731 151.883 188.749 151.736 189.715 151.448C190.681 151.161 191.551 150.717 192.326 150.126C193.109 149.534 193.718 148.768 194.153 147.837C194.597 146.914 194.823 145.818 194.823 144.521V127.769H198.67V142.476Z" fill="#FF741F"/>
<path d="M216.267 145.922H205.389V142.476H212.464V124.018H216.275V145.922H216.267ZM209.975 154.677C209.305 154.677 208.783 154.468 208.4 154.042C208.008 153.615 207.817 153.119 207.817 152.536C207.817 151.953 207.999 151.431 208.382 151.013C208.765 150.604 209.296 150.395 209.975 150.395C210.654 150.395 211.158 150.595 211.55 151.013C211.95 151.431 212.15 151.944 212.15 152.536C212.15 153.128 211.959 153.615 211.567 154.042C211.176 154.459 210.645 154.677 209.975 154.677ZM215.379 154.677C214.726 154.677 214.204 154.468 213.804 154.042C213.412 153.615 213.221 153.119 213.221 152.536C213.221 151.953 213.412 151.431 213.804 151.013C214.204 150.604 214.726 150.395 215.379 150.395C216.032 150.395 216.589 150.595 216.972 151.013C217.372 151.431 217.572 151.944 217.572 152.536C217.572 153.128 217.372 153.615 216.972 154.042C216.58 154.459 216.049 154.677 215.379 154.677Z" fill="#FF741F"/>
<path d="M227.482 120.755C226.812 120.755 226.281 120.555 225.889 120.137C225.498 119.719 225.306 119.206 225.306 118.614C225.306 118.022 225.498 117.535 225.889 117.109C226.272 116.673 226.803 116.456 227.482 116.456C228.16 116.456 228.657 116.673 229.057 117.109C229.457 117.535 229.657 118.031 229.657 118.614C229.657 119.197 229.466 119.719 229.074 120.137C228.683 120.546 228.152 120.755 227.482 120.755ZM222.191 153.467H219.85V149.839H221.773C222.591 149.839 223.278 149.647 223.844 149.273C224.401 148.899 224.827 148.385 225.115 147.75C225.402 147.106 225.55 146.375 225.55 145.557V123.966H229.248V145.835C229.248 148.255 228.657 150.126 227.49 151.457C226.333 152.797 224.566 153.467 222.199 153.467H222.191Z" fill="#FF741F"/>
<path d="M254.912 124.018V145.887C254.912 147.88 254.494 149.525 253.659 150.822C252.823 152.127 251.631 153.093 250.091 153.72C248.551 154.355 246.697 154.677 244.521 154.677C243.503 154.677 242.563 154.59 241.693 154.407C240.823 154.233 239.97 153.981 239.134 153.624C238.299 153.285 237.42 152.884 236.506 152.423L236.889 149.107C237.986 149.734 239.213 150.239 240.553 150.63C241.902 151.031 243.225 151.231 244.521 151.231C246.627 151.231 248.237 150.822 249.36 149.995C250.482 149.168 251.048 147.811 251.066 145.914H245.574C244.025 145.914 242.581 145.626 241.24 145.043C239.9 144.46 238.717 143.66 237.707 142.633C236.698 141.597 235.915 140.387 235.349 139.004C234.775 137.629 234.496 136.149 234.496 134.566C234.496 133.095 234.775 131.711 235.349 130.432C235.915 129.153 236.698 128.03 237.707 127.081C238.708 126.115 239.874 125.367 241.206 124.836C242.546 124.288 243.99 124.018 245.54 124.018H254.912ZM245.54 142.476H251.066V127.282H245.513C244.504 127.282 243.564 127.473 242.685 127.865C241.815 128.239 241.04 128.77 240.379 129.44C239.726 130.11 239.213 130.884 238.839 131.781C238.473 132.668 238.29 133.626 238.29 134.661C238.29 135.784 238.473 136.819 238.856 137.759C239.23 138.699 239.744 139.535 240.396 140.24C241.049 140.944 241.815 141.493 242.702 141.893C243.581 142.285 244.521 142.476 245.531 142.476H245.54Z" fill="#FF741F"/>
</svg>
