<svg width="43" height="42" viewBox="0 0 43 42" fill="none" xmlns="http://www.w3.org/2000/svg">
<path d="M41.2084 30.549C41.2084 34.5778 38.7864 38.0977 35.2853 39.6386C28.7921 42.5271 21.3281 37.7773 21.3281 30.549C21.3281 23.9049 27.7366 19.2871 33.6314 20.8986C37.9429 21.9353 41.2084 25.851 41.2084 30.549Z" fill="#FF741F"/>
<path d="M29.526 30.5867C25.059 33.4187 6.31428 39.4172 6.38496 24.0652C6.41324 19.2353 8.51483 16.6295 12.9395 9.13728C13.3164 8.50586 13.9667 8.03937 14.7254 7.86031C17.1851 7.27601 18.2688 6.79066 19.4987 7.55873L27.104 12.2897C30.0915 14.1462 32.3533 16.8463 33.3852 20.0411C34.4737 23.4102 34.3653 27.5474 29.526 30.5867Z" fill="#0C9D61"/>
<path d="M5.91524 24.0604C5.94352 19.0656 8.16291 16.2996 12.5357 8.89687C13.3368 7.55392 14.6138 7.40785 15.7164 7.12984C17.4834 6.68219 18.5531 6.40889 19.7499 7.15811L27.3552 11.889C34.3951 16.2666 37.7595 25.9688 29.7773 30.9871C24.184 34.5306 5.84456 39.4029 5.91524 24.0651V24.0604ZM18.1148 7.63403C17.3656 7.63403 16.3431 7.96388 14.8352 8.322C14.1991 8.47278 13.6572 8.85917 13.3462 9.38221C8.92627 16.8603 6.88593 19.3766 6.85766 24.0698C6.83881 28.141 8.18647 30.9589 10.8629 32.4385C16.4373 35.5249 26.295 32.0803 29.2731 30.1908C33.0757 27.8018 34.3056 24.4373 32.9343 20.187C31.9637 17.1901 29.8055 14.5278 26.851 12.6901C18.6661 7.60105 18.9677 7.63403 18.1101 7.63403H18.1148Z" fill="black"/>
<path d="M12.9643 9.22667L8.87891 5.27794L12.1585 5.8057L14.114 2.74755L17.8224 4.22243L21.3235 1.61194L19.5235 7.65755L12.9643 9.22667Z" fill="#0C9D61"/>
<path d="M8.55267 5.6172C8.22283 5.29678 8.50084 4.73604 8.9532 4.81143L11.9265 5.28736L13.7171 2.49309C13.8396 2.3046 14.08 2.2245 14.2873 2.30932L17.7507 3.68996L21.0444 1.23496C21.4072 0.966372 21.9067 1.31507 21.7795 1.74858L19.9795 7.78947C19.8711 8.16173 20.036 8.01565 13.0763 9.68373C12.7182 9.76855 12.9114 9.82981 8.55267 5.6172ZM10.282 5.98003L13.1046 8.70833L19.1502 7.26172L20.4695 2.84178L18.1041 4.6041C17.8119 4.82086 17.9439 4.78316 14.3014 3.33184C12.4637 6.2015 12.4967 6.34286 12.082 6.27218L10.282 5.98474V5.98003Z" fill="black"/>
<path d="M28.8576 3.11511L26.8739 4.64183C24.3246 6.60677 23.1325 9.91937 23.9995 13.0152C25.1257 17.0488 29.6681 19.5933 34.0221 18.2126L35.2661 17.8168L28.8576 3.11511Z" fill="black"/>
<path d="M35.5488 17.7217C39.4352 16.3241 41.3627 11.7904 39.8541 7.59553C38.3455 3.40062 33.9721 1.13298 30.0857 2.53063C26.1993 3.92827 24.2718 8.46193 25.7804 12.6568C27.289 16.8518 31.6625 19.1194 35.5488 17.7217Z" fill="#FF741F"/>
<path d="M25.3376 12.8173C23.7449 8.38319 25.8041 3.57215 29.9271 2.08313C36.6136 -0.315318 43.0079 7.19575 40.1618 13.8916C37.2733 20.6817 27.8962 19.9372 25.3376 12.8173ZM32.4481 2.59204C27.6371 2.59204 24.4752 7.63868 26.2234 12.5016C28.5135 18.8723 36.7691 19.4707 39.2948 13.5288C41.4152 8.54812 37.7398 2.59204 32.4481 2.59204Z" fill="black"/>
<path d="M27.3692 12.0916C25.8943 7.98739 28.7262 3.75594 32.8446 3.96798C37.6556 4.21301 40.3321 10.1078 37.5331 14.0047C34.8237 17.7603 29.0372 16.7236 27.3692 12.0916ZM32.543 4.90097C29.2587 4.90097 27.0299 8.36907 28.255 11.7712C29.7064 15.8 34.5645 16.5116 36.7651 13.4534C39.1776 10.0937 36.7651 4.90097 32.543 4.90097Z" fill="white"/>
<path d="M35.7087 9.9287C34.837 8.07214 32.5893 9.45749 31.9391 9.24074C31.5574 9.11351 31.2935 8.5245 32.1747 8.10984C33.0417 7.7046 33.2867 8.45853 33.7485 8.02031C34.559 7.24752 33.5317 6.49359 32.1275 6.93181L32.0239 6.76689C31.6893 6.22971 30.86 6.64438 31.0909 7.23339L31.1568 7.40773C30.2851 8.03915 30.0966 9.0334 30.5019 9.85331C31.5055 11.8889 34.0359 9.78263 34.4977 10.7769C34.6956 11.201 34.3187 11.5732 33.8899 11.7758C32.759 12.3083 32.6035 11.3706 32.0427 11.8041C31.0862 12.5486 32.2029 13.5429 33.8333 13.0293L34.0312 13.4863C34.1584 13.7785 35.0255 13.5711 34.8323 13.0387L34.6862 12.6382C35.8595 11.9361 36.1375 10.8334 35.7134 9.9287H35.7087Z" fill="white"/>
<path d="M6.62009 40.7136L21.6203 37.1898C22.7097 36.9339 23.3853 35.8433 23.1294 34.7539L19.4677 19.1666C19.2118 18.0772 18.1212 17.4015 17.0318 17.6575L2.03162 21.1812C0.942238 21.4372 0.266578 22.5277 0.522492 23.6171L4.18421 39.2045C4.44013 40.2939 5.5307 40.9695 6.62009 40.7136Z" fill="black"/>
<path d="M3.72832 39.3134L0.0670283 23.7258C-0.248682 22.3829 0.580646 21.0399 1.9283 20.7242L16.9269 17.1996C18.2698 16.8886 19.6128 17.7179 19.9285 19.0609L23.5898 34.6484C23.9055 35.9914 23.0714 37.3343 21.7285 37.65L6.72992 41.1747C5.38226 41.4904 4.04403 40.6516 3.72832 39.3134ZM17.4923 18.0713C17.2143 18.0713 17.4641 18.0336 2.14035 21.6384C1.30159 21.8363 0.783266 22.6703 0.981173 23.5091L4.64246 39.0966C4.84037 39.9307 5.67912 40.4537 6.51316 40.2558C22.5861 36.4767 21.9924 36.816 22.4777 36.0385C22.9631 35.2563 22.9254 35.9443 19.0049 19.2729C18.8353 18.5567 18.1944 18.076 17.4923 18.076V18.0713Z" fill="black"/>
<path d="M17.6299 17.1647L2.62973 20.6885C1.54035 20.9444 0.864685 22.035 1.1206 23.1244L4.78232 38.7117C5.03823 39.8011 6.12881 40.4767 7.21819 40.2208L22.2184 36.697C23.3078 36.4411 23.9834 35.3506 23.7275 34.2612L20.0658 18.6738C19.8099 17.5844 18.7193 16.9088 17.6299 17.1647Z" fill="#FF741F"/>
<path d="M4.32573 38.8234L0.664436 23.2358C0.348726 21.8929 1.18277 20.5499 2.52571 20.2342L17.5243 16.7096C18.8625 16.3986 20.2102 17.2279 20.5259 18.5709L24.1872 34.1584C24.5029 35.5014 23.6688 36.8443 22.3259 37.16L7.32733 40.6847C5.98438 41.0004 4.64144 40.1616 4.32573 38.8234ZM18.0944 17.5813C17.8117 17.5813 18.085 17.5436 2.73775 21.1484C1.899 21.3463 1.38067 22.1803 1.57858 23.0191L5.23987 38.6067C5.43778 39.4407 6.27653 39.9637 7.11057 39.7658L22.1091 36.2412C22.9432 36.0433 23.4615 35.2045 23.2683 34.3705L19.607 18.7829C19.4374 18.0572 18.7871 17.5813 18.0944 17.5813Z" fill="#FBFBFB"/>
<path d="M17.0535 23.7494C18.076 23.5091 18.7216 22.5384 18.4954 21.5818C18.2692 20.6253 17.2608 20.0457 16.2383 20.286L5.70206 22.7598C3.98215 23.1651 3.66644 25.3751 5.24499 26.1007H5.2497C6.11673 26.4918 5.78688 26.3882 17.0535 23.7447V23.7494Z" fill="white"/>
<path d="M7.12054 31.8682C7.99235 31.8682 8.69909 31.1614 8.69909 30.2896C8.69909 29.4178 7.99235 28.7111 7.12054 28.7111C6.24873 28.7111 5.54199 29.4178 5.54199 30.2896C5.54199 31.1614 6.24873 31.8682 7.12054 31.8682Z" fill="black"/>
<path d="M12.7231 30.5536C13.5949 30.5536 14.3016 29.8468 14.3016 28.975C14.3016 28.1032 13.5949 27.3965 12.7231 27.3965C11.8513 27.3965 11.1445 28.1032 11.1445 28.975C11.1445 29.8468 11.8513 30.5536 12.7231 30.5536Z" fill="black"/>
<path d="M8.33245 37.0233C9.20426 37.0233 9.911 36.3166 9.911 35.4448C9.911 34.573 9.20426 33.8662 8.33245 33.8662C7.46065 33.8662 6.75391 34.573 6.75391 35.4448C6.75391 36.3166 7.46065 37.0233 8.33245 37.0233Z" fill="black"/>
<path d="M13.934 35.7039C14.8058 35.7039 15.5126 34.9971 15.5126 34.1253C15.5126 33.2535 14.8058 32.5468 13.934 32.5468C13.0622 32.5468 12.3555 33.2535 12.3555 34.1253C12.3555 34.9971 13.0622 35.7039 13.934 35.7039Z" fill="black"/>
<path d="M21.0077 32.2499L19.891 27.5001C19.792 26.5012 18.859 25.9074 17.9685 26.1195C17.0779 26.3315 16.5972 27.1656 16.7951 28.0137L18.0627 33.4091H18.0863C18.7601 35.0583 21.2386 34.4787 21.1067 32.6928L21.0973 32.6551C21.0784 32.4431 21.0784 32.4478 21.003 32.2499H21.0077Z" fill="black"/>
<path d="M2.00866 15.5126C1.46677 15.5126 1.35839 14.7398 1.87672 14.589L4.82649 13.7362C5.42964 13.5665 5.68409 14.4712 5.08566 14.6409C2.01337 15.5267 2.11233 15.5079 2.00866 15.5079V15.5126ZM5.69351 12.9634C5.52859 12.9634 5.66053 12.9964 2.67307 11.6016C2.10762 11.3377 2.50814 10.4848 3.07359 10.7487L5.89142 12.0681C6.34378 12.2801 6.193 12.9681 5.69351 12.9681V12.9634ZM6.82913 11.2576C6.49928 11.2576 6.55583 11.2199 4.96314 8.91569C4.60973 8.40207 5.38252 7.86961 5.74063 8.37851L7.22023 10.5178C7.43699 10.8335 7.20609 11.2576 6.83384 11.2576H6.82913Z" fill="black"/>
</svg>
