<svg width="60" height="60" viewBox="0 0 60 60" fill="none" xmlns="http://www.w3.org/2000/svg">
<rect width="60" height="60" rx="10" fill="white"/>
<path d="M41.7996 41.739L38.4169 19.7296H14.1962L10.8135 41.739C10.4638 44.1514 12.3431 46.3104 14.773 46.3104H37.84C40.2787 46.3104 42.1492 44.1514 41.7996 41.739Z" fill="#EBEBEB"/>
<path d="M33.1797 33.1817V46.3104C33.1797 47.9274 34.4908 49.2386 36.1079 49.2386H46.3084C47.9167 49.2298 49.2278 47.9187 49.2278 46.3016V33.1817H33.1797Z" fill="#FF741F"/>
<path d="M41.2067 43.7144C38.8292 43.7144 36.9062 41.7826 36.9062 39.4139V38.0066C36.9062 37.2811 37.4919 36.6955 38.2174 36.6955C38.9429 36.6955 39.5285 37.2811 39.5285 38.0066V39.4139C39.5285 40.3404 40.2802 41.0921 41.2067 41.0921C42.1333 41.0921 42.885 40.3404 42.885 39.4139V38.0066C42.885 37.2811 43.4706 36.6955 44.1961 36.6955C44.9216 36.6955 45.5072 37.2811 45.5072 38.0066V39.4139C45.5072 41.7826 43.5755 43.7144 41.2067 43.7144Z" fill="#2D4356"/>
<path d="M32.7788 23.8728C32.0533 23.8728 31.4676 23.2871 31.4676 22.5616V17.2385C31.4676 14.3977 29.1513 12.0814 26.3106 12.0814C23.4698 12.0814 21.1535 14.3977 21.1535 17.2385V22.5616C21.1535 23.2871 20.5679 23.8728 19.8424 23.8728C19.1169 23.8728 18.5312 23.2871 18.5312 22.5616V17.2385C18.5312 12.9467 22.0188 9.45917 26.3106 9.45917C30.6023 9.45917 34.0899 12.9467 34.0899 17.2385V22.5616C34.0899 23.2871 33.5042 23.8728 32.7788 23.8728Z" fill="#2D4356"/>
<path d="M39.6938 29.2483C39.0558 29.2483 38.4964 28.7851 38.4002 28.1382L37.3076 21.032H32.7799C32.0544 21.032 31.4688 20.4463 31.4688 19.7208C31.4688 18.9954 32.0544 18.4097 32.7799 18.4097H38.4264C39.0732 18.4097 39.6239 18.8817 39.7201 19.5198L40.9787 27.7362C41.0924 28.4529 40.5941 29.1172 39.8861 29.2308C39.825 29.2483 39.755 29.2483 39.6938 29.2483Z" fill="#2D4356"/>
<path d="M27.9363 47.6215H14.7727C13.2343 47.6215 11.7659 46.9572 10.7607 45.7859C9.74674 44.6234 9.29222 43.0763 9.51074 41.5466L12.8934 19.5111C12.9896 18.873 13.5402 18.401 14.1871 18.401H27.5255C28.251 18.401 28.8367 18.9866 28.8367 19.7121C28.8367 20.4376 28.251 21.0232 27.5255 21.0232H15.3234L12.1068 41.94C12.0019 42.7004 12.2291 43.4871 12.7448 44.0727C13.2605 44.6671 13.9948 44.9993 14.7814 44.9993H27.9451C28.6706 44.9993 29.2562 45.5849 29.2562 46.3104C29.2562 47.0359 28.6618 47.6215 27.9363 47.6215Z" fill="#2D4356"/>
<path d="M46.3011 50.541H36.1006C33.7668 50.541 31.8613 48.6442 31.8613 46.3017V33.1817C31.8613 32.4562 32.447 31.8706 33.1724 31.8706H49.2293C49.9548 31.8706 50.5404 32.4562 50.5404 33.1817V46.3104C50.5404 48.6442 48.6437 50.541 46.3011 50.541ZM34.4923 34.4928V46.3104C34.4923 47.202 35.2178 47.9275 36.1094 47.9275H46.3099C47.2014 47.9275 47.9269 47.202 47.9269 46.3104V34.4928H34.4923Z" fill="#2D4356"/>
</svg>
