<svg width="47" height="47" viewBox="0 0 47 47" fill="none" xmlns="http://www.w3.org/2000/svg">
<path d="M37.0019 36.93L33.1319 11.75H5.42194L1.55194 36.93C1.15194 39.69 3.30193 42.16 6.08193 42.16H32.4719C35.2619 42.16 37.4019 39.69 37.0019 36.93Z" fill="#EBEBEB"/>
<path d="M27.1406 27.1399V42.1599C27.1406 44.0099 28.6406 45.5099 30.4906 45.5099H42.1606C44.0006 45.4999 45.5006 43.9999 45.5006 42.1499V27.1399H27.1406Z" fill="#4CADFC"/>
<path d="M36.3223 39.1899C33.6023 39.1899 31.4023 36.9799 31.4023 34.2699V32.6599C31.4023 31.8299 32.0723 31.1599 32.9023 31.1599C33.7323 31.1599 34.4023 31.8299 34.4023 32.6599V34.2699C34.4023 35.3299 35.2623 36.1899 36.3223 36.1899C37.3823 36.1899 38.2423 35.3299 38.2423 34.2699V32.6599C38.2423 31.8299 38.9123 31.1599 39.7423 31.1599C40.5723 31.1599 41.2423 31.8299 41.2423 32.6599V34.2699C41.2423 36.9799 39.0323 39.1899 36.3223 39.1899Z" fill="#2D4356"/>
<path d="M26.6809 16.49C25.8509 16.49 25.1809 15.82 25.1809 14.99V8.9C25.1809 5.65 22.5309 3 19.2809 3C16.0309 3 13.3809 5.65 13.3809 8.9V14.99C13.3809 15.82 12.7109 16.49 11.8809 16.49C11.0509 16.49 10.3809 15.82 10.3809 14.99V8.9C10.3809 3.99 14.3709 0 19.2809 0C24.1909 0 28.1809 3.99 28.1809 8.9V14.99C28.1809 15.82 27.5109 16.49 26.6809 16.49Z" fill="#2D4356"/>
<path d="M34.5916 22.64C33.8616 22.64 33.2216 22.11 33.1116 21.37L31.8616 13.24H26.6816C25.8516 13.24 25.1816 12.57 25.1816 11.74C25.1816 10.91 25.8516 10.24 26.6816 10.24H33.1416C33.8816 10.24 34.5116 10.78 34.6216 11.51L36.0616 20.91C36.1916 21.73 35.6216 22.49 34.8116 22.62C34.7416 22.64 34.6616 22.64 34.5916 22.64Z" fill="#2D4356"/>
<path d="M21.1414 43.66H6.08144C4.32144 43.66 2.64144 42.9 1.49144 41.56C0.331445 40.23 -0.188555 38.46 0.0614445 36.71L3.93144 11.5C4.04144 10.77 4.67144 10.23 5.41144 10.23H20.6714C21.5014 10.23 22.1714 10.9 22.1714 11.73C22.1714 12.56 21.5014 13.23 20.6714 13.23H6.71144L3.03144 37.16C2.91144 38.03 3.17144 38.93 3.76144 39.6C4.35144 40.28 5.19144 40.66 6.09144 40.66H21.1514C21.9814 40.66 22.6514 41.33 22.6514 42.16C22.6514 42.99 21.9714 43.66 21.1414 43.66Z" fill="#2D4356"/>
<path d="M42.1509 46.9999H30.4809C27.8109 46.9999 25.6309 44.8299 25.6309 42.1499V27.1399C25.6309 26.3099 26.3009 25.6399 27.1309 25.6399H45.5009C46.3309 25.6399 47.0009 26.3099 47.0009 27.1399V42.1599C47.0009 44.8299 44.8309 46.9999 42.1509 46.9999ZM28.6409 28.6399V42.1599C28.6409 43.1799 29.4709 44.0099 30.4909 44.0099H42.1609C43.1809 44.0099 44.0109 43.1799 44.0109 42.1599V28.6399H28.6409Z" fill="#2D4356"/>
</svg>
