<svg width="35" height="55" viewBox="0 0 35 55" fill="none" xmlns="http://www.w3.org/2000/svg">
<path d="M28.2425 19.3003L25.7033 53.8702H4.81845L2.2793 19.3003H28.2425Z" fill="#EC2D30"/>
<path d="M25.7037 54.9695H4.81886C4.24727 54.9695 3.76363 54.5298 3.71966 53.9472L1.1805 19.3773C1.15852 19.0695 1.26844 18.7728 1.47729 18.5529C1.68613 18.3331 1.97193 18.2012 2.2797 18.2012H28.2429C28.3936 18.2019 28.5426 18.2335 28.6807 18.2938C28.8188 18.3542 28.9431 18.4421 29.046 18.5523C29.1489 18.6624 29.2283 18.7924 29.2792 18.9342C29.3301 19.0761 29.3515 19.2269 29.3421 19.3773L26.8029 53.9472C26.7589 54.5298 26.2863 54.9695 25.7037 54.9695ZM5.84112 52.7711H24.6814L27.0557 20.3996H3.46684L5.84112 52.7711Z" fill="black"/>
<path d="M15.2614 46.1214C14.6569 46.1214 14.1622 45.6268 14.1622 45.0222V28.0286C14.1622 27.424 14.6569 26.9294 15.2614 26.9294C15.866 26.9294 16.3606 27.424 16.3606 28.0286V45.0222C16.3606 45.6378 15.866 46.1214 15.2614 46.1214ZM20.4826 46.1214H20.3947C20.251 46.1107 20.1109 46.0718 19.9823 46.0069C19.8537 45.9419 19.7391 45.8523 19.6452 45.7431C19.5513 45.6338 19.4798 45.5071 19.4349 45.3702C19.39 45.2333 19.3725 45.0889 19.3834 44.9453L20.6475 27.9516C20.6915 27.3471 21.2081 26.8854 21.8237 26.9404C22.4282 26.9843 22.8789 27.512 22.8349 28.1165L21.5708 45.1102C21.5379 45.6818 21.0542 46.1214 20.4826 46.1214ZM10.0402 46.1214C9.46863 46.1214 8.98498 45.6818 8.94102 45.0992L7.67693 28.1055C7.65507 27.8155 7.74933 27.5286 7.93898 27.308C8.12863 27.0874 8.39813 26.9512 8.6882 26.9294C8.97827 26.9075 9.26514 27.0018 9.48571 27.1914C9.70628 27.3811 9.84248 27.6506 9.86435 27.9406L11.1284 44.9343C11.1394 45.078 11.1219 45.2224 11.077 45.3592C11.0321 45.4961 10.9606 45.6228 10.8667 45.7321C10.7727 45.8413 10.6582 45.931 10.5296 45.9959C10.401 46.0608 10.2608 46.0997 10.1172 46.1104C10.0952 46.1214 10.0622 46.1214 10.0402 46.1214Z" fill="black"/>
<path d="M3.53263 2.42822L33.6684 14.2809L31.2303 20.4793L1.0957 8.62662L3.53263 2.42822Z" fill="#EC2D30"/>
<path d="M31.2325 21.5763C31.1006 21.5763 30.9577 21.5543 30.8258 21.4994L0.696668 9.64999C0.421867 9.54007 0.21302 9.33122 0.0921074 9.06741C-0.0288048 8.8036 -0.0288051 8.49582 0.0811151 8.22102L2.52134 2.02152C2.74118 1.46093 3.37872 1.17514 3.95031 1.40597L34.0794 13.2554C34.64 13.4752 34.9258 14.1127 34.695 14.6843L32.2548 20.8838C32.1448 21.1586 31.936 21.3675 31.6722 21.4884C31.5293 21.5434 31.3754 21.5763 31.2325 21.5763ZM2.52134 8.00118L30.606 19.0482L32.2438 14.8932L4.15915 3.8462L2.52134 8.00118Z" fill="black"/>
<path d="M25.3523 12.1005C25.2204 12.1005 25.0775 12.0785 24.9456 12.0235L11.4584 6.71437C11.1836 6.60445 10.9747 6.3956 10.8538 6.13179C10.7329 5.86798 10.7329 5.5602 10.8428 5.2854L12.2058 1.82292C12.3419 1.47263 12.5458 1.15263 12.8057 0.881219C13.0656 0.609812 13.3765 0.392329 13.7206 0.241222C14.0647 0.0901153 14.4352 0.00835012 14.8109 0.000606807C15.1866 -0.0071365 15.5601 0.0592942 15.9102 0.196097L26.1217 4.20818C26.472 4.34428 26.792 4.54812 27.0634 4.80804C27.3348 5.06796 27.5523 5.37886 27.7034 5.72293C27.8545 6.06701 27.9363 6.43751 27.944 6.81322C27.9518 7.18893 27.8854 7.56249 27.7486 7.9125L26.3855 11.375C26.1987 11.8366 25.792 12.1005 25.3523 12.1005ZM13.2831 5.07655L24.7258 9.58328L25.6821 7.14305C25.748 6.97817 25.748 6.79131 25.6711 6.63742C25.6379 6.55706 25.5886 6.48438 25.5262 6.42387C25.4638 6.36336 25.3897 6.31632 25.3083 6.28568L15.0967 2.27359C15.0164 2.23992 14.9299 2.22349 14.8428 2.22539C14.7557 2.22728 14.6699 2.24745 14.5911 2.28458C14.4262 2.35053 14.3053 2.48244 14.2394 2.64732L13.2831 5.07655Z" fill="black"/>
</svg>
