<svg width="181" height="350" viewBox="0 0 181 350" fill="none" xmlns="http://www.w3.org/2000/svg">
<path d="M67.1211 0H115.624V210.885H67.1211V0Z" fill="white"/>
<path d="M123.647 110.565H172.15V204.548H123.647V110.565Z" fill="white"/>
<path d="M10.4912 4.10492H58.9942V98.0875H10.4912V4.10492Z" fill="white"/>
<path d="M5.4073 246.364L4.7096 244.213C3.81419 241.445 3.2909 239.666 3.10484 238.864L0 238.98V236.538H13.3962V238.375C11.8961 238.445 10.8263 238.689 10.1983 239.131C9.58199 239.55 9.27964 240.236 9.27964 241.189C9.27964 242.062 9.45408 243.131 9.81456 244.387C10.4774 246.864 11.3612 249.62 12.4775 252.678C12.6519 253.225 12.8729 253.888 13.1287 254.644C13.3845 255.388 13.6869 256.26 14.0241 257.26C14.2334 258.028 14.5009 258.865 14.8265 259.784C15.1637 260.702 15.4079 261.365 15.5591 261.772C16.3033 263.761 16.8499 265.342 17.2336 266.517H17.3266C18.0709 264.016 18.8267 261.598 19.6059 259.249C20.9315 254.969 22.3851 250.469 23.9666 245.725C25.6179 240.748 26.6063 237.654 26.9435 236.445H28.7111C29.153 237.945 29.8972 240.317 30.967 243.538C32.0369 246.76 32.8044 249.085 33.2928 250.516C34.3859 253.679 35.1417 255.935 35.5487 257.249C35.8394 258.237 36.3162 259.725 36.979 261.702C37.7233 263.83 38.3163 265.668 38.7466 267.179H38.921C39.8048 264.307 40.5607 261.935 41.177 260.051C43.0724 254.725 44.5958 250.12 45.7587 246.236C46.154 244.876 46.5378 243.736 46.875 242.817C47.5611 240.945 48.1425 239.608 48.596 238.794L44.1655 238.968V236.526H55.3872V238.364C54.0615 238.515 53.0498 238.782 52.3637 239.189C51.6892 239.596 51.0846 240.317 50.5496 241.375C50.0147 242.434 49.3403 244.155 48.5379 246.539L45.7238 254.923C42.7817 263.877 40.4095 270.808 38.5954 275.738H36.9442L26.6179 246.201L16.908 275.738H15.3033L5.41894 246.376L5.4073 246.364Z" fill="white"/>
<path d="M56.8875 272.622L57.5387 271.68C63.981 262.807 70.2953 253.434 76.4818 243.55C77.8656 241.364 79.04 239.713 79.9936 238.585L65.9462 238.805C63.7252 238.875 62.0971 239.643 61.0273 241.131C59.9575 242.608 59.4226 244.876 59.4226 247.969H57.5271L57.8643 236.538H85.2381V238.48L65.4229 268.575C64.0624 270.598 62.8181 272.122 61.6669 273.156L75.0863 272.936C77.6562 272.889 79.7145 272.11 81.2844 270.61C82.8426 269.11 83.6334 266.865 83.6334 263.877H85.4939L85.18 275.191H56.8643V272.645L56.8875 272.622Z" fill="white"/>
<path d="M91.1922 273.354C92.483 273.319 93.4017 273.029 93.9598 272.482C94.5064 271.924 94.8087 271.261 94.8785 270.517C94.9599 269.761 94.9948 268.447 94.9948 266.563V242.724C94.9948 241.178 95.0529 239.852 95.1692 238.747L91.1922 238.968V236.526H117.74L118.008 246.19H116.194C116.194 243.178 115.543 241.12 114.229 240.015C112.914 238.922 111.089 238.398 108.751 238.468L104.007 238.585C102.681 238.619 101.716 238.864 101.123 239.34C100.542 239.794 100.181 240.433 100.03 241.259C99.8788 242.085 99.809 243.387 99.809 245.155V253.969L110.182 254.039L109.798 249.295H112.217V260.877H110.403C110.403 259.516 110.228 258.493 109.891 257.772C109.565 257.039 109.065 256.562 108.391 256.318C107.716 256.074 106.763 255.958 105.554 255.958L103.833 256.028L99.809 256.179V268.831C99.809 270.738 99.7509 272.18 99.6346 273.145L110.17 272.97C112.74 272.936 114.705 272.284 116.054 271.005C117.426 269.738 118.112 267.54 118.112 264.412H119.973L119.659 275.168H91.1689V273.354H91.1922Z" fill="white"/>
<path d="M125.496 273.354C126.787 273.319 127.706 273.029 128.264 272.482C128.81 271.924 129.113 271.261 129.182 270.517C129.264 269.761 129.299 268.447 129.299 266.563V242.724C129.299 241.178 129.357 239.852 129.473 238.747L125.496 238.968V236.526H137.927V238.364C136.636 238.398 135.706 238.689 135.159 239.236C134.613 239.782 134.299 240.445 134.218 241.201C134.148 241.968 134.125 243.283 134.125 245.155V268.61C134.125 270.563 134.066 272.017 133.95 272.97L137.927 272.749V275.168H125.496V273.354Z" fill="white"/>
<path d="M150.23 243.864H150.16L150.335 267.482C150.335 269.959 150.3 271.784 150.242 272.959L154.219 272.738V275.157H144.113V273.343C145.578 273.343 146.544 272.924 147.02 272.087C147.509 271.238 147.753 270.191 147.753 268.982L147.8 238.747L144.113 238.968V236.526H150.683L174.185 267.993H174.255L174.301 242.724C174.301 241.178 174.359 239.852 174.476 238.747L170.499 238.968V236.526H180.65V238.364C179.546 238.398 178.72 238.608 178.174 238.992C177.639 239.375 177.301 239.91 177.15 240.561C176.999 241.224 176.929 242.108 176.929 243.201V245.143L176.836 276.029H174.173L150.242 243.852L150.23 243.864Z" fill="white"/>
<path d="M52.8053 308.31C51.9332 308.31 51.2354 308.042 50.7005 307.484C50.1656 306.926 49.8982 306.24 49.8982 305.426C49.8982 304.612 50.154 303.996 50.6773 303.437C51.2122 302.879 51.9215 302.589 52.8053 302.589C53.6891 302.589 54.3868 302.868 54.9101 303.437C55.445 303.984 55.7125 304.647 55.7125 305.426C55.7125 306.205 55.4566 306.926 54.9333 307.484C54.4101 308.031 53.7007 308.31 52.8053 308.31ZM68.504 332.242H78.051V336.846H68.4109C68.1783 338.963 67.6086 340.8 66.6899 342.37C65.7829 343.928 64.6084 345.242 63.1548 346.301C61.7128 347.347 60.0848 348.126 58.2591 348.65C56.4334 349.161 54.5031 349.429 52.4681 349.429H52.4448C50.1191 349.405 47.991 348.987 46.0723 348.173C44.142 347.359 42.4791 346.242 41.0604 344.8C39.6533 343.382 38.5602 341.719 37.7927 339.835C37.0136 337.963 36.6299 335.951 36.6299 333.8C36.6299 331.858 37.002 329.916 37.7695 327.939C38.5486 325.974 39.7115 324.183 41.2813 322.555L44.5722 325.846C43.6536 326.846 42.921 328.02 42.386 329.358C41.8628 330.707 41.6069 332.172 41.6069 333.765C41.6069 335.358 41.8744 336.765 42.4093 338.102C42.9442 339.44 43.6885 340.614 44.6653 341.614C45.6304 342.614 46.7817 343.393 48.1073 343.963C49.433 344.521 50.8866 344.812 52.4681 344.812C53.8868 344.812 55.2473 344.614 56.5381 344.231C57.8289 343.847 58.9917 343.254 60.0267 342.463C61.0732 341.672 61.8873 340.649 62.4687 339.405C63.0618 338.172 63.3641 336.707 63.3641 334.974V312.589H68.504V332.242Z" fill="white"/>
<path d="M92.0182 336.846H77.4824V332.242H86.9365V307.577H92.0298V336.846H92.0182ZM83.6107 348.545C82.7153 348.545 82.0176 348.266 81.5059 347.696C80.9826 347.126 80.7268 346.463 80.7268 345.684C80.7268 344.905 80.971 344.207 81.4827 343.649C81.9943 343.103 82.7037 342.824 83.6107 342.824C84.5177 342.824 85.1922 343.091 85.7155 343.649C86.2504 344.207 86.5179 344.893 86.5179 345.684C86.5179 346.475 86.262 347.126 85.7387 347.696C85.2154 348.254 84.5061 348.545 83.6107 348.545ZM90.8321 348.545C89.9599 348.545 89.2622 348.266 88.7273 347.696C88.204 347.126 87.9482 346.463 87.9482 345.684C87.9482 344.905 88.204 344.207 88.7273 343.649C89.2622 343.103 89.9599 342.824 90.8321 342.824C91.7042 342.824 92.4485 343.091 92.9601 343.649C93.495 344.207 93.7625 344.893 93.7625 345.684C93.7625 346.475 93.495 347.126 92.9601 347.696C92.4368 348.254 91.7275 348.545 90.8321 348.545Z" fill="white"/>
<path d="M107.007 303.217C106.112 303.217 105.402 302.949 104.879 302.391C104.356 301.833 104.1 301.147 104.1 300.356C104.1 299.565 104.356 298.914 104.879 298.344C105.391 297.763 106.1 297.472 107.007 297.472C107.914 297.472 108.577 297.763 109.112 298.344C109.647 298.914 109.914 299.577 109.914 300.356C109.914 301.135 109.658 301.833 109.135 302.391C108.612 302.938 107.902 303.217 107.007 303.217ZM99.9367 346.929H96.8086V342.08H99.3785C100.472 342.08 101.39 341.824 102.146 341.324C102.89 340.824 103.46 340.138 103.844 339.289C104.228 338.428 104.425 337.451 104.425 336.358V307.508H109.368V336.73C109.368 339.963 108.577 342.463 107.019 344.242C105.472 346.033 103.111 346.929 99.9483 346.929H99.9367Z" fill="white"/>
<path d="M143.661 307.577V336.8C143.661 339.463 143.102 341.661 141.986 343.393C140.87 345.138 139.277 346.428 137.218 347.266C135.16 348.115 132.683 348.545 129.776 348.545C128.415 348.545 127.16 348.429 125.997 348.184C124.834 347.952 123.694 347.615 122.578 347.138C121.462 346.684 120.287 346.149 119.066 345.533L119.578 341.103C121.043 341.94 122.683 342.614 124.473 343.138C126.276 343.672 128.043 343.94 129.776 343.94C132.59 343.94 134.741 343.393 136.242 342.289C137.742 341.184 138.498 339.37 138.521 336.835H131.183C129.113 336.835 127.183 336.451 125.392 335.672C123.601 334.893 122.02 333.823 120.671 332.451C119.322 331.067 118.275 329.451 117.52 327.602C116.752 325.764 116.38 323.788 116.38 321.671C116.38 319.706 116.752 317.857 117.52 316.148C118.275 314.438 119.322 312.938 120.671 311.671C122.008 310.38 123.566 309.38 125.346 308.67C127.136 307.938 129.067 307.577 131.137 307.577H143.661ZM131.137 332.242H138.521V311.938H131.102C129.753 311.938 128.497 312.194 127.322 312.717C126.16 313.217 125.125 313.926 124.241 314.822C123.369 315.717 122.683 316.752 122.183 317.95C121.694 319.136 121.45 320.415 121.45 321.799C121.45 323.299 121.694 324.683 122.206 325.939C122.706 327.195 123.392 328.311 124.264 329.253C125.136 330.195 126.16 330.928 127.346 331.462C128.52 331.986 129.776 332.242 131.125 332.242H131.137Z" fill="white"/>
</svg>
