<svg width="38" height="46" viewBox="0 0 38 46" fill="none" xmlns="http://www.w3.org/2000/svg">
<path d="M5 41C3.93913 41 2.92172 40.5786 2.17157 39.8284C1.42143 39.0783 1 38.0609 1 37V5C1 3.93913 1.42143 2.92172 2.17157 2.17157C2.92172 1.42143 3.93913 1 5 1H23.345C24.4045 1.00049 25.4204 1.42127 26.17 2.17L31.826 7.826C32.1982 8.19813 32.4935 8.63994 32.6949 9.12621C32.8964 9.61247 33 10.1337 33 10.66V37C33 38.0609 32.5786 39.0783 31.8284 39.8284C31.0783 40.5786 30.0609 41 29 41H5Z" fill="#F7F7F8"/>
<path d="M31.826 7.826L26.17 2.17C25.8309 1.83561 25.4346 1.56466 25 1.37V7C25 7.53043 25.2107 8.03914 25.5858 8.41421C25.9609 8.78928 26.4696 9 27 9H32.628C32.4329 8.56391 32.1613 8.1663 31.826 7.826Z" fill="#AECEE8"/>
<path d="M33 30.01V37C33 38.0609 32.5786 39.0783 31.8284 39.8284C31.0783 40.5786 30.0609 41 29 41H5C3.93913 41 2.92172 40.5786 2.17157 39.8284C1.42143 39.0783 1 38.0609 1 37V5C1 3.93913 1.42143 2.92172 2.17157 2.17157C2.92172 1.42143 3.93913 1 5 1V35C5.00158 35.5299 5.2128 36.0377 5.58753 36.4125C5.96227 36.7872 6.47005 36.9984 7 37H15.05C15.02 36.67 15 36.34 15 36C15.0021 33.902 15.664 31.8579 16.892 30.1568C18.1199 28.4558 19.8518 27.184 21.8425 26.5216C23.8331 25.8591 25.9817 25.8396 27.9841 26.4656C29.9864 27.0917 31.7412 28.3316 33 30.01Z" fill="#CFE0F3"/>
<path d="M28 45C32.9706 45 37 40.9706 37 36C37 31.0294 32.9706 27 28 27C23.0294 27 19 31.0294 19 36C19 40.9706 23.0294 45 28 45Z" fill="#FFC343"/>
<path d="M29.9997 43C27.9693 42.9891 26.0189 42.2065 24.5441 40.8108C23.0692 39.4152 22.1803 37.5109 22.0574 35.4841C21.9345 33.4574 22.587 31.4597 23.8824 29.8961C25.1779 28.3325 27.0194 27.3201 29.0337 27.064C27.4225 26.8755 25.7902 27.1261 24.3096 27.7892C22.8291 28.4523 21.5553 29.5032 20.623 30.8308C19.6907 32.1584 19.1345 33.7133 19.0134 35.331C18.8923 36.9488 19.2107 38.5692 19.9349 40.0208C20.6591 41.4724 21.7622 42.7013 23.1275 43.5775C24.4928 44.4537 26.0695 44.9445 27.6909 44.9981C29.3123 45.0517 30.918 44.6661 32.3382 43.882C33.7584 43.098 34.9402 41.9446 35.7587 40.544C35.0144 41.3211 34.1204 41.9393 33.1306 42.3614C32.1408 42.7835 31.0758 43.0007 29.9997 43Z" fill="#FE9B0E"/>
<path d="M9 14H7C6.44772 14 6 14.4477 6 15V17C6 17.5523 6.44772 18 7 18H9C9.55228 18 10 17.5523 10 17V15C10 14.4477 9.55228 14 9 14Z" fill="#6EE7FF"/>
<path d="M9 22H7C6.44772 22 6 22.4477 6 23V25C6 25.5523 6.44772 26 7 26H9C9.55228 26 10 25.5523 10 25V23C10 22.4477 9.55228 22 9 22Z" fill="#6EE7FF"/>
<path d="M9 30H7C6.44772 30 6 30.4477 6 31V33C6 33.5523 6.44772 34 7 34H9C9.55228 34 10 33.5523 10 33V31C10 30.4477 9.55228 30 9 30Z" fill="#6EE7FF"/>
<path d="M28.723 35.188C28.612 35.144 28.51 35.103 28.423 35.062C28.336 35.021 28.195 34.962 28.058 34.908C27.358 34.629 27.003 34.43 27.003 34.116C27.0328 34.0005 27.09 33.8938 27.1697 33.805C27.2494 33.7163 27.3493 33.648 27.461 33.606C27.7842 33.4725 28.1395 33.4368 28.4828 33.5035C28.8261 33.5702 29.1423 33.7362 29.392 33.981C29.4948 34.0706 29.6149 34.1383 29.7448 34.1798C29.8747 34.2213 30.0117 34.2358 30.1475 34.2224C30.2832 34.209 30.4147 34.1679 30.534 34.1018C30.6533 34.0357 30.7578 33.9459 30.8411 33.8378C30.9244 33.7298 30.9847 33.6059 31.0183 33.4737C31.0519 33.3416 31.0581 33.2039 31.0366 33.0692C31.015 32.9346 30.9662 32.8057 30.893 32.6906C30.8198 32.5755 30.7238 32.4766 30.611 32.4C30.1336 32.0271 29.5856 31.755 29 31.6V31C29 30.7348 28.8946 30.4804 28.7071 30.2929C28.5196 30.1054 28.2652 30 28 30C27.7348 30 27.4804 30.1054 27.2929 30.2929C27.1054 30.4804 27 30.7348 27 31V31.642C26.855 31.6889 26.7133 31.7457 26.576 31.812C26.1262 32.0132 25.7409 32.3349 25.4628 32.7415C25.1846 33.1482 25.0244 33.6239 25 34.116C25 35.844 26.562 36.467 27.314 36.766C27.414 36.806 27.505 36.841 27.579 36.876C27.697 36.931 27.832 36.985 27.979 37.044C28.779 37.366 29.001 37.533 29.001 37.822C28.9711 37.9376 28.9138 38.0444 28.8339 38.1332C28.754 38.2219 28.6539 38.2901 28.542 38.332C28.2188 38.4647 27.8639 38.4998 27.5209 38.4332C27.178 38.3666 26.862 38.201 26.612 37.957C26.4017 37.7995 26.1379 37.731 25.8776 37.7664C25.6173 37.8018 25.3813 37.9383 25.2208 38.1462C25.0603 38.3542 24.988 38.617 25.0197 38.8778C25.0513 39.1386 25.1844 39.3765 25.39 39.54C25.8673 39.911 26.4151 40.1811 27 40.334V41C27 41.2652 27.1054 41.5196 27.2929 41.7071C27.4804 41.8946 27.7348 42 28 42C28.2652 42 28.5196 41.8946 28.7071 41.7071C28.8946 41.5196 29 41.2652 29 41V40.277C29.1442 40.2361 29.2855 40.1857 29.423 40.126C29.873 39.9251 30.2586 39.6034 30.5369 39.1968C30.8153 38.7901 30.9756 38.3142 31 37.822C31 36.1 29.462 35.484 28.723 35.188Z" fill="#08105E"/>
<path d="M28 26C26.0222 26 24.0888 26.5865 22.4443 27.6853C20.7998 28.7841 19.5181 30.3459 18.7612 32.1732C18.0043 34.0004 17.8063 36.0111 18.1921 37.9509C18.578 39.8907 19.5304 41.6725 20.9289 43.0711C22.3275 44.4696 24.1093 45.422 26.0491 45.8079C27.9889 46.1937 29.9996 45.9957 31.8268 45.2388C33.6541 44.4819 35.2159 43.2002 36.3147 41.5557C37.4135 39.9112 38 37.9778 38 36C37.9971 33.3487 36.9426 30.8069 35.0679 28.9321C33.1931 27.0574 30.6513 26.0029 28 26ZM28 44C26.4177 44 24.871 43.5308 23.5554 42.6518C22.2398 41.7727 21.2145 40.5233 20.609 39.0615C20.0035 37.5997 19.845 35.9911 20.1537 34.4393C20.4624 32.8874 21.2243 31.462 22.3431 30.3431C23.462 29.2243 24.8874 28.4624 26.4393 28.1537C27.9911 27.845 29.5997 28.0035 31.0615 28.609C32.5233 29.2145 33.7727 30.2398 34.6518 31.5554C35.5308 32.871 36 34.4177 36 36C35.9976 38.121 35.154 40.1544 33.6542 41.6542C32.1544 43.154 30.121 43.9976 28 44ZM11 15C11 14.4696 10.7893 13.9609 10.4142 13.5858C10.0391 13.2107 9.53043 13 9 13H7C6.46957 13 5.96086 13.2107 5.58579 13.5858C5.21071 13.9609 5 14.4696 5 15V17C5 17.5304 5.21071 18.0391 5.58579 18.4142C5.96086 18.7893 6.46957 19 7 19H9C9.53043 19 10.0391 18.7893 10.4142 18.4142C10.7893 18.0391 11 17.5304 11 17V15ZM7 17V15H9V17H7ZM11 23C11 22.4696 10.7893 21.9609 10.4142 21.5858C10.0391 21.2107 9.53043 21 9 21H7C6.46957 21 5.96086 21.2107 5.58579 21.5858C5.21071 21.9609 5 22.4696 5 23V25C5 25.5304 5.21071 26.0391 5.58579 26.4142C5.96086 26.7893 6.46957 27 7 27H9C9.53043 27 10.0391 26.7893 10.4142 26.4142C10.7893 26.0391 11 25.5304 11 25V23ZM7 25V23H9V25H7ZM9 29H7C6.46957 29 5.96086 29.2107 5.58579 29.5858C5.21071 29.9609 5 30.4696 5 31V33C5 33.5304 5.21071 34.0391 5.58579 34.4142C5.96086 34.7893 6.46957 35 7 35H9C9.53043 35 10.0391 34.7893 10.4142 34.4142C10.7893 34.0391 11 33.5304 11 33V31C11 30.4696 10.7893 29.9609 10.4142 29.5858C10.0391 29.2107 9.53043 29 9 29ZM7 33V31H9V33H7Z" fill="#08105E"/>
<path d="M16 40H5C4.20435 40 3.44129 39.6839 2.87868 39.1213C2.31607 38.5587 2 37.7957 2 37V5C2 4.20435 2.31607 3.44129 2.87868 2.87868C3.44129 2.31607 4.20435 2 5 2H23.34C23.5623 2.00236 23.7837 2.02953 24 2.081V7C24 7.79565 24.3161 8.55871 24.8787 9.12132C25.4413 9.68393 26.2044 10 27 10H31.919C31.9705 10.2163 31.9976 10.4377 32 10.66V24C32 24.2652 32.1054 24.5196 32.2929 24.7071C32.4804 24.8946 32.7348 25 33 25C33.2652 25 33.5196 24.8946 33.7071 24.7071C33.8946 24.5196 34 24.2652 34 24V10.66C33.997 9.33438 33.4713 8.06344 32.537 7.123L26.877 1.463C25.9366 0.528734 24.6656 0.00303825 23.34 0H5C3.67441 0.00158786 2.40356 0.528882 1.46622 1.46622C0.528882 2.40356 0.00158786 3.67441 0 5V37C0.00158786 38.3256 0.528882 39.5964 1.46622 40.5338C2.40356 41.4711 3.67441 41.9984 5 42H16C16.2652 42 16.5196 41.8946 16.7071 41.7071C16.8946 41.5196 17 41.2652 17 41C17 40.7348 16.8946 40.4804 16.7071 40.2929C16.5196 40.1054 16.2652 40 16 40ZM30.586 8H27C26.7348 8 26.4804 7.89464 26.2929 7.70711C26.1054 7.51957 26 7.26522 26 7V3.414L30.586 8Z" fill="#08105E"/>
<path d="M19 8C19 7.73478 18.8946 7.48043 18.7071 7.29289C18.5196 7.10536 18.2652 7 18 7H6C5.73478 7 5.48043 7.10536 5.29289 7.29289C5.10536 7.48043 5 7.73478 5 8C5 8.26522 5.10536 8.51957 5.29289 8.70711C5.48043 8.89464 5.73478 9 6 9H18C18.2652 9 18.5196 8.89464 18.7071 8.70711C18.8946 8.51957 19 8.26522 19 8ZM29 16C29 15.7348 28.8946 15.4804 28.7071 15.2929C28.5196 15.1054 28.2652 15 28 15H14C13.7348 15 13.4804 15.1054 13.2929 15.2929C13.1054 15.4804 13 15.7348 13 16C13 16.2652 13.1054 16.5196 13.2929 16.7071C13.4804 16.8946 13.7348 17 14 17H28C28.2652 17 28.5196 16.8946 28.7071 16.7071C28.8946 16.5196 29 16.2652 29 16ZM23.99 24C23.99 23.7348 23.8846 23.4804 23.6971 23.2929C23.5096 23.1054 23.2552 23 22.99 23H14C13.7348 23 13.4804 23.1054 13.2929 23.2929C13.1054 23.4804 13 23.7348 13 24C13 24.2652 13.1054 24.5196 13.2929 24.7071C13.4804 24.8946 13.7348 25 14 25H22.99C23.2552 25 23.5096 24.8946 23.6971 24.7071C23.8846 24.5196 23.99 24.2652 23.99 24ZM14 31C13.7348 31 13.4804 31.1054 13.2929 31.2929C13.1054 31.4804 13 31.7348 13 32C13 32.2652 13.1054 32.5196 13.2929 32.7071C13.4804 32.8946 13.7348 33 14 33H15.63C15.8952 33 16.1496 32.8946 16.3371 32.7071C16.5246 32.5196 16.63 32.2652 16.63 32C16.63 31.7348 16.5246 31.4804 16.3371 31.2929C16.1496 31.1054 15.8952 31 15.63 31H14Z" fill="#08105E"/>
</svg>
