<svg width="21" height="28" viewBox="0 0 21 28" fill="none" xmlns="http://www.w3.org/2000/svg">
<path d="M4.80039 19.0007H6.40039V20.6673H16.0004V7.33399H6.40039V9.00065H4.80039V6.50065C4.80039 6.26732 4.87772 6.0701 5.03239 5.90899C5.18706 5.74787 5.37639 5.66732 5.60039 5.66732H16.8004C17.0244 5.66732 17.2137 5.74787 17.3684 5.90899C17.5231 6.0701 17.6004 6.26732 17.6004 6.50065V21.5007C17.6004 21.734 17.5231 21.9312 17.3684 22.0923C17.2137 22.2534 17.0244 22.334 16.8004 22.334H5.60039C5.37639 22.334 5.18706 22.2534 5.03239 22.0923C4.87772 21.9312 4.80039 21.734 4.80039 21.5007V19.0007ZM6.40039 13.1673H12.0004V14.834H6.40039V17.334L2.40039 14.0007L6.40039 10.6673V13.1673Z" fill="#EC2D30"/>
</svg>
