<svg width="21" height="28" viewBox="0 0 21 28" fill="none" xmlns="http://www.w3.org/2000/svg">
<path d="M10.0008 17.333H6.80078V10.6663H10.0008C10.5768 10.6663 11.1101 10.8163 11.6008 11.1163C12.0914 11.4163 12.4808 11.8219 12.7688 12.333C13.0568 12.8441 13.2008 13.3997 13.2008 13.9997C13.2008 14.5997 13.0568 15.1552 12.7688 15.6663C12.4808 16.1775 12.0914 16.583 11.6008 16.883C11.1101 17.183 10.5768 17.333 10.0008 17.333ZM8.40078 12.333V15.6663H10.0008C10.2888 15.6663 10.5554 15.5913 10.8008 15.4413C11.0461 15.2913 11.2408 15.0886 11.3848 14.833C11.5288 14.5775 11.6008 14.2997 11.6008 13.9997C11.6008 13.6997 11.5288 13.4219 11.3848 13.1663C11.2408 12.9108 11.0461 12.708 10.8008 12.558C10.5554 12.408 10.2888 12.333 10.0008 12.333H8.40078ZM12.4008 7.33301H4.40078V20.6663H15.6008V10.6663H12.4008V7.33301ZM2.80078 6.49968C2.80078 6.26634 2.87811 6.06912 3.03278 5.90801C3.18745 5.7469 3.37678 5.66634 3.60078 5.66634H13.2008L17.2008 9.83301V21.4997C17.2008 21.7219 17.1234 21.9163 16.9688 22.083C16.8141 22.2497 16.6248 22.333 16.4008 22.333H3.60078C3.37678 22.333 3.18745 22.2525 3.03278 22.0913C2.87811 21.9302 2.80078 21.733 2.80078 21.4997V6.49968Z" fill="#EC2D30"/>
</svg>
