<svg width="21" height="28" viewBox="0 0 21 28" fill="none" xmlns="http://www.w3.org/2000/svg">
<path d="M10.9608 13.9997L13.2008 17.333H11.2808L10.0008 15.433L8.72078 17.333H6.80078L9.04078 13.9997L6.80078 10.6663H8.72078L10.0008 12.5663L11.2808 10.6663H12.4008V7.33301H4.40078V20.6663H15.6008V10.6663H13.2008L10.9608 13.9997ZM2.80078 6.49968C2.80078 6.26634 2.87811 6.06912 3.03278 5.90801C3.18745 5.7469 3.37678 5.66634 3.60078 5.66634H13.2008L17.2008 9.83301V21.4997C17.2008 21.7219 17.1234 21.9163 16.9688 22.083C16.8141 22.2497 16.6248 22.333 16.4008 22.333H3.60078C3.37678 22.333 3.18745 22.2525 3.03278 22.0913C2.87811 21.9302 2.80078 21.733 2.80078 21.4997V6.49968Z" fill="#0C9D61"/>
</svg>
