<svg width="21" height="28" viewBox="0 0 21 28" fill="none" xmlns="http://www.w3.org/2000/svg">
<path d="M10.0008 17.3335H6.80078V10.6668H10.0008C10.5768 10.6668 11.1101 10.8168 11.6008 11.1168C12.0914 11.4168 12.4808 11.8224 12.7688 12.3335C13.0568 12.8446 13.2008 13.4002 13.2008 14.0002C13.2008 14.6002 13.0568 15.1557 12.7688 15.6668C12.4808 16.1779 12.0914 16.5835 11.6008 16.8835C11.1101 17.1835 10.5768 17.3335 10.0008 17.3335ZM8.40078 12.3335V15.6668H10.0008C10.2888 15.6668 10.5554 15.5918 10.8008 15.4418C11.0461 15.2918 11.2408 15.0891 11.3848 14.8335C11.5288 14.5779 11.6008 14.3002 11.6008 14.0002C11.6008 13.7002 11.5288 13.4224 11.3848 13.1668C11.2408 12.9113 11.0461 12.7085 10.8008 12.5585C10.5554 12.4085 10.2888 12.3335 10.0008 12.3335H8.40078ZM12.4008 7.3335H4.40078V20.6668H15.6008V10.6668H12.4008V7.3335ZM2.80078 6.50016C2.80078 6.26683 2.87811 6.06961 3.03278 5.9085C3.18745 5.74739 3.37678 5.66683 3.60078 5.66683H13.2008L17.2008 9.8335V21.5002C17.2008 21.7224 17.1234 21.9168 16.9688 22.0835C16.8141 22.2502 16.6248 22.3335 16.4008 22.3335H3.60078C3.37678 22.3335 3.18745 22.2529 3.03278 22.0918C2.87811 21.9307 2.80078 21.7335 2.80078 21.5002V6.50016Z" fill="#DC2626"/>
</svg>
