<svg width="21" height="28" viewBox="0 0 21 28" fill="none" xmlns="http://www.w3.org/2000/svg">
<path d="M10.9608 14.0002L13.2008 17.3335H11.2808L10.0008 15.4335L8.72078 17.3335H6.80078L9.04078 14.0002L6.80078 10.6668H8.72078L10.0008 12.5668L11.2808 10.6668H12.4008V7.3335H4.40078V20.6668H15.6008V10.6668H13.2008L10.9608 14.0002ZM2.80078 6.50016C2.80078 6.26683 2.87811 6.06961 3.03278 5.9085C3.18745 5.74739 3.37678 5.66683 3.60078 5.66683H13.2008L17.2008 9.8335V21.5002C17.2008 21.7224 17.1234 21.9168 16.9688 22.0835C16.8141 22.2502 16.6248 22.3335 16.4008 22.3335H3.60078C3.37678 22.3335 3.18745 22.2529 3.03278 22.0918C2.87811 21.9307 2.80078 21.7335 2.80078 21.5002V6.50016Z" fill="#16A34A"/>
</svg>
