<svg width="21" height="28" viewBox="0 0 21 28" fill="none" xmlns="http://www.w3.org/2000/svg">
<path d="M16.4 13.75H18V15.4167H2V13.75H3.6V7.91667C3.6 6.70555 3.89333 5.58333 4.48 4.55C5.04533 3.55 5.808 2.75556 6.768 2.16667C7.76 1.55556 8.83733 1.25 10 1.25C11.1627 1.25 12.24 1.55556 13.232 2.16667C14.192 2.75556 14.9547 3.55 15.52 4.55C16.1067 5.58333 16.4 6.70555 16.4 7.91667V13.75ZM14.8 13.75V7.91667C14.8 7.01667 14.5813 6.17778 14.144 5.4C13.7173 4.64444 13.1413 4.04444 12.416 3.6C11.6693 3.14444 10.864 2.91667 10 2.91667C9.136 2.91667 8.33067 3.14444 7.584 3.6C6.85867 4.04444 6.28267 4.64444 5.856 5.4C5.41867 6.17778 5.2 7.01667 5.2 7.91667V13.75H14.8ZM7.6 17.0833H12.4V18.75H7.6V17.0833Z" fill="#474747"/>
</svg>
