<svg width="12" height="12" viewBox="0 0 12 12" fill="none" xmlns="http://www.w3.org/2000/svg">
<path d="M4.55922 1V2H7.43922V1H8.39922V2H10.3192C10.4536 2 10.5672 2.04833 10.66 2.145C10.7528 2.24167 10.7992 2.36 10.7992 2.5V10.5C10.7992 10.64 10.7528 10.7583 10.66 10.855C10.5672 10.9517 10.4536 11 10.3192 11H1.67922C1.54482 11 1.43122 10.9517 1.33842 10.855C1.24562 10.7583 1.19922 10.64 1.19922 10.5V2.5C1.19922 2.36 1.24562 2.24167 1.33842 2.145C1.43122 2.04833 1.54482 2 1.67922 2H3.59922V1H4.55922ZM9.83922 6H2.15922V10H9.83922V6ZM3.59922 3H2.15922V5H9.83922V3H8.39922V4H7.43922V3H4.55922V4H3.59922V3Z" fill="#666666"/>
</svg>
