<svg width="42" height="50" viewBox="0 0 42 50" fill="none" xmlns="http://www.w3.org/2000/svg">
<path d="M34.1397 11.2566V22.2765H26.0495C25.0408 22.2874 24.0777 22.6977 23.3709 23.4174C22.6642 24.1371 22.2715 25.1075 22.2789 26.1162V46.8505C22.2797 47.5134 22.4502 48.1651 22.7742 48.7435H16.3811C16.5539 48.6283 16.7267 48.5093 16.888 48.3864C17.4918 47.9392 18.0419 47.4239 18.5275 46.8505C19.5811 45.5973 20.2904 44.0914 20.5856 42.4809C21.4687 37.7735 18.4699 33.7648 16.289 30.8505L16.0471 30.5241C15.6554 30.0019 14.7723 28.8232 14.2002 28.0168C14.9412 25.9319 15.2599 25.0257 15.3982 24.5841L15.4174 24.588C15.5387 24.2402 15.5752 23.8684 15.5239 23.5036C15.4726 23.1389 15.3349 22.7916 15.1223 22.4908C14.9098 22.19 14.6284 21.9443 14.3017 21.7741C13.9751 21.6039 13.6124 21.5142 13.2441 21.5124C13.1942 21.5124 13.1404 21.5124 13.0905 21.5162C12.5037 21.5306 11.9256 21.6611 11.3895 21.9002C11.3875 21.9024 11.3848 21.9037 11.3818 21.904C10.8248 21.6454 10.2178 21.5117 9.60364 21.5124C8.98945 21.5131 8.38283 21.648 7.82629 21.9079C7.80884 21.9038 7.79204 21.8973 7.77638 21.8887C7.24232 21.6512 6.66727 21.5195 6.08307 21.5009C5.79694 21.4994 5.5122 21.5408 5.23834 21.6237C4.9427 21.7178 4.66905 21.8706 4.43371 22.0727C4.19837 22.2749 4.00616 22.5224 3.86855 22.8005C3.73095 23.0786 3.65077 23.3815 3.63278 23.6913C3.6148 24.001 3.6594 24.3112 3.7639 24.6033L5.00796 28.0168C4.42049 28.8193 3.49128 30.0442 2.9806 30.7199C2.74254 31.0348 2.56208 31.269 2.50064 31.3535C2.49296 31.365 2.48529 31.3727 2.48145 31.3804V2.6288L4.16323 0.716631L22.0562 0.643677L34.1397 11.2566Z" fill="#EBEBEB"/>
<path d="M28.806 16.5194H8.07165C7.86798 16.5194 7.67265 16.6003 7.52863 16.7443C7.38462 16.8883 7.30371 17.0836 7.30371 17.2873C7.30371 17.491 7.38462 17.6863 7.52863 17.8303C7.67265 17.9743 7.86798 18.0552 8.07165 18.0552H28.806C29.0096 18.0552 29.205 17.9743 29.349 17.8303C29.493 17.6863 29.5739 17.491 29.5739 17.2873C29.5739 17.0836 29.493 16.8883 29.349 16.7443C29.205 16.6003 29.0096 16.5194 28.806 16.5194ZM29.5739 20.359C29.5739 20.1554 29.493 19.9601 29.349 19.816C29.205 19.672 29.0096 19.5911 28.806 19.5911H8.07165C7.86798 19.5911 7.67265 19.672 7.52863 19.816C7.38462 19.96 7.30371 20.1554 7.30371 20.359C7.30371 20.5627 7.38462 20.758 7.52863 20.9021C7.67265 21.0461 7.86798 21.127 8.07165 21.127H28.806C29.0096 21.127 29.205 21.0461 29.349 20.9021C29.493 20.758 29.5739 20.5627 29.5739 20.359ZM12.8409 5.38391C12.6372 5.38392 12.4419 5.46483 12.2979 5.60885C12.1539 5.75286 12.073 5.94818 12.0729 6.15185V6.7409C11.8027 6.73421 11.5339 6.78152 11.2821 6.88006C11.0304 6.97859 10.8009 7.12637 10.607 7.31473C10.4131 7.5031 10.2588 7.72826 10.153 7.97703C10.0473 8.2258 9.99223 8.49318 9.99111 8.76349C9.99433 9.04466 10.0545 9.32227 10.1679 9.57956C10.2814 9.83685 10.4457 10.0685 10.6512 10.2605C10.8566 10.4525 11.0988 10.601 11.3631 10.6968C11.6274 10.7927 11.9085 10.834 12.1892 10.8183H12.7816C13.1982 10.8183 13.4472 11.0017 13.4472 11.3088C13.4472 11.6766 13.1019 11.8315 12.7816 11.8315H11.1228C10.9191 11.8315 10.7238 11.9124 10.5798 12.0564C10.4357 12.2005 10.3548 12.3958 10.3548 12.5995C10.3548 12.8031 10.4357 12.9985 10.5798 13.1425C10.7238 13.2865 10.9191 13.3674 11.1228 13.3674H12.0729V13.8312C12.0729 14.0349 12.1539 14.2302 12.2979 14.3742C12.4419 14.5183 12.6372 14.5992 12.8409 14.5992C13.0446 14.5992 13.2399 14.5183 13.3839 14.3742C13.5279 14.2302 13.6088 14.0349 13.6088 13.8312V13.2313C13.9065 13.1279 14.1767 12.9583 14.3993 12.7352C14.5855 12.5474 14.7329 12.3248 14.8331 12.0801C14.9333 11.8353 14.9842 11.5732 14.9831 11.3088C14.9831 10.3016 14.2268 9.28246 12.7816 9.28246H12.1892C11.701 9.28246 11.527 9.01434 11.527 8.76349C11.527 8.40279 11.8836 8.27155 12.1892 8.27155H13.8477C14.0514 8.27155 14.2467 8.19064 14.3907 8.04663C14.5347 7.90261 14.6156 7.70728 14.6156 7.50361C14.6156 7.29994 14.5347 7.10461 14.3907 6.9606C14.2467 6.81658 14.0514 6.73567 13.8477 6.73567H13.6088V6.15185C13.6088 5.94818 13.5279 5.75286 13.3839 5.60885C13.2399 5.46483 13.0445 5.38392 12.8409 5.38391ZM39.2426 23.8122H26.0495C25.4478 23.822 24.8747 24.0701 24.4557 24.502C24.0368 24.9339 23.8063 25.5143 23.8148 26.116V46.8503C23.8063 47.452 24.0368 48.0324 24.4557 48.4643C24.8747 48.8962 25.4478 49.1443 26.0495 49.1541H39.2426C39.8443 49.1443 40.4174 48.8962 40.8364 48.4643C41.2553 48.0324 41.4858 47.452 41.4773 46.8503V26.116C41.4858 25.5143 41.2553 24.9339 40.8364 24.502C40.4174 24.0701 39.8443 23.822 39.2426 23.8122ZM39.9415 46.8503C39.9495 47.0445 39.8807 47.2341 39.7499 47.3779C39.619 47.5217 39.4368 47.608 39.2426 47.6182H26.0495C25.8553 47.608 25.6731 47.5217 25.5422 47.3779C25.4114 47.2341 25.3426 47.0445 25.3506 46.8503V26.116C25.3426 25.9217 25.4114 25.7322 25.5422 25.5884C25.6731 25.4446 25.8553 25.3582 26.0495 25.348H39.2426C39.4368 25.3582 39.619 25.4446 39.7499 25.5884C39.8807 25.7322 39.9495 25.9217 39.9415 26.116V46.8503Z" fill="#2D4356"/>
<path d="M39.2422 25.3481H26.0491C25.8549 25.3584 25.6727 25.4447 25.5418 25.5885C25.411 25.7323 25.3422 25.9219 25.3502 26.1161V46.8504C25.3422 47.0446 25.411 47.2342 25.5418 47.378C25.6727 47.5218 25.8549 47.6081 26.0491 47.6183H39.2422C39.4364 47.6081 39.6186 47.5218 39.7495 47.378C39.8803 47.2342 39.9492 47.0446 39.9411 46.8504V26.1161C39.9492 25.9219 39.8803 25.7323 39.7495 25.5885C39.6186 25.4447 39.4364 25.3584 39.2422 25.3481ZM38.4052 31.8795C38.4062 32.1833 38.2868 32.4752 38.073 32.6911C37.8593 32.907 37.5686 33.0294 37.2648 33.0314H28.0265C27.7227 33.0294 27.432 32.907 27.2183 32.6911C27.0045 32.4752 26.8851 32.1833 26.8861 31.8795V28.8077C26.8853 28.6572 26.9141 28.5079 26.971 28.3685C27.0279 28.2292 27.1116 28.1024 27.2176 27.9954C27.3235 27.8884 27.4494 27.8033 27.5882 27.7451C27.727 27.6868 27.876 27.6565 28.0265 27.6558H37.2648C37.4153 27.6565 37.5643 27.6868 37.7031 27.7451C37.8419 27.8033 37.9679 27.8884 38.0738 27.9954C38.1797 28.1024 38.2635 28.2292 38.3203 28.3685C38.3772 28.5079 38.406 28.6572 38.4052 28.8077V31.8795Z" fill="#FF741F"/>
<path d="M36.8702 29.1918H28.4229V31.4956H36.8702V29.1918Z" fill="#81D9E3"/>
<path d="M29.1901 35.3335H28.4221C28.2185 35.3335 28.0231 35.4145 27.8791 35.5585C27.7351 35.7025 27.6542 35.8978 27.6542 36.1015C27.6542 36.3051 27.7351 36.5005 27.8791 36.6445C28.0231 36.7885 28.2185 36.8694 28.4221 36.8694H29.1901C29.3937 36.8694 29.5891 36.7885 29.7331 36.6445C29.8771 36.5005 29.958 36.3051 29.958 36.1015C29.958 35.8978 29.8771 35.7025 29.7331 35.5585C29.5891 35.4145 29.3937 35.3335 29.1901 35.3335ZM29.1901 38.4053H28.4221C28.2185 38.4053 28.0231 38.4862 27.8791 38.6302C27.7351 38.7742 27.6542 38.9696 27.6542 39.1732C27.6542 39.3769 27.7351 39.5722 27.8791 39.7162C28.0231 39.8603 28.2185 39.9412 28.4221 39.9412H29.1901C29.3937 39.9412 29.5891 39.8603 29.7331 39.7162C29.8771 39.5722 29.958 39.3769 29.958 39.1732C29.958 38.9696 29.8771 38.7742 29.7331 38.6302C29.5891 38.4862 29.3937 38.4053 29.1901 38.4053ZM29.1901 41.477H28.4221C28.2185 41.477 28.0231 41.558 27.8791 41.702C27.7351 41.846 27.6542 42.0413 27.6542 42.245C27.6542 42.4487 27.7351 42.644 27.8791 42.788C28.0231 42.932 28.2185 43.0129 28.4221 43.0129H29.1901C29.3937 43.0129 29.5891 42.932 29.7331 42.788C29.8771 42.644 29.958 42.4487 29.958 42.245C29.958 42.0413 29.8771 41.846 29.7331 41.702C29.5891 41.558 29.3937 41.477 29.1901 41.477ZM29.1901 44.5488H28.4221C28.2185 44.5488 28.0231 44.6297 27.8791 44.7737C27.7351 44.9177 27.6542 45.1131 27.6542 45.3167C27.6542 45.5204 27.7351 45.7157 27.8791 45.8597C28.0231 46.0038 28.2185 46.0847 28.4221 46.0847H29.1901C29.3937 46.0847 29.5891 46.0038 29.7331 45.8597C29.8771 45.7157 29.958 45.5204 29.958 45.3167C29.958 45.1131 29.8771 44.9177 29.7331 44.7737C29.5891 44.6297 29.3937 44.5488 29.1901 44.5488ZM33.0298 35.3335H32.2618C32.0582 35.3335 31.8628 35.4145 31.7188 35.5585C31.5748 35.7025 31.4939 35.8978 31.4939 36.1015C31.4939 36.3051 31.5748 36.5005 31.7188 36.6445C31.8628 36.7885 32.0582 36.8694 32.2618 36.8694H33.0298C33.2334 36.8694 33.4288 36.7885 33.5728 36.6445C33.7168 36.5005 33.7977 36.3051 33.7977 36.1015C33.7977 35.8978 33.7168 35.7025 33.5728 35.5585C33.4288 35.4145 33.2334 35.3335 33.0298 35.3335ZM33.0298 38.4053H32.2618C32.0582 38.4053 31.8628 38.4862 31.7188 38.6302C31.5748 38.7742 31.4939 38.9696 31.4939 39.1732C31.4939 39.3769 31.5748 39.5722 31.7188 39.7162C31.8628 39.8603 32.0582 39.9412 32.2618 39.9412H33.0298C33.2334 39.9412 33.4288 39.8603 33.5728 39.7162C33.7168 39.5722 33.7977 39.3769 33.7977 39.1732C33.7977 38.9696 33.7168 38.7742 33.5728 38.6302C33.4288 38.4862 33.2334 38.4053 33.0298 38.4053ZM33.0298 41.477H32.2618C32.0582 41.477 31.8628 41.558 31.7188 41.702C31.5748 41.846 31.4939 42.0413 31.4939 42.245C31.4939 42.4487 31.5748 42.644 31.7188 42.788C31.8628 42.932 32.0582 43.0129 32.2618 43.0129H33.0298C33.2334 43.0129 33.4288 42.932 33.5728 42.788C33.7168 42.644 33.7977 42.4487 33.7977 42.245C33.7977 42.0413 33.7168 41.846 33.5728 41.702C33.4288 41.558 33.2334 41.477 33.0298 41.477ZM33.0298 44.5488H32.2618C32.0582 44.5488 31.8628 44.6297 31.7188 44.7737C31.5748 44.9177 31.4939 45.1131 31.4939 45.3167C31.4939 45.5204 31.5748 45.7157 31.7188 45.8597C31.8628 46.0038 32.0582 46.0847 32.2618 46.0847H33.0298C33.2334 46.0847 33.4288 46.0038 33.5728 45.8597C33.7168 45.7157 33.7977 45.5204 33.7977 45.3167C33.7977 45.1131 33.7168 44.9177 33.5728 44.7737C33.4288 44.6297 33.2334 44.5488 33.0298 44.5488ZM36.8695 35.3335H36.1015C35.8979 35.3335 35.7025 35.4145 35.5585 35.5585C35.4145 35.7025 35.3336 35.8978 35.3336 36.1015C35.3336 36.3051 35.4145 36.5005 35.5585 36.6445C35.7025 36.7885 35.8979 36.8694 36.1015 36.8694H36.8695C37.0731 36.8694 37.2685 36.7885 37.4125 36.6445C37.5565 36.5005 37.6374 36.3051 37.6374 36.1015C37.6374 35.8978 37.5565 35.7025 37.4125 35.5585C37.2685 35.4145 37.0731 35.3335 36.8695 35.3335ZM36.8695 38.4053H36.1015C35.8979 38.4053 35.7025 38.4862 35.5585 38.6302C35.4145 38.7742 35.3336 38.9696 35.3336 39.1732C35.3336 39.3769 35.4145 39.5722 35.5585 39.7162C35.7025 39.8603 35.8979 39.9412 36.1015 39.9412H36.8695C37.0731 39.9412 37.2685 39.8603 37.4125 39.7162C37.5565 39.5722 37.6374 39.3769 37.6374 39.1732C37.6374 38.9696 37.5565 38.7742 37.4125 38.6302C37.2685 38.4862 37.0731 38.4053 36.8695 38.4053ZM36.8695 41.477H36.1015C35.8979 41.477 35.7025 41.558 35.5585 41.702C35.4145 41.846 35.3336 42.0413 35.3336 42.245C35.3336 42.4487 35.4145 42.644 35.5585 42.788C35.7025 42.932 35.8979 43.0129 36.1015 43.0129H36.8695C37.0731 43.0129 37.2685 42.932 37.4125 42.788C37.5565 42.644 37.6374 42.4487 37.6374 42.245C37.6374 42.0413 37.5565 41.846 37.4125 41.702C37.2685 41.558 37.0731 41.477 36.8695 41.477ZM36.8695 44.5488H36.1015C35.8979 44.5488 35.7025 44.6297 35.5585 44.7737C35.4145 44.9177 35.3336 45.1131 35.3336 45.3167C35.3336 45.5204 35.4145 45.7157 35.5585 45.8597C35.7025 46.0038 35.8979 46.0847 36.1015 46.0847H36.8695C37.0731 46.0847 37.2685 46.0038 37.4125 45.8597C37.5565 45.7157 37.6374 45.5204 37.6374 45.3167C37.6374 45.1131 37.5565 44.9177 37.4125 44.7737C37.2685 44.6297 37.0731 44.5488 36.8695 44.5488ZM15.0523 31.7604C14.8258 31.4532 13.0058 29.0419 12.4874 28.2432C12.4874 28.2432 13.9696 24.0771 13.9696 24.0733C14.0112 23.9512 14.0217 23.8205 14.0001 23.6933C13.9784 23.5661 13.9253 23.4463 13.8456 23.3448C13.7658 23.2433 13.662 23.1634 13.5435 23.1122C13.425 23.0611 13.2956 23.0404 13.1671 23.0519C12.7556 23.0555 12.3498 23.1471 11.9768 23.3207C11.7787 23.4188 11.5603 23.4688 11.3394 23.4666C11.154 23.4738 10.9703 23.4286 10.8095 23.3361C10.4401 23.1388 10.0263 23.0396 9.60766 23.0481C9.18786 23.0403 8.77298 23.1394 8.402 23.3361C8.24277 23.4291 8.06019 23.4744 7.87596 23.4666C7.6422 23.4653 7.41155 23.4129 7.20018 23.313C6.73683 23.0746 6.20756 22.9963 5.69502 23.0903C5.59773 23.1224 5.5078 23.1735 5.43046 23.2407C5.35313 23.3079 5.28993 23.3898 5.24454 23.4816C5.19916 23.5735 5.1725 23.6734 5.16612 23.7756C5.15974 23.8779 5.17377 23.9804 5.20738 24.0771L6.72405 28.247C6.20186 29.038 4.01323 31.8909 3.7291 32.2749C2.14715 34.3906 0.426964 36.8864 0.0737123 39.7776C-0.0797483 40.8692 0.00705476 41.9811 0.328053 43.0356C0.649051 44.0901 1.1965 45.0618 1.93212 45.8827C3.74446 47.9293 6.65878 49.1542 9.73053 49.1542C11.1696 49.1615 12.5955 48.8795 13.9235 48.3248C16.7264 47.1383 18.5541 44.9651 19.0763 42.1966C19.8328 38.1573 17.1834 34.6094 15.0523 31.7604ZM7.87596 25.0025C8.29449 25.0099 8.70803 24.9108 9.07778 24.7145C9.24125 24.6288 9.42308 24.584 9.60766 24.584C9.79225 24.584 9.97408 24.6288 10.1375 24.7145C10.5069 24.9118 10.9207 25.011 11.3394 25.0025C11.5747 25.0037 11.8093 24.9766 12.0382 24.9219L11.0936 27.5751H8.11018L7.14642 24.9142C7.38463 24.9757 7.62995 25.0054 7.87596 25.0025ZM17.5673 41.9125C17.145 44.1587 15.6398 45.9327 13.3245 46.9079C12.1867 47.3849 10.9642 47.6266 9.73053 47.6183C8.4482 47.622 7.17761 47.3741 5.99067 46.8887C4.87934 46.4442 3.88397 45.7521 3.08019 44.8652C2.49168 44.2055 2.05417 43.4253 1.79819 42.5791C1.54221 41.7329 1.47391 40.8411 1.59807 39.9658C1.90524 37.4508 3.49488 35.1508 4.9578 33.1926C5.24193 32.8163 7.44592 29.9365 7.99499 29.111H11.2127C11.7579 29.9442 13.5971 32.3747 13.8198 32.678C15.874 35.4234 18.2009 38.5374 17.5673 41.9125Z" fill="#2D4356"/>
<path d="M12.0382 24.922L11.0937 27.5752H8.11025L7.14648 24.9143C7.38469 24.9759 7.63001 25.0055 7.87603 25.0026C8.29456 25.01 8.7081 24.9109 9.07785 24.7146C9.24131 24.6289 9.42314 24.5841 9.60773 24.5841C9.79231 24.5841 9.97414 24.6289 10.1376 24.7146C10.507 24.9119 10.9208 25.0111 11.3394 25.0026C11.5748 25.0038 11.8094 24.9767 12.0382 24.922Z" fill="#FFDB80"/>
<path d="M17.5686 41.9125C17.1462 44.1587 15.641 45.9326 13.3257 46.9079C12.188 47.3849 10.9654 47.6266 9.73176 47.6183C8.44943 47.6219 7.17883 47.3741 5.9919 46.8887C4.88057 46.4442 3.8852 45.7521 3.08142 44.8652C2.4929 44.2055 2.0554 43.4253 1.79942 42.5791C1.54343 41.7329 1.47514 40.8411 1.5993 39.9658C1.90647 37.4508 3.4961 35.1508 4.95902 33.1926C5.24316 32.8163 7.44714 29.9365 7.99622 29.111H11.2139C11.7591 29.9442 13.5983 32.3747 13.821 32.678C15.8753 35.4234 18.2021 38.5374 17.5686 41.9125Z" fill="#FF741F"/>
<path d="M12.2956 40.4962C12.2963 40.1926 12.2347 39.8921 12.1144 39.6134C11.9941 39.3347 11.8178 39.0837 11.5965 38.8759C11.3751 38.6682 11.1134 38.5082 10.8276 38.4059C10.5418 38.3036 10.238 38.2612 9.9351 38.2812H9.27667C8.4956 38.2812 8.45587 37.688 8.45587 37.5691C8.45587 37.1034 8.85822 36.8882 9.27667 36.8882H11.1196C11.3233 36.8882 11.5186 36.8073 11.6627 36.6633C11.8067 36.5193 11.8876 36.3239 11.8876 36.1203C11.8876 35.9166 11.8067 35.7213 11.6627 35.5773C11.5186 35.4332 11.3233 35.3523 11.1196 35.3523H10.7694V34.5657C10.7694 34.362 10.6885 34.1667 10.5445 34.0226C10.4005 33.8786 10.2052 33.7977 10.0015 33.7977C9.79782 33.7977 9.60249 33.8786 9.45847 34.0226C9.31446 34.1667 9.23355 34.362 9.23355 34.5657V35.3546C8.91862 35.3479 8.60559 35.4049 8.31321 35.5221C8.02083 35.6393 7.7551 35.8143 7.53195 36.0366C7.13522 36.4477 6.91551 36.9979 6.91999 37.5691C6.92042 37.8735 6.98249 38.1746 7.10247 38.4543C7.22245 38.734 7.39785 38.9865 7.61808 39.1966C7.83831 39.4067 8.09881 39.5699 8.38387 39.6766C8.66893 39.7832 8.97263 39.831 9.27667 39.8171H9.9351C10.7004 39.8171 10.7597 40.3368 10.7597 40.4962C10.7565 40.5987 10.7322 40.6995 10.6882 40.7922C10.6442 40.8849 10.5815 40.9675 10.5041 41.0348C10.4266 41.1021 10.3361 41.1526 10.2382 41.1833C10.1403 41.2139 10.0371 41.2239 9.9351 41.2127H8.09212C7.88845 41.2127 7.69313 41.2936 7.54911 41.4377C7.40509 41.5817 7.32419 41.777 7.32419 41.9807C7.32419 42.1843 7.40509 42.3797 7.54911 42.5237C7.69313 42.6677 7.88845 42.7486 8.09212 42.7486H9.23355V43.3969C9.23355 43.6006 9.31446 43.7959 9.45847 43.94C9.60249 44.084 9.79782 44.1649 10.0015 44.1649C10.2052 44.1649 10.4005 44.084 10.5445 43.94C10.6885 43.7959 10.7694 43.6006 10.7694 43.3969V42.6144C11.2168 42.4708 11.6065 42.1877 11.8811 41.8065C12.1558 41.4252 12.301 40.966 12.2956 40.4962ZM22.2787 41.0916H20.7369C20.722 41.5585 20.6713 42.0236 20.5854 42.4828C20.5764 42.5315 20.5632 42.5787 20.5535 42.6275H22.2787V41.0916ZM22.2787 38.0199H20.3454C20.4887 38.5234 20.595 39.0367 20.6634 39.5558H22.2787V38.0199ZM22.2787 34.9481H19.051C19.3271 35.447 19.5775 35.9596 19.8013 36.484H22.2787V34.9481ZM22.2787 31.8764H17.0494C17.4053 32.3642 17.7675 32.8768 18.1192 33.4123H22.2787V31.8764ZM22.2787 28.8046H14.7538C15.0212 29.1672 15.3024 29.5414 15.5941 29.9269C15.6973 30.0638 15.8015 30.2025 15.9057 30.3405H22.2787V28.8046ZM22.2787 26.1183C22.2787 25.9882 22.2855 25.8596 22.2979 25.7329H15.0122L14.4659 27.2687H22.2787V26.1183ZM24.4157 22.663H15.2409C15.5096 23.1269 15.6078 23.6702 15.5184 24.1988H22.7887C23.1655 23.5359 23.7322 23.001 24.4157 22.663Z" fill="#2D4356"/>
<path opacity="0.5" d="M22.5983 48.3863H16.8887C17.4925 47.9392 18.0427 47.4238 18.5282 46.8505H22.2796C22.2795 47.3788 22.388 47.9016 22.5983 48.3863Z" fill="#A3A3A3"/>
<path d="M34.5238 11.2565L22.9779 0.225034C22.6676 0.046372 22.3086 -0.0289351 21.9527 0.0100118H4.23252C3.62166 0.0104958 3.03596 0.253374 2.60402 0.685318C2.17207 1.11726 1.92919 1.70297 1.92871 2.31383V32.1329C2.1207 31.8718 3.11517 30.5471 3.44923 30.1093C3.45305 30.1017 3.46075 30.0978 3.46459 30.0901V2.31383C3.46518 2.11034 3.54628 1.91536 3.69017 1.77147C3.83406 1.62758 4.02904 1.54648 4.23252 1.54589H21.6762V9.68219C21.6682 10.5227 21.9941 11.3319 22.5822 11.9324C23.1704 12.5328 23.9728 12.8752 24.8133 12.8845H33.4142V22.2802H34.95V12.2471C34.9479 12.062 34.9091 11.8792 34.8359 11.7092C34.7628 11.5392 34.6567 11.3853 34.5238 11.2565ZM24.8133 11.3486C24.38 11.3398 23.968 11.1593 23.6678 10.8468C23.3675 10.5344 23.2036 10.1154 23.2121 9.68219V2.58644L32.2815 11.3486H24.8133Z" fill="#2D4356"/>
<path d="M32.2816 11.3487H24.8134C24.3801 11.3399 23.9681 11.1594 23.6679 10.8469C23.3676 10.5345 23.2037 10.1156 23.2122 9.6823V2.58655L32.2816 11.3487Z" fill="#FF741F"/>
<path d="M17.7822 47.6183C17.1569 48.2135 16.4606 48.7294 15.709 49.1542H23.0396C22.7009 48.6989 22.467 48.1745 22.3546 47.6183H17.7822Z" fill="#2D4356"/>
<path opacity="0.5" d="M39.9411 46.0824V46.8503C39.9492 47.0446 39.8803 47.2341 39.7495 47.3779C39.6186 47.5217 39.4364 47.6081 39.2422 47.6183H26.0491C25.8549 47.6081 25.6727 47.5217 25.5418 47.3779C25.411 47.2341 25.3422 47.0446 25.3502 46.8503V46.0824C25.3422 46.2766 25.411 46.4662 25.5418 46.61C25.6727 46.7537 25.8549 46.8401 26.0491 46.8503H39.2422C39.4364 46.8401 39.6186 46.7537 39.7495 46.61C39.8803 46.4662 39.9492 46.2766 39.9411 46.0824Z" fill="#A54B3F"/>
<path opacity="0.3" d="M17.6603 41.1484C17.4952 38.3608 15.56 35.769 13.8206 33.446C13.5979 33.1426 11.7587 30.7121 11.2134 29.8789H7.99576C7.44669 30.7044 5.2427 33.5842 4.95857 33.9605C3.49564 35.9187 1.90601 38.2187 1.59884 40.7337C1.57964 40.8911 1.56428 41.0486 1.56044 41.206C1.53514 40.7923 1.54799 40.3771 1.59884 39.9658C1.90601 37.4508 3.49564 35.1508 4.95857 33.1926C5.2427 32.8163 7.44669 29.9365 7.99576 29.111H11.2134C11.7587 29.9442 13.5979 32.3747 13.8206 32.678C15.7174 35.2161 17.8484 38.0651 17.6603 41.1484Z" fill="#CCCCCC"/>
<path opacity="0.3" d="M39.9411 26.1161V26.884C39.9492 26.6898 39.8803 26.5002 39.7495 26.3564C39.6186 26.2127 39.4364 26.1263 39.2422 26.1161H26.0491C25.8549 26.1263 25.6727 26.2127 25.5418 26.3564C25.411 26.5002 25.3422 26.6898 25.3502 26.884V26.1161C25.3422 25.9219 25.411 25.7323 25.5418 25.5885C25.6727 25.4447 25.8549 25.3584 26.0491 25.3481H39.2422C39.4364 25.3584 39.6186 25.4447 39.7495 25.5885C39.8803 25.7323 39.9492 25.9219 39.9411 26.1161Z" fill="#EBEBEB"/>
<path opacity="0.4" d="M17.5678 41.9125C17.1455 44.1588 15.6403 45.9327 13.325 46.908C12.1872 47.385 10.9647 47.6266 9.73102 47.6183C8.44869 47.622 7.17809 47.3741 5.99116 46.8888C4.87983 46.4442 3.88446 45.7522 3.08067 44.8653C2.54419 44.2664 2.13321 43.5661 1.87205 42.8057C1.61088 42.0453 1.50483 41.2402 1.56016 40.4381C1.63484 41.7955 2.17134 43.0867 3.08067 44.0973C3.88446 44.9842 4.87983 45.6763 5.99116 46.1208C7.17809 46.6062 8.44869 46.854 9.73102 46.8504C10.9647 46.8587 12.1872 46.617 13.325 46.14C15.6403 45.1647 17.1455 43.3908 17.5678 41.1446C17.6172 40.8925 17.648 40.6371 17.66 40.3805C17.6921 40.893 17.6611 41.4076 17.5678 41.9125Z" fill="#72492D"/>
<path opacity="0.5" d="M12.0382 24.922L11.7464 25.7437C11.6115 25.7612 11.4755 25.7702 11.3394 25.7706C10.9208 25.779 10.507 25.6799 10.1376 25.4826C9.97414 25.3968 9.79231 25.352 9.60773 25.352C9.42314 25.352 9.24131 25.3968 9.07785 25.4826C8.7081 25.6788 8.29456 25.7779 7.87603 25.7706C7.73227 25.7702 7.58866 25.7613 7.44598 25.7437L7.14648 24.9143C7.38469 24.9759 7.63001 25.0055 7.87603 25.0026C8.29456 25.01 8.7081 24.9109 9.07785 24.7146C9.24131 24.6289 9.42314 24.5841 9.60773 24.5841C9.79231 24.5841 9.97414 24.6289 10.1376 24.7146C10.507 24.9119 10.9208 25.0111 11.3394 25.0026C11.5748 25.0038 11.8094 24.9767 12.0382 24.922Z" fill="#EBEBEB"/>
<path opacity="0.3" d="M32.2816 11.3485H24.8134C24.3801 11.3397 23.9681 11.1592 23.6679 10.8468C23.3676 10.5343 23.2037 10.1154 23.2122 9.68212V8.91418C23.2037 9.34744 23.3676 9.76634 23.6679 10.0788C23.9681 10.3913 24.3801 10.5718 24.8134 10.5806H31.4868L32.2816 11.3485Z" fill="#0F423C"/>
<path opacity="0.3" d="M37.2377 30.7238H28.0225V31.4917H37.2377V30.7238Z" fill="#0F423C"/>
<path d="M37.2654 27.6559H28.0271C27.8766 27.6566 27.7277 27.6869 27.5888 27.7452C27.45 27.8034 27.3241 27.8885 27.2182 27.9955C27.1123 28.1024 27.0285 28.2292 26.9716 28.3686C26.9147 28.508 26.8859 28.6573 26.8867 28.8078V31.8795C26.8857 32.1834 27.0051 32.4752 27.2189 32.6912C27.4327 32.9071 27.7233 33.0294 28.0271 33.0314H37.2654C37.5692 33.0294 37.8599 32.9071 38.0737 32.6912C38.2874 32.4752 38.4069 32.1834 38.4058 31.8795V28.8078C38.4067 28.6573 38.3778 28.508 38.3209 28.3686C38.2641 28.2292 38.1803 28.1024 38.0744 27.9955C37.9685 27.8885 37.8425 27.8034 37.7037 27.7452C37.5649 27.6869 37.416 27.6566 37.2654 27.6559ZM36.8699 31.4956H28.4226V29.1918H36.8699V31.4956Z" fill="#2D4356"/>
</svg>
