<svg width="21" height="28" viewBox="0 0 21 28" fill="none" xmlns="http://www.w3.org/2000/svg">
<path d="M8.48127 18.5833H9.29727V14.4167H10.8973V18.5833H11.7133C11.7666 18.1056 11.9159 17.6389 12.1613 17.1833C12.3746 16.7722 12.6893 16.3278 13.1053 15.85L13.3293 15.6C13.6386 15.2667 13.8093 15.0833 13.8413 15.05C14.1826 14.6056 14.4439 14.1167 14.6253 13.5833C14.8066 13.05 14.8973 12.4944 14.8973 11.9167C14.8973 11.0167 14.6786 10.1778 14.2413 9.4C13.8146 8.64444 13.2386 8.04444 12.5133 7.6C11.7666 7.14444 10.9613 6.91667 10.0973 6.91667C9.23327 6.91667 8.42793 7.14444 7.68127 7.6C6.95593 8.04444 6.37993 8.64444 5.95327 9.4C5.51593 10.1778 5.29727 11.0167 5.29727 11.9167C5.29727 12.4944 5.38793 13.05 5.56927 13.5833C5.7506 14.1167 6.01193 14.6 6.35327 15.0333C6.38527 15.0778 6.55593 15.2667 6.86527 15.6L7.08927 15.85C7.50527 16.3278 7.81993 16.7722 8.03327 17.1833C8.2786 17.6389 8.42793 18.1056 8.48127 18.5833ZM8.49727 20.25V21.0833H11.6973V20.25H8.49727ZM5.10527 16.0833C4.65727 15.5056 4.3106 14.8667 4.06527 14.1667C3.81993 13.4444 3.69727 12.6944 3.69727 11.9167C3.69727 10.7056 3.9906 9.58333 4.57727 8.55C5.1426 7.55 5.90527 6.75556 6.86527 6.16667C7.85727 5.55556 8.9346 5.25 10.0973 5.25C11.2599 5.25 12.3373 5.55556 13.3293 6.16667C14.2893 6.75556 15.0519 7.55 15.6173 8.55C16.2039 9.58333 16.4973 10.7056 16.4973 11.9167C16.4973 12.6944 16.3746 13.4444 16.1293 14.1667C15.8839 14.8667 15.5373 15.5056 15.0893 16.0833C15.0146 16.1833 14.8653 16.35 14.6413 16.5833C14.2253 17.0389 13.9319 17.4 13.7613 17.6667C13.4519 18.1333 13.2973 18.5778 13.2973 19V21.0833C13.2973 21.3833 13.2253 21.6611 13.0813 21.9167C12.9373 22.1722 12.7426 22.375 12.4973 22.525C12.2519 22.675 11.9853 22.75 11.6973 22.75H8.49727C8.20927 22.75 7.9426 22.675 7.69727 22.525C7.45193 22.375 7.25727 22.1722 7.11327 21.9167C6.96927 21.6611 6.89727 21.3833 6.89727 21.0833V19C6.89727 18.5778 6.7426 18.1333 6.43327 17.6667C6.2626 17.4 5.96927 17.0389 5.55327 16.5833C5.32927 16.35 5.17993 16.1833 5.10527 16.0833Z" fill="#FF741F"/>
</svg>
