<svg width="48" height="48" viewBox="0 0 48 48" fill="none" xmlns="http://www.w3.org/2000/svg">
<path d="M31.4988 12.6905C31.3196 8.18021 27.5612 4.38133 22.5946 4.50284C21.4407 4.53107 20.0842 4.91398 17.9562 5.5147L17.6951 5.5884C11.8476 7.23777 6.11208 10.189 4.74717 17.1482C4.49974 18.4098 4.49984 19.8024 4.50001 22.1386L4.50001 25.8615C4.49984 28.1977 4.49974 29.5902 4.74717 30.8518C6.11208 37.8111 11.8476 40.7623 17.695 42.4116L17.9561 42.4853C20.0842 43.086 21.4407 43.469 22.5946 43.4972C27.5612 43.6187 31.3196 39.8198 31.4988 35.3095C31.5317 34.4818 30.8874 33.7841 30.0596 33.7512C29.2318 33.7183 28.5341 34.3626 28.5012 35.1904C28.386 38.0879 25.9712 40.5789 22.668 40.4981C21.9444 40.4804 20.986 40.2228 18.5095 39.5243C12.9109 37.9451 8.71016 35.4703 7.69108 30.2744C7.50683 29.3349 7.50002 28.2535 7.50002 25.6745V22.3255C7.50002 19.7465 7.50683 18.6651 7.69109 17.7256C8.71016 12.5297 12.9109 10.0549 18.5095 8.47573C20.986 7.77718 21.9444 7.51964 22.668 7.50194C25.9712 7.42113 28.386 9.91209 28.5012 12.8096C28.5341 13.6374 29.2318 14.2817 30.0596 14.2488C30.8874 14.2159 31.5317 13.5182 31.4988 12.6905Z" fill="#ED1C24"/>
<path d="M38.0455 17.9244C37.4514 17.347 36.5018 17.3605 35.9244 17.9545C35.347 18.5486 35.3605 19.4982 35.9545 20.0756C36.2777 20.3897 36.7919 20.7942 37.2814 21.1787L37.3953 21.2681C37.8867 21.6539 38.4123 22.0665 38.9096 22.4879L38.9239 22.5H20C19.1716 22.5 18.5 23.1716 18.5 24C18.5 24.8284 19.1716 25.5 20 25.5H38.9239L38.9096 25.5121C38.4123 25.9335 37.8867 26.3461 37.3953 26.7319L37.2814 26.8213C36.7919 27.2058 36.2777 27.6103 35.9545 27.9244C35.3605 28.5018 35.347 29.4514 35.9244 30.0455C36.5018 30.6395 37.4514 30.653 38.0455 30.0756C38.228 29.8982 38.5916 29.607 39.1345 29.1806L39.2544 29.0864C39.7387 28.7063 40.3068 28.2604 40.849 27.8009C41.4301 27.3085 42.0337 26.7574 42.5029 26.2064C42.7381 25.9303 42.97 25.6191 43.1492 25.2844C43.322 24.9615 43.5 24.5166 43.5 24C43.5 23.4834 43.322 23.0385 43.1492 22.7156C42.97 22.3809 42.7381 22.0697 42.5029 21.7936C42.0337 21.2426 41.4301 20.6915 40.849 20.1991C40.3068 19.7396 39.7387 19.2937 39.2544 18.9136L39.1345 18.8194C38.5916 18.393 38.228 18.1018 38.0455 17.9244Z" fill="#ED1C24"/>
</svg>
