<svg width="382" height="96" viewBox="0 0 382 96" fill="none" xmlns="http://www.w3.org/2000/svg">
<path d="M151 40C151 17.9086 168.909 0 191 0C213.091 0 231 17.9086 231 40C231 62.0914 213.091 80 191 80C168.909 80 151 62.0914 151 40Z" fill="#F3F4F6"/>
<path d="M201.189 35V51.25C201.189 51.6 201.073 51.8958 200.841 52.1375C200.609 52.3792 200.325 52.5 199.989 52.5H180.779C180.443 52.5 180.158 52.3792 179.926 52.1375C179.694 51.8958 179.578 51.6 179.578 51.25V28.75C179.578 28.4 179.694 28.1042 179.926 27.8625C180.158 27.6208 180.443 27.5 180.779 27.5H193.986L201.189 35ZM198.788 36.25H192.785V30H181.979V50H198.788V36.25ZM185.581 33.75H189.183V36.25H185.581V33.75ZM185.581 38.75H195.186V41.25H185.581V38.75ZM185.581 43.75H195.186V46.25H185.581V43.75Z" fill="#9CA3AF"/>
</svg>
