<svg width="153" height="53" viewBox="0 0 153 53" fill="none" xmlns="http://www.w3.org/2000/svg">
<rect width="152.5" height="53" fill="white"/>
<path d="M60.1465 19C60.1465 18.4477 60.5942 18 61.1465 18H62.1465C62.6988 18 63.1465 18.4477 63.1465 19V27C63.1465 27.5523 62.6988 28 62.1465 28H61.1465C60.5942 28 60.1465 27.5523 60.1465 27V19Z" fill="black"/>
<path d="M65.1465 17C65.1465 16.4477 65.5942 16 66.1465 16H67.1465C67.6988 16 68.1465 16.4477 68.1465 17V27C68.1465 27.5523 67.6988 28 67.1465 28H66.1465C65.5942 28 65.1465 27.5523 65.1465 27V17Z" fill="black"/>
<path d="M55.1465 22.5C55.1465 21.9477 55.5942 21.5 56.1465 21.5H57.1465C57.6988 21.5 58.1465 21.9477 58.1465 22.5V27C58.1465 27.5523 57.6988 28 57.1465 28H56.1465C55.5942 28 55.1465 27.5523 55.1465 27V22.5Z" fill="black"/>
<path d="M50.1465 25C50.1465 24.4477 50.5942 24 51.1465 24H52.1465C52.6988 24 53.1465 24.4477 53.1465 25V27C53.1465 27.5523 52.6988 28 52.1465 28H51.1465C50.5942 28 50.1465 27.5523 50.1465 27V25Z" fill="black"/>
<path d="M82.2617 24.9189C83.6814 23.6934 85.7609 23.6935 87.1807 24.9189C87.2521 24.9849 87.2939 25.0785 87.2959 25.1768C87.2979 25.275 87.2601 25.3696 87.1914 25.4385L84.9678 27.7285C84.9027 27.7958 84.8143 27.8339 84.7217 27.834C84.629 27.834 84.5398 27.7958 84.4746 27.7285L82.251 25.4385C82.1824 25.3696 82.1445 25.275 82.1465 25.1768C82.1485 25.0785 82.1902 24.9848 82.2617 24.9189ZM79.2559 22.1787C82.3149 19.2741 87.0523 19.2741 90.1113 22.1787C90.1803 22.2468 90.2197 22.3405 90.2207 22.4385C90.2216 22.5364 90.1838 22.6308 90.1162 22.7002L88.8311 24.0254C88.6986 24.1607 88.4845 24.164 88.3486 24.0322C87.3441 23.1038 86.0377 22.5898 84.6826 22.5898C83.3283 22.5904 82.0224 23.1043 81.0186 24.0322C80.8827 24.164 80.6686 24.1607 80.5361 24.0254L79.251 22.7002C79.1832 22.6308 79.1457 22.5364 79.1465 22.4385C79.1474 22.3405 79.1869 22.2468 79.2559 22.1787ZM76.2539 19.4424C80.9458 14.8528 88.3472 14.8528 93.0391 19.4424C93.107 19.5106 93.1459 19.6039 93.1465 19.7012C93.1469 19.7983 93.109 19.892 93.042 19.9609L91.7559 21.2861C91.6233 21.4221 91.4081 21.4238 91.2734 21.29C89.4858 19.5553 87.113 18.588 84.6465 18.5879C82.1799 18.588 79.8073 19.5553 78.0195 21.29C77.885 21.4239 77.6695 21.4223 77.5371 21.2861L76.25 19.9609C76.183 19.892 76.146 19.7982 76.1465 19.7012C76.1471 19.6039 76.1859 19.5105 76.2539 19.4424Z" fill="black"/>
<path d="M105.146 16.5273H122.146C124.064 16.5273 125.619 18.0822 125.619 20V25C125.619 26.9178 124.064 28.4727 122.146 28.4727H105.146C103.229 28.4727 101.674 26.9178 101.674 25V20C101.674 18.0822 103.229 16.5273 105.146 16.5273Z" stroke="black" stroke-width="1.05509"/>
<path d="M127.146 21V25.2203C127.996 24.8629 128.548 24.0314 128.548 23.1102C128.548 22.1889 127.996 21.3574 127.146 21Z" fill="black"/>
<path d="M103.146 20C103.146 18.8954 104.042 18 105.146 18H116.146C117.251 18 118.146 18.8954 118.146 20V25C118.146 26.1046 117.251 27 116.146 27H105.146C104.042 27 103.146 26.1046 103.146 25V20Z" fill="#FF741F"/>
</svg>
