<svg width="20" height="28" viewBox="0 0 20 28" fill="none" xmlns="http://www.w3.org/2000/svg">
<path d="M9.99914 18.5C9.22087 18.5 8.49544 18.295 7.82285 17.885C7.16949 17.485 6.65064 16.945 6.2663 16.265C5.87236 15.565 5.67539 14.81 5.67539 14C5.67539 13.19 5.87236 12.435 6.2663 11.735C6.65064 11.055 7.16949 10.515 7.82285 10.115C8.49544 9.705 9.22087 9.5 9.99914 9.5C10.7774 9.5 11.5028 9.705 12.1754 10.115C12.8288 10.515 13.3476 11.055 13.732 11.735C14.1259 12.435 14.3229 13.19 14.3229 14C14.3229 14.81 14.1259 15.565 13.732 16.265C13.3476 16.945 12.8288 17.485 12.1754 17.885C11.5028 18.295 10.7774 18.5 9.99914 18.5ZM9.99914 17C10.518 17 10.9984 16.865 11.4404 16.595C11.8824 16.325 12.2331 15.96 12.4925 15.5C12.7519 15.04 12.8816 14.54 12.8816 14C12.8816 13.46 12.7519 12.96 12.4925 12.5C12.2331 12.04 11.8824 11.675 11.4404 11.405C10.9984 11.135 10.518 11 9.99914 11C9.48029 11 8.99987 11.135 8.55789 11.405C8.11591 11.675 7.7652 12.04 7.50578 12.5C7.24635 12.96 7.11664 13.46 7.11664 14C7.11664 14.54 7.24635 15.04 7.50578 15.5C7.7652 15.96 8.11591 16.325 8.55789 16.595C8.99987 16.865 9.48029 17 9.99914 17ZM9.27852 5.75H10.7198V8H9.27852V5.75ZM9.27852 20H10.7198V22.25H9.27852V20ZM3.88824 8.69L4.89712 7.64L6.43925 9.23L5.41597 10.295L3.88824 8.69ZM13.559 18.77L14.5823 17.705L16.11 19.31L15.1012 20.36L13.559 18.77ZM15.1012 7.64L16.11 8.69L14.5823 10.295L13.559 9.23L15.1012 7.64ZM5.41597 17.705L6.43925 18.77L4.89712 20.36L3.88824 19.31L5.41597 17.705ZM17.926 13.25V14.75H15.7641V13.25H17.926ZM4.23414 13.25V14.75H2.07227V13.25H4.23414Z" fill="#FF741F"/>
</svg>
