<svg width="12" height="6" viewBox="0 0 12 6" fill="none" xmlns="http://www.w3.org/2000/svg">
<path d="M10.3787 0H1.14041C0.989867 0.000667253 0.840934 0.0309996 0.702125 0.0892662C0.563317 0.147533 0.437357 0.232591 0.331444 0.339573C0.225532 0.446555 0.141747 0.573363 0.0848784 0.71275C0.0280097 0.852137 -0.000827629 1.00137 1.80761e-05 1.15191V4.22366C-0.00103426 4.52749 0.118409 4.81935 0.332171 5.03527C0.545933 5.25119 0.836577 5.37356 1.14041 5.37557H10.3787C10.6825 5.37356 10.9732 5.25119 11.1869 5.03527C11.4007 4.81935 11.5201 4.52749 11.5191 4.22366V1.15191C11.5199 1.00137 11.4911 0.852137 11.4342 0.71275C11.3774 0.573363 11.2936 0.446555 11.1877 0.339573C11.0817 0.232591 10.9558 0.147533 10.817 0.0892662C10.6782 0.0309996 10.5292 0.000667253 10.3787 0ZM9.98321 3.83969H1.53589V1.53588H9.98321V3.83969Z" fill="#2D4356"/>
</svg>
