<svg width="30" height="30" viewBox="0 0 30 30" fill="none" xmlns="http://www.w3.org/2000/svg">
<path fill-rule="evenodd" clip-rule="evenodd" d="M8.77959 7.79468C8.27808 7.79468 7.85001 8.18918 7.83028 8.70851C7.6771 12.7411 9.94643 17.4174 14.0159 20.0681C16.0255 21.377 18.4742 22.1925 21.2803 22.1951C21.7909 22.1956 22.2312 21.7844 22.2312 21.2451V17.6401C22.2312 17.1769 21.8971 16.7811 21.4404 16.7035L16.5297 15.8689L14.4102 18.0564C13.4685 17.3486 12.6569 16.5127 11.9855 15.6041L14.1626 13.4272L13.3899 8.59467C13.3162 8.13377 12.9186 7.79468 12.4518 7.79468H8.77959ZM20.3562 20.2847C18.751 20.1624 17.3056 19.7285 16.0342 19.0749L17.1891 17.8828L20.3562 18.4211V20.2847ZM12.16 12.7781L10.9665 13.9715C10.2361 12.5667 9.80951 11.0772 9.71709 9.66968H11.663L12.16 12.7781Z" fill="white"/>
<path fill-rule="evenodd" clip-rule="evenodd" d="M14.9995 1.56055C7.57683 1.56055 1.55957 7.57781 1.55957 15.0005C1.55957 17.3769 2.07814 19.4516 3.17013 21.391L1.603 27.2176C1.4132 27.9233 2.05791 28.5701 2.76421 28.3825L8.57543 26.8394C10.5293 27.9448 12.6159 28.4404 14.9995 28.4404C22.4222 28.4404 28.4395 22.4232 28.4395 15.0005C28.4395 7.57781 22.4222 1.56055 14.9995 1.56055ZM3.43457 15.0005C3.43457 8.61335 8.61236 3.43555 14.9995 3.43555C21.3867 3.43555 26.5645 8.61335 26.5645 15.0005C26.5645 21.3876 21.3867 26.5654 14.9995 26.5654C12.7754 26.5654 10.9274 26.0828 9.19969 25.032L8.85823 24.8244L3.82915 26.1598L5.18619 21.1143L4.9796 20.7722C3.9363 19.0443 3.43457 17.2027 3.43457 15.0005Z" fill="white"/>
</svg>
