<svg width="500" height="500" viewBox="0 0 500 500" fill="none" xmlns="http://www.w3.org/2000/svg">
<g clip-path="url(#clip0_12029_431)">
<path d="M500 0H0V500H500V0Z" fill="#FF741F"/>
<mask id="mask0_12029_431" style="mask-type:luminance" maskUnits="userSpaceOnUse" x="230" y="99" width="43" height="183">
<path d="M272.29 99.49H230.58V281.01H272.29V99.49Z" fill="white"/>
</mask>
<g mask="url(#mask0_12029_431)">
<mask id="mask1_12029_431" style="mask-type:luminance" maskUnits="userSpaceOnUse" x="230" y="99" width="43" height="182">
<path d="M242.58 99.49H260.29C263.47 99.49 266.52 100.76 268.77 103.01C271.02 105.26 272.29 108.31 272.29 111.49V268.84C272.29 272.02 271.02 275.07 268.77 277.32C266.52 279.57 263.47 280.84 260.29 280.84H242.58C239.4 280.84 236.35 279.57 234.1 277.32C231.85 275.07 230.58 272.02 230.58 268.84V111.49C230.58 108.31 231.85 105.26 234.1 103.01C236.35 100.76 239.4 99.49 242.58 99.49Z" fill="white"/>
</mask>
<g mask="url(#mask1_12029_431)">
<mask id="mask2_12029_431" style="mask-type:luminance" maskUnits="userSpaceOnUse" x="229" y="98" width="45" height="184">
<path d="M273.391 98.79H229.391V281.46H273.391V98.79Z" fill="white"/>
</mask>
<g mask="url(#mask2_12029_431)">
<mask id="mask3_12029_431" style="mask-type:luminance" maskUnits="userSpaceOnUse" x="230" y="99" width="43" height="182">
<path d="M272.29 99.49H230.58V280.87H272.29V99.49Z" fill="white"/>
</mask>
<g mask="url(#mask3_12029_431)">
<mask id="mask4_12029_431" style="mask-type:luminance" maskUnits="userSpaceOnUse" x="230" y="99" width="43" height="182">
<path d="M242.58 99.49H260.29C263.47 99.49 266.52 100.76 268.77 103.01C271.02 105.26 272.29 108.31 272.29 111.49V268.84C272.29 272.02 271.02 275.07 268.77 277.32C266.52 279.57 263.47 280.84 260.29 280.84H242.58C239.4 280.84 236.35 279.57 234.1 277.32C231.85 275.07 230.58 272.02 230.58 268.84V111.49C230.58 108.31 231.85 105.26 234.1 103.01C236.35 100.76 239.4 99.49 242.58 99.49Z" fill="white"/>
</mask>
<g mask="url(#mask4_12029_431)">
<path d="M230.58 99.49H272.29V280.84H230.58V99.49Z" fill="white"/>
</g>
</g>
</g>
</g>
</g>
<mask id="mask5_12029_431" style="mask-type:luminance" maskUnits="userSpaceOnUse" x="279" y="194" width="42" height="82">
<path d="M320.899 194.57H279.189V275.39H320.899V194.57Z" fill="white"/>
</mask>
<g mask="url(#mask5_12029_431)">
<mask id="mask6_12029_431" style="mask-type:luminance" maskUnits="userSpaceOnUse" x="279" y="194" width="42" height="82">
<path d="M291.189 194.57H308.899C312.079 194.57 315.129 195.84 317.379 198.09C319.629 200.34 320.899 203.39 320.899 206.57V263.38C320.899 266.56 319.629 269.62 317.379 271.87C315.129 274.12 312.079 275.38 308.899 275.38H291.189C288.009 275.38 284.959 274.12 282.709 271.87C280.459 269.62 279.189 266.56 279.189 263.38V206.57C279.189 203.39 280.459 200.34 282.709 198.09C284.959 195.84 288.009 194.57 291.189 194.57Z" fill="white"/>
</mask>
<g mask="url(#mask6_12029_431)">
<mask id="mask7_12029_431" style="mask-type:luminance" maskUnits="userSpaceOnUse" x="278" y="193" width="44" height="84">
<path d="M321.398 193.46H278.729V276.13H321.398V193.46Z" fill="white"/>
</mask>
<g mask="url(#mask7_12029_431)">
<mask id="mask8_12029_431" style="mask-type:luminance" maskUnits="userSpaceOnUse" x="279" y="194" width="42" height="82">
<path d="M320.899 194.57H279.189V275.39H320.899V194.57Z" fill="white"/>
</mask>
<g mask="url(#mask8_12029_431)">
<mask id="mask9_12029_431" style="mask-type:luminance" maskUnits="userSpaceOnUse" x="279" y="194" width="42" height="82">
<path d="M291.189 194.57H308.899C312.079 194.57 315.129 195.84 317.379 198.09C319.629 200.34 320.899 203.39 320.899 206.57V263.38C320.899 266.56 319.629 269.62 317.379 271.87C315.129 274.12 312.079 275.38 308.899 275.38H291.189C288.009 275.38 284.959 274.12 282.709 271.87C280.459 269.62 279.189 266.56 279.189 263.38V206.57C279.189 203.39 280.459 200.34 282.709 198.09C284.959 195.84 288.009 194.57 291.189 194.57Z" fill="white"/>
</mask>
<g mask="url(#mask9_12029_431)">
<path d="M279.189 194.57H320.899V275.39H279.189V194.57Z" fill="white"/>
</g>
</g>
</g>
</g>
</g>
<mask id="mask10_12029_431" style="mask-type:luminance" maskUnits="userSpaceOnUse" x="181" y="103" width="43" height="81">
<path d="M223.591 103.02H181.881V183.84H223.591V103.02Z" fill="white"/>
</mask>
<g mask="url(#mask10_12029_431)">
<mask id="mask11_12029_431" style="mask-type:luminance" maskUnits="userSpaceOnUse" x="181" y="103" width="43" height="81">
<path d="M193.881 103.02H211.591C214.771 103.02 217.821 104.29 220.071 106.54C222.321 108.79 223.591 111.84 223.591 115.02V171.83C223.591 175.01 222.321 178.06 220.071 180.32C217.821 182.57 214.771 183.83 211.591 183.83H193.881C190.701 183.83 187.651 182.57 185.401 180.32C183.151 178.06 181.881 175.01 181.881 171.83V115.02C181.881 111.84 183.151 108.79 185.401 106.54C187.651 104.29 190.701 103.02 193.881 103.02Z" fill="white"/>
</mask>
<g mask="url(#mask11_12029_431)">
<mask id="mask12_12029_431" style="mask-type:luminance" maskUnits="userSpaceOnUse" x="181" y="102" width="44" height="83">
<path d="M224.061 102.79H181.391V184.12H224.061V102.79Z" fill="white"/>
</mask>
<g mask="url(#mask12_12029_431)">
<mask id="mask13_12029_431" style="mask-type:luminance" maskUnits="userSpaceOnUse" x="181" y="103" width="43" height="81">
<path d="M223.591 103.02H181.881V183.84H223.591V103.02Z" fill="white"/>
</mask>
<g mask="url(#mask13_12029_431)">
<mask id="mask14_12029_431" style="mask-type:luminance" maskUnits="userSpaceOnUse" x="181" y="103" width="43" height="81">
<path d="M193.881 103.02H211.591C214.771 103.02 217.821 104.29 220.071 106.54C222.321 108.79 223.591 111.84 223.591 115.02V171.83C223.591 175.01 222.321 178.06 220.071 180.32C217.821 182.57 214.771 183.83 211.591 183.83H193.881C190.701 183.83 187.651 182.57 185.401 180.32C183.151 178.06 181.881 175.01 181.881 171.83V115.02C181.881 111.84 183.151 108.79 185.401 106.54C187.651 104.29 190.701 103.02 193.881 103.02Z" fill="white"/>
</mask>
<g mask="url(#mask14_12029_431)">
<path d="M181.881 103.02H223.591V183.84H181.881V103.02Z" fill="white"/>
</g>
</g>
</g>
</g>
</g>
<path d="M177.509 311.35L176.909 309.5C176.139 307.12 175.689 305.59 175.529 304.9L172.859 305V302.9H184.379V304.48C183.089 304.54 182.169 304.75 181.629 305.13C181.099 305.49 180.839 306.08 180.839 306.9C180.839 307.65 180.989 308.57 181.299 309.65C181.869 311.78 182.629 314.15 183.589 316.78C183.739 317.25 183.929 317.82 184.149 318.47C184.369 319.11 184.629 319.86 184.919 320.72C185.099 321.38 185.329 322.1 185.609 322.89C185.899 323.68 186.109 324.25 186.239 324.6C186.879 326.31 187.349 327.67 187.679 328.68H187.759C188.399 326.53 189.049 324.45 189.719 322.43C190.859 318.75 192.109 314.88 193.469 310.8C194.889 306.52 195.739 303.86 196.029 302.82H197.549C197.929 304.11 198.569 306.15 199.489 308.92C200.409 311.69 201.069 313.69 201.489 314.92C202.429 317.64 203.079 319.58 203.429 320.71C203.679 321.56 204.089 322.84 204.659 324.54C205.299 326.37 205.809 327.95 206.179 329.25H206.329C207.089 326.78 207.739 324.74 208.269 323.12C209.899 318.54 211.209 314.58 212.209 311.24C212.549 310.07 212.879 309.09 213.169 308.3C213.759 306.69 214.259 305.54 214.649 304.84L210.839 304.99V302.89H220.489V304.47C219.349 304.6 218.479 304.83 217.889 305.18C217.309 305.53 216.789 306.15 216.329 307.06C215.869 307.97 215.289 309.45 214.599 311.5L212.179 318.71C209.649 326.41 207.609 332.37 206.049 336.61H204.629L195.749 311.21L187.399 336.61H186.019L177.519 311.36L177.509 311.35Z" fill="white"/>
<path d="M221.78 333.93L222.34 333.12C227.88 325.49 233.31 317.43 238.63 308.93C239.82 307.05 240.83 305.63 241.65 304.66L229.57 304.85C227.66 304.91 226.26 305.57 225.34 306.85C224.42 308.12 223.96 310.07 223.96 312.73H222.33L222.62 302.9H246.16V304.57L229.12 330.45C227.95 332.19 226.88 333.5 225.89 334.39L237.43 334.2C239.64 334.16 241.41 333.49 242.76 332.2C244.1 330.91 244.78 328.98 244.78 326.41H246.38L246.11 336.14H221.76V333.95L221.78 333.93Z" fill="white"/>
<path d="M251.28 334.56C252.39 334.53 253.18 334.28 253.66 333.81C254.13 333.33 254.39 332.76 254.45 332.12C254.52 331.47 254.55 330.34 254.55 328.72V308.22C254.55 306.89 254.6 305.75 254.7 304.8L251.28 304.99V302.89H274.11L274.34 311.2H272.78C272.78 308.61 272.22 306.84 271.09 305.89C269.96 304.95 268.39 304.5 266.38 304.56L262.3 304.66C261.16 304.69 260.33 304.9 259.82 305.31C259.32 305.7 259.01 306.25 258.88 306.96C258.75 307.67 258.69 308.79 258.69 310.31V317.89L267.61 317.95L267.28 313.87H269.36V323.83H267.8C267.8 322.66 267.65 321.78 267.36 321.16C267.08 320.53 266.65 320.12 266.07 319.91C265.49 319.7 264.67 319.6 263.63 319.6L262.15 319.66L258.69 319.79V330.67C258.69 332.31 258.64 333.55 258.54 334.38L267.6 334.23C269.81 334.2 271.5 333.64 272.66 332.54C273.84 331.45 274.43 329.56 274.43 326.87H276.03L275.76 336.12H251.26V334.56H251.28Z" fill="white"/>
<path d="M280.779 334.56C281.889 334.53 282.679 334.28 283.159 333.81C283.629 333.33 283.889 332.76 283.949 332.12C284.019 331.47 284.049 330.34 284.049 328.72V308.22C284.049 306.89 284.099 305.75 284.199 304.8L280.779 304.99V302.89H291.469V304.47C290.359 304.5 289.559 304.75 289.089 305.22C288.619 305.69 288.349 306.26 288.279 306.91C288.219 307.57 288.199 308.7 288.199 310.31V330.48C288.199 332.16 288.149 333.41 288.049 334.23L291.469 334.04V336.12H280.779V334.56Z" fill="white"/>
<path d="M302.049 309.2H301.989L302.139 329.51C302.139 331.64 302.109 333.21 302.059 334.22L305.479 334.03V336.11H296.789V334.55C298.049 334.55 298.879 334.19 299.289 333.47C299.709 332.74 299.919 331.84 299.919 330.8L299.959 304.8L296.789 304.99V302.89H302.439L322.649 329.95H322.709L322.749 308.22C322.749 306.89 322.799 305.75 322.899 304.8L319.479 304.99V302.89H328.209V304.47C327.259 304.5 326.549 304.68 326.079 305.01C325.619 305.34 325.329 305.8 325.199 306.36C325.069 306.93 325.009 307.69 325.009 308.63V310.3L324.929 336.86H322.639L302.059 309.19L302.049 309.2Z" fill="white"/>
<path d="M218.269 364.62C217.519 364.62 216.919 364.39 216.459 363.91C215.999 363.43 215.769 362.84 215.769 362.14C215.769 361.44 215.989 360.91 216.439 360.43C216.899 359.95 217.509 359.7 218.269 359.7C219.029 359.7 219.629 359.94 220.079 360.43C220.539 360.9 220.769 361.47 220.769 362.14C220.769 362.81 220.549 363.43 220.099 363.91C219.649 364.38 219.039 364.62 218.269 364.62ZM231.769 385.2H239.979V389.16H231.689C231.489 390.98 230.999 392.56 230.209 393.91C229.429 395.25 228.419 396.38 227.169 397.29C225.929 398.19 224.529 398.86 222.959 399.31C221.389 399.75 219.729 399.98 217.979 399.98H217.959C215.959 399.96 214.129 399.6 212.479 398.9C210.819 398.2 209.389 397.24 208.169 396C206.959 394.78 206.019 393.35 205.359 391.73C204.689 390.12 204.359 388.39 204.359 386.54C204.359 384.87 204.679 383.2 205.339 381.5C206.009 379.81 207.009 378.27 208.359 376.87L211.189 379.7C210.399 380.56 209.769 381.57 209.309 382.72C208.859 383.88 208.639 385.14 208.639 386.51C208.639 387.88 208.869 389.09 209.329 390.24C209.789 391.39 210.429 392.4 211.269 393.26C212.099 394.12 213.089 394.79 214.229 395.28C215.369 395.76 216.619 396.01 217.979 396.01C219.199 396.01 220.369 395.84 221.479 395.51C222.589 395.18 223.589 394.67 224.479 393.99C225.379 393.31 226.079 392.43 226.579 391.36C227.089 390.3 227.349 389.04 227.349 387.55V368.3H231.769V385.2Z" fill="white"/>
<path d="M251.99 389.16H239.49V385.2H247.62V363.99H252V389.16H251.99ZM244.76 399.22C243.99 399.22 243.39 398.98 242.95 398.49C242.5 398 242.28 397.43 242.28 396.76C242.28 396.09 242.49 395.49 242.93 395.01C243.37 394.54 243.98 394.3 244.76 394.3C245.54 394.3 246.12 394.53 246.57 395.01C247.03 395.49 247.26 396.08 247.26 396.76C247.26 397.44 247.04 398 246.59 398.49C246.14 398.97 245.53 399.22 244.76 399.22ZM250.97 399.22C250.22 399.22 249.62 398.98 249.16 398.49C248.71 398 248.49 397.43 248.49 396.76C248.49 396.09 248.71 395.49 249.16 395.01C249.62 394.54 250.22 394.3 250.97 394.3C251.72 394.3 252.36 394.53 252.8 395.01C253.26 395.49 253.49 396.08 253.49 396.76C253.49 397.44 253.26 398 252.8 398.49C252.35 398.97 251.74 399.22 250.97 399.22Z" fill="white"/>
<path d="M264.879 360.24C264.109 360.24 263.499 360.01 263.049 359.53C262.599 359.05 262.379 358.46 262.379 357.78C262.379 357.1 262.599 356.54 263.049 356.05C263.489 355.55 264.099 355.3 264.879 355.3C265.659 355.3 266.229 355.55 266.689 356.05C267.149 356.54 267.379 357.11 267.379 357.78C267.379 358.45 267.159 359.05 266.709 359.53C266.259 360 265.649 360.24 264.879 360.24ZM258.799 397.83H256.109V393.66H258.319C259.259 393.66 260.049 393.44 260.699 393.01C261.339 392.58 261.829 391.99 262.159 391.26C262.489 390.52 262.659 389.68 262.659 388.74V363.93H266.909V389.06C266.909 391.84 266.229 393.99 264.889 395.52C263.559 397.06 261.529 397.83 258.809 397.83H258.799Z" fill="white"/>
<path d="M296.399 363.99V389.12C296.399 391.41 295.919 393.3 294.959 394.79C293.999 396.29 292.629 397.4 290.859 398.12C289.089 398.85 286.959 399.22 284.459 399.22C283.289 399.22 282.209 399.12 281.209 398.91C280.209 398.71 279.229 398.42 278.269 398.01C277.309 397.62 276.299 397.16 275.249 396.63L275.689 392.82C276.949 393.54 278.359 394.12 279.899 394.57C281.449 395.03 282.969 395.26 284.459 395.26C286.879 395.26 288.729 394.79 290.019 393.84C291.309 392.89 291.959 391.33 291.979 389.15H285.669C283.889 389.15 282.229 388.82 280.689 388.15C279.149 387.48 277.789 386.56 276.629 385.38C275.469 384.19 274.569 382.8 273.919 381.21C273.259 379.63 272.939 377.93 272.939 376.11C272.939 374.42 273.259 372.83 273.919 371.36C274.569 369.89 275.469 368.6 276.629 367.51C277.779 366.4 279.119 365.54 280.649 364.93C282.189 364.3 283.849 363.99 285.629 363.99H296.399ZM285.629 385.2H291.979V367.74H285.599C284.439 367.74 283.359 367.96 282.349 368.41C281.349 368.84 280.459 369.45 279.699 370.22C278.949 370.99 278.359 371.88 277.929 372.91C277.509 373.93 277.299 375.03 277.299 376.22C277.299 377.51 277.509 378.7 277.949 379.78C278.379 380.86 278.969 381.82 279.719 382.63C280.469 383.44 281.349 384.07 282.369 384.53C283.379 384.98 284.459 385.2 285.619 385.2H285.629Z" fill="white"/>
</g>
<defs>
<clipPath id="clip0_12029_431">
<rect width="500" height="500" fill="white"/>
</clipPath>
</defs>
</svg>
